<svg xmlns="http://www.w3.org/2000/svg" xmlns:xlink="http://www.w3.org/1999/xlink" width="816" zoomAndPan="magnify" viewBox="0 0 612 791.999994" height="1056" preserveAspectRatio="xMidYMid meet" version="1.0"><defs><clipPath id="a9133d1d47"><path d="M 191.542969 281.542969 L 420.457031 281.542969 L 420.457031 510.457031 L 191.542969 510.457031 Z M 191.542969 281.542969 " clip-rule="nonzero"/></clipPath><clipPath id="4d80bdf5d6"><path d="M 306 281.542969 C 242.785156 281.542969 191.542969 332.785156 191.542969 396 C 191.542969 459.214844 242.785156 510.457031 306 510.457031 C 369.214844 510.457031 420.457031 459.214844 420.457031 396 C 420.457031 332.785156 369.214844 281.542969 306 281.542969 Z M 306 281.542969 " clip-rule="nonzero"/></clipPath><clipPath id="036e7b597b"><path d="M 0.542969 0.542969 L 229.457031 0.542969 L 229.457031 229.457031 L 0.542969 229.457031 Z M 0.542969 0.542969 " clip-rule="nonzero"/></clipPath><clipPath id="d33f322264"><path d="M 115 0.542969 C 51.785156 0.542969 0.542969 51.785156 0.542969 115 C 0.542969 178.214844 51.785156 229.457031 115 229.457031 C 178.214844 229.457031 229.457031 178.214844 229.457031 115 C 229.457031 51.785156 178.214844 0.542969 115 0.542969 Z M 115 0.542969 " clip-rule="nonzero"/></clipPath><clipPath id="d0b006856a"><rect x="0" width="230" y="0" height="230"/></clipPath><clipPath id="9f740231da"><path d="M 132.082031 222.082031 L 480.082031 222.082031 L 480.082031 570.082031 L 132.082031 570.082031 Z M 132.082031 222.082031 " clip-rule="nonzero"/></clipPath></defs><rect x="-61.2" width="734.4" fill="#ffffff" y="-79.199999" height="950.399992" fill-opacity="1"/><rect x="-61.2" width="734.4" fill="#0d203b" y="-79.199999" height="950.399992" fill-opacity="1"/><g clip-path="url(#a9133d1d47)"><g clip-path="url(#4d80bdf5d6)"><g transform="matrix(1, 0, 0, 1, 191, 281)"><g clip-path="url(#d0b006856a)"><g clip-path="url(#036e7b597b)"><g clip-path="url(#d33f322264)"><path fill="#0d203b" d="M 0.542969 0.542969 L 229.457031 0.542969 L 229.457031 229.457031 L 0.542969 229.457031 Z M 0.542969 0.542969 " fill-opacity="1" fill-rule="nonzero"/></g></g></g></g></g></g><g clip-path="url(#9f740231da)"><path fill="#f5f5f5" d="M 306 570.082031 C 401.859375 570.082031 480.082031 491.859375 480.082031 396 C 480.082031 300.140625 401.859375 221.917969 306 221.917969 C 210.140625 221.917969 131.917969 300.140625 131.917969 396 C 131.917969 491.859375 210.140625 570.082031 306 570.082031 Z M 256.152344 365.707031 L 320.570312 301.289062 L 350.863281 331.582031 L 286.828125 396 L 350.863281 460.035156 L 320.570312 490.324219 L 256.152344 426.292969 L 225.859375 396 Z M 256.152344 365.707031 " fill-opacity="1" fill-rule="nonzero"/></g></svg>