<svg xmlns="http://www.w3.org/2000/svg" xmlns:xlink="http://www.w3.org/1999/xlink" width="816" zoomAndPan="magnify" viewBox="0 0 612 791.999994" height="1056" preserveAspectRatio="xMidYMid meet" version="1.0"><defs><g/><clipPath id="5ba011927f"><path d="M 173.449219 350.101562 L 440.242188 350.101562 L 440.242188 441.898438 L 173.449219 441.898438 Z M 173.449219 350.101562 " clip-rule="nonzero"/></clipPath><clipPath id="27343d11b4"><path d="M 204.949219 350.101562 L 408.636719 350.101562 C 426.03125 350.101562 440.136719 364.203125 440.136719 381.601562 L 440.136719 410.398438 C 440.136719 427.796875 426.03125 441.898438 408.636719 441.898438 L 204.949219 441.898438 C 187.550781 441.898438 173.449219 427.796875 173.449219 410.398438 L 173.449219 381.601562 C 173.449219 364.203125 187.550781 350.101562 204.949219 350.101562 Z M 204.949219 350.101562 " clip-rule="nonzero"/></clipPath><clipPath id="718b4054c8"><path d="M 0.449219 0.101562 L 267.160156 0.101562 L 267.160156 91.898438 L 0.449219 91.898438 Z M 0.449219 0.101562 " clip-rule="nonzero"/></clipPath><clipPath id="4bbbb65dc6"><path d="M 31.949219 0.101562 L 235.636719 0.101562 C 253.03125 0.101562 267.136719 14.203125 267.136719 31.601562 L 267.136719 60.398438 C 267.136719 77.796875 253.03125 91.898438 235.636719 91.898438 L 31.949219 91.898438 C 14.550781 91.898438 0.449219 77.796875 0.449219 60.398438 L 0.449219 31.601562 C 0.449219 14.203125 14.550781 0.101562 31.949219 0.101562 Z M 31.949219 0.101562 " clip-rule="nonzero"/></clipPath><clipPath id="cb33147283"><rect x="0" width="268" y="0" height="92"/></clipPath></defs><rect x="-61.2" width="734.4" fill="#ffffff" y="-79.199999" height="950.399992" fill-opacity="1"/><rect x="-61.2" width="734.4" fill="#fcfaff" y="-79.199999" height="950.399992" fill-opacity="1"/><g clip-path="url(#5ba011927f)"><g clip-path="url(#27343d11b4)"><g transform="matrix(1, 0, 0, 1, 173, 350)"><g clip-path="url(#cb33147283)"><g clip-path="url(#718b4054c8)"><g clip-path="url(#4bbbb65dc6)"><path fill="#3d5897" d="M 0.449219 0.101562 L 267.242188 0.101562 L 267.242188 91.898438 L 0.449219 91.898438 Z M 0.449219 0.101562 " fill-opacity="1" fill-rule="nonzero"/></g></g></g></g></g></g><g fill="#fcfaff" fill-opacity="1"><g transform="translate(252.725306, 404.622187)"><g><path d="M 2.410156 -25.414062 L 2.410156 0 L 8.746094 0 L 8.746094 -10.261719 L 20.878906 -10.261719 L 20.878906 -15.191406 L 8.746094 -15.191406 L 8.746094 -20.519531 L 21.925781 -20.519531 L 21.925781 -25.414062 Z M 2.410156 -25.414062 "/></g></g></g><g fill="#fcfaff" fill-opacity="1"><g transform="translate(275.225351, 404.622187)"><g><path d="M 8.746094 0 L 8.746094 -25.414062 L 2.410156 -25.414062 L 2.410156 0 Z M 8.746094 0 "/></g></g></g><g fill="#fcfaff" fill-opacity="1"><g transform="translate(288.00538, 404.622187)"><g><path d="M 23.761719 0 L 23.761719 -25.414062 L 17.675781 -25.414062 L 17.675781 -9.9375 L 8.640625 -25.414062 L 2.410156 -25.414062 L 2.410156 0 L 8.53125 0 L 8.53125 -15.191406 L 17.53125 0 Z M 23.761719 0 "/></g></g></g><g fill="#fcfaff" fill-opacity="1"><g transform="translate(314.249427, 404.622187)"><g><path d="M 25.378906 0 L 16.019531 -25.414062 L 9.394531 -25.414062 L -0.0351562 0 L 6.730469 0 L 7.992188 -4.066406 L 17.351562 -4.066406 L 18.613281 0 Z M 15.910156 -8.640625 L 9.46875 -8.640625 L 12.601562 -19.367188 Z M 15.910156 -8.640625 "/></g></g></g><g fill="#fcfaff" fill-opacity="1"><g transform="translate(339.737478, 404.622187)"><g><path d="M 18.71875 0 L 18.71875 -5.363281 L 8.785156 -5.363281 L 8.785156 -25.414062 L 2.449219 -25.414062 L 2.449219 0 Z M 18.71875 0 "/></g></g></g></svg>