<svg xmlns="http://www.w3.org/2000/svg" xmlns:xlink="http://www.w3.org/1999/xlink" width="816" zoomAndPan="magnify" viewBox="0 0 612 791.999994" height="1056" preserveAspectRatio="xMidYMid meet" version="1.0"><defs><g/><clipPath id="9a0e32ab7c"><path d="M 148 94 L 187 94 L 187 133 L 148 133 Z M 148 94 " clip-rule="nonzero"/></clipPath><clipPath id="e4cf33de8c"><path d="M 153.929688 88.695312 L 203.230469 101.136719 L 192.863281 142.21875 L 143.5625 129.78125 Z M 153.929688 88.695312 " clip-rule="nonzero"/></clipPath><clipPath id="2561ab4b38"><path d="M 153.929688 88.695312 L 203.230469 101.136719 L 192.863281 142.21875 L 143.5625 129.78125 Z M 153.929688 88.695312 " clip-rule="nonzero"/></clipPath><clipPath id="2a1b24d2a9"><path d="M 156 111 L 161 111 L 161 123 L 156 123 Z M 156 111 " clip-rule="nonzero"/></clipPath><clipPath id="3290db4d7e"><path d="M 153.929688 88.695312 L 203.230469 101.136719 L 192.863281 142.21875 L 143.5625 129.78125 Z M 153.929688 88.695312 " clip-rule="nonzero"/></clipPath><clipPath id="894e7a8b6e"><path d="M 153.929688 88.695312 L 203.230469 101.136719 L 192.863281 142.21875 L 143.5625 129.78125 Z M 153.929688 88.695312 " clip-rule="nonzero"/></clipPath><clipPath id="a3353481eb"><path d="M 188 109 L 193 109 L 193 124 L 188 124 Z M 188 109 " clip-rule="nonzero"/></clipPath><clipPath id="945079cca1"><path d="M 153.929688 88.695312 L 203.230469 101.136719 L 192.863281 142.21875 L 143.5625 129.78125 Z M 153.929688 88.695312 " clip-rule="nonzero"/></clipPath><clipPath id="aaf0c2f41d"><path d="M 153.929688 88.695312 L 203.230469 101.136719 L 192.863281 142.21875 L 143.5625 129.78125 Z M 153.929688 88.695312 " clip-rule="nonzero"/></clipPath><clipPath id="63df25dd0f"><path d="M 194 111 L 199 111 L 199 123 L 194 123 Z M 194 111 " clip-rule="nonzero"/></clipPath><clipPath id="d09c23dc22"><path d="M 153.929688 88.695312 L 203.230469 101.136719 L 192.863281 142.21875 L 143.5625 129.78125 Z M 153.929688 88.695312 " clip-rule="nonzero"/></clipPath><clipPath id="17e6605de2"><path d="M 153.929688 88.695312 L 203.230469 101.136719 L 192.863281 142.21875 L 143.5625 129.78125 Z M 153.929688 88.695312 " clip-rule="nonzero"/></clipPath><clipPath id="3e35ced16a"><path d="M 258 68 L 349 68 L 349 160 L 258 160 Z M 258 68 " clip-rule="nonzero"/></clipPath><clipPath id="b0925eb1de"><path d="M 257.257812 107.152344 L 301.257812 67.363281 L 348.152344 119.222656 L 304.152344 159.007812 Z M 257.257812 107.152344 " clip-rule="nonzero"/></clipPath><clipPath id="2565d65eab"><path d="M 18 13 L 81 13 L 81 78 L 18 78 Z M 18 13 " clip-rule="nonzero"/></clipPath><clipPath id="dc33c42cb2"><path d="M -0.742188 39.152344 L 43.257812 -0.636719 L 90.152344 51.222656 L 46.152344 91.007812 Z M -0.742188 39.152344 " clip-rule="nonzero"/></clipPath><clipPath id="8f5f8e3a3e"><path d="M 90.726562 51.90625 L 46.726562 91.691406 L -0.164062 39.835938 L 43.835938 0.0507812 Z M 90.726562 51.90625 " clip-rule="nonzero"/></clipPath><clipPath id="db5aedf367"><rect x="0" width="91" y="0" height="92"/></clipPath><clipPath id="92b038fa67"><path d="M 262 81 L 325 81 L 325 144 L 262 144 Z M 262 81 " clip-rule="nonzero"/></clipPath><clipPath id="e9c38e01ab"><path d="M 259.277344 88.578125 L 333.757812 72.152344 L 347.445312 134.21875 L 272.964844 150.644531 Z M 259.277344 88.578125 " clip-rule="nonzero"/></clipPath><clipPath id="29bbc0f84f"><path d="M 259.277344 88.578125 L 333.757812 72.152344 L 347.445312 134.21875 L 272.964844 150.644531 Z M 259.277344 88.578125 " clip-rule="nonzero"/></clipPath><clipPath id="58457be3fe"><path d="M 280 116 L 288 116 L 288 133 L 280 133 Z M 280 116 " clip-rule="nonzero"/></clipPath><clipPath id="5b76e69efc"><path d="M 259.277344 88.578125 L 333.757812 72.152344 L 347.445312 134.21875 L 272.964844 150.644531 Z M 259.277344 88.578125 " clip-rule="nonzero"/></clipPath><clipPath id="6c96151fdb"><path d="M 259.277344 88.578125 L 333.757812 72.152344 L 347.445312 134.21875 L 272.964844 150.644531 Z M 259.277344 88.578125 " clip-rule="nonzero"/></clipPath><clipPath id="33d56e856a"><path d="M 322 90 L 331 90 L 331 112 L 322 112 Z M 322 90 " clip-rule="nonzero"/></clipPath><clipPath id="38277d92bb"><path d="M 259.277344 88.578125 L 333.757812 72.152344 L 347.445312 134.21875 L 272.964844 150.644531 Z M 259.277344 88.578125 " clip-rule="nonzero"/></clipPath><clipPath id="4a99d902f6"><path d="M 259.277344 88.578125 L 333.757812 72.152344 L 347.445312 134.21875 L 272.964844 150.644531 Z M 259.277344 88.578125 " clip-rule="nonzero"/></clipPath><clipPath id="70b4c99b07"><path d="M 331 89 L 339 89 L 339 107 L 331 107 Z M 331 89 " clip-rule="nonzero"/></clipPath><clipPath id="413d232496"><path d="M 259.277344 88.578125 L 333.757812 72.152344 L 347.445312 134.21875 L 272.964844 150.644531 Z M 259.277344 88.578125 " clip-rule="nonzero"/></clipPath><clipPath id="b54b57041b"><path d="M 259.277344 88.578125 L 333.757812 72.152344 L 347.445312 134.21875 L 272.964844 150.644531 Z M 259.277344 88.578125 " clip-rule="nonzero"/></clipPath><clipPath id="b7b3a45c47"><path d="M 366 171 L 407 171 L 407 212 L 366 212 Z M 366 171 " clip-rule="nonzero"/></clipPath><clipPath id="bad3fae4f5"><path d="M 363.65625 174.464844 L 403.417969 168.195312 L 409.6875 207.957031 L 369.925781 214.226562 Z M 363.65625 174.464844 " clip-rule="nonzero"/></clipPath><clipPath id="f3c41755d8"><path d="M 364.355469 178.910156 L 369.203125 209.65625 C 369.59375 212.113281 371.894531 213.789062 374.351562 213.402344 L 405.097656 208.554688 C 407.550781 208.164062 409.226562 205.863281 408.839844 203.40625 L 403.992188 172.660156 C 403.605469 170.207031 401.300781 168.53125 398.847656 168.917969 L 368.101562 173.765625 C 365.644531 174.152344 363.96875 176.457031 364.355469 178.910156 Z M 364.355469 178.910156 " clip-rule="nonzero"/></clipPath><clipPath id="127d9f5d2d"><path d="M 363.65625 174.464844 L 403.417969 168.195312 L 409.6875 207.957031 L 369.925781 214.226562 Z M 363.65625 174.464844 " clip-rule="nonzero"/></clipPath><clipPath id="fa29db8f7f"><path d="M 363.65625 174.464844 L 403.417969 168.195312 L 409.6875 207.957031 L 369.925781 214.226562 Z M 363.65625 174.464844 " clip-rule="nonzero"/></clipPath><clipPath id="8221a721e3"><path d="M 374 183 L 388 183 L 388 200 L 374 200 Z M 374 183 " clip-rule="nonzero"/></clipPath><clipPath id="46da21fd08"><path d="M 363.65625 174.464844 L 403.417969 168.195312 L 409.6875 207.957031 L 369.925781 214.226562 Z M 363.65625 174.464844 " clip-rule="nonzero"/></clipPath><clipPath id="1b449bfee4"><path d="M 364.355469 178.910156 L 369.203125 209.65625 C 369.59375 212.113281 371.894531 213.789062 374.351562 213.402344 L 405.097656 208.554688 C 407.550781 208.164062 409.226562 205.863281 408.839844 203.40625 L 403.992188 172.660156 C 403.605469 170.207031 401.300781 168.53125 398.847656 168.917969 L 368.101562 173.765625 C 365.644531 174.152344 363.96875 176.457031 364.355469 178.910156 Z M 364.355469 178.910156 " clip-rule="nonzero"/></clipPath><clipPath id="c4b5165229"><path d="M 363.65625 174.464844 L 403.417969 168.195312 L 409.6875 207.957031 L 369.925781 214.226562 Z M 363.65625 174.464844 " clip-rule="nonzero"/></clipPath><clipPath id="5e0c85fa8b"><path d="M 363.65625 174.464844 L 403.417969 168.195312 L 409.6875 207.957031 L 369.925781 214.226562 Z M 363.65625 174.464844 " clip-rule="nonzero"/></clipPath><clipPath id="772e8176ee"><path d="M 388 187 L 392 187 L 392 195 L 388 195 Z M 388 187 " clip-rule="nonzero"/></clipPath><clipPath id="7f3296eeb0"><path d="M 363.65625 174.464844 L 403.417969 168.195312 L 409.6875 207.957031 L 369.925781 214.226562 Z M 363.65625 174.464844 " clip-rule="nonzero"/></clipPath><clipPath id="4f273e28d3"><path d="M 364.355469 178.910156 L 369.203125 209.65625 C 369.59375 212.113281 371.894531 213.789062 374.351562 213.402344 L 405.097656 208.554688 C 407.550781 208.164062 409.226562 205.863281 408.839844 203.40625 L 403.992188 172.660156 C 403.605469 170.207031 401.300781 168.53125 398.847656 168.917969 L 368.101562 173.765625 C 365.644531 174.152344 363.96875 176.457031 364.355469 178.910156 Z M 364.355469 178.910156 " clip-rule="nonzero"/></clipPath><clipPath id="f1a27bb45e"><path d="M 363.65625 174.464844 L 403.417969 168.195312 L 409.6875 207.957031 L 369.925781 214.226562 Z M 363.65625 174.464844 " clip-rule="nonzero"/></clipPath><clipPath id="e7fbe65816"><path d="M 363.65625 174.464844 L 403.417969 168.195312 L 409.6875 207.957031 L 369.925781 214.226562 Z M 363.65625 174.464844 " clip-rule="nonzero"/></clipPath><clipPath id="cc8995ff80"><path d="M 391 185 L 396 185 L 396 197 L 391 197 Z M 391 185 " clip-rule="nonzero"/></clipPath><clipPath id="b67236d00c"><path d="M 363.65625 174.464844 L 403.417969 168.195312 L 409.6875 207.957031 L 369.925781 214.226562 Z M 363.65625 174.464844 " clip-rule="nonzero"/></clipPath><clipPath id="24db07d0a9"><path d="M 364.355469 178.910156 L 369.203125 209.65625 C 369.59375 212.113281 371.894531 213.789062 374.351562 213.402344 L 405.097656 208.554688 C 407.550781 208.164062 409.226562 205.863281 408.839844 203.40625 L 403.992188 172.660156 C 403.605469 170.207031 401.300781 168.53125 398.847656 168.917969 L 368.101562 173.765625 C 365.644531 174.152344 363.96875 176.457031 364.355469 178.910156 Z M 364.355469 178.910156 " clip-rule="nonzero"/></clipPath><clipPath id="622692a8ca"><path d="M 363.65625 174.464844 L 403.417969 168.195312 L 409.6875 207.957031 L 369.925781 214.226562 Z M 363.65625 174.464844 " clip-rule="nonzero"/></clipPath><clipPath id="3420ab1ea1"><path d="M 363.65625 174.464844 L 403.417969 168.195312 L 409.6875 207.957031 L 369.925781 214.226562 Z M 363.65625 174.464844 " clip-rule="nonzero"/></clipPath><clipPath id="2982875c0a"><path d="M 393 182 L 399 182 L 399 198 L 393 198 Z M 393 182 " clip-rule="nonzero"/></clipPath><clipPath id="bd55ae29ac"><path d="M 363.65625 174.464844 L 403.417969 168.195312 L 409.6875 207.957031 L 369.925781 214.226562 Z M 363.65625 174.464844 " clip-rule="nonzero"/></clipPath><clipPath id="d0c4f7518d"><path d="M 364.355469 178.910156 L 369.203125 209.65625 C 369.59375 212.113281 371.894531 213.789062 374.351562 213.402344 L 405.097656 208.554688 C 407.550781 208.164062 409.226562 205.863281 408.839844 203.40625 L 403.992188 172.660156 C 403.605469 170.207031 401.300781 168.53125 398.847656 168.917969 L 368.101562 173.765625 C 365.644531 174.152344 363.96875 176.457031 364.355469 178.910156 Z M 364.355469 178.910156 " clip-rule="nonzero"/></clipPath><clipPath id="53a2cfd8dc"><path d="M 363.65625 174.464844 L 403.417969 168.195312 L 409.6875 207.957031 L 369.925781 214.226562 Z M 363.65625 174.464844 " clip-rule="nonzero"/></clipPath><clipPath id="c688579868"><path d="M 363.65625 174.464844 L 403.417969 168.195312 L 409.6875 207.957031 L 369.925781 214.226562 Z M 363.65625 174.464844 " clip-rule="nonzero"/></clipPath><clipPath id="4d272c3995"><path d="M 364 171 L 407 171 L 407 214 L 364 214 Z M 364 171 " clip-rule="nonzero"/></clipPath><clipPath id="8e0b4dec2d"><path d="M 361.492188 175.058594 L 403.347656 168.460938 L 409.945312 210.316406 L 368.09375 216.914062 Z M 361.492188 175.058594 " clip-rule="nonzero"/></clipPath><clipPath id="4d15492941"><path d="M 361.84375 177.28125 L 367.6875 214.34375 C 367.78125 214.933594 368.101562 215.460938 368.585938 215.8125 C 369.066406 216.164062 369.671875 216.308594 370.257812 216.214844 L 407.320312 210.371094 C 407.910156 210.277344 408.4375 209.953125 408.789062 209.472656 C 409.140625 208.988281 409.285156 208.386719 409.191406 207.796875 L 403.347656 170.738281 C 403.253906 170.148438 402.933594 169.621094 402.449219 169.269531 C 401.96875 168.917969 401.363281 168.773438 400.773438 168.867188 L 363.714844 174.710938 C 363.125 174.800781 362.597656 175.125 362.246094 175.609375 C 361.894531 176.089844 361.75 176.691406 361.84375 177.28125 Z M 361.84375 177.28125 " clip-rule="nonzero"/></clipPath><clipPath id="3f0ec3fb6e"><path d="M 361.492188 175.058594 L 403.347656 168.460938 L 409.945312 210.316406 L 368.09375 216.914062 Z M 361.492188 175.058594 " clip-rule="nonzero"/></clipPath><clipPath id="8ab8c897e0"><path d="M 361.492188 175.058594 L 403.347656 168.460938 L 409.945312 210.316406 L 368.09375 216.914062 Z M 361.492188 175.058594 " clip-rule="nonzero"/></clipPath><clipPath id="f52900deae"><path d="M 372 184 L 387 184 L 387 202 L 372 202 Z M 372 184 " clip-rule="nonzero"/></clipPath><clipPath id="35ce4d1964"><path d="M 361.492188 175.058594 L 403.347656 168.460938 L 409.945312 210.316406 L 368.09375 216.914062 Z M 361.492188 175.058594 " clip-rule="nonzero"/></clipPath><clipPath id="31445a0feb"><path d="M 361.84375 177.28125 L 367.6875 214.34375 C 367.78125 214.933594 368.101562 215.460938 368.585938 215.8125 C 369.066406 216.164062 369.671875 216.308594 370.257812 216.214844 L 407.320312 210.371094 C 407.910156 210.277344 408.4375 209.953125 408.789062 209.472656 C 409.140625 208.988281 409.285156 208.386719 409.191406 207.796875 L 403.347656 170.738281 C 403.253906 170.148438 402.933594 169.621094 402.449219 169.269531 C 401.96875 168.917969 401.363281 168.773438 400.773438 168.867188 L 363.714844 174.710938 C 363.125 174.800781 362.597656 175.125 362.246094 175.609375 C 361.894531 176.089844 361.75 176.691406 361.84375 177.28125 Z M 361.84375 177.28125 " clip-rule="nonzero"/></clipPath><clipPath id="c10e99dc8f"><path d="M 361.492188 175.058594 L 403.347656 168.460938 L 409.945312 210.316406 L 368.09375 216.914062 Z M 361.492188 175.058594 " clip-rule="nonzero"/></clipPath><clipPath id="3f5c16755f"><path d="M 361.492188 175.058594 L 403.347656 168.460938 L 409.945312 210.316406 L 368.09375 216.914062 Z M 361.492188 175.058594 " clip-rule="nonzero"/></clipPath><clipPath id="a6e7812d08"><path d="M 387 188 L 391 188 L 391 197 L 387 197 Z M 387 188 " clip-rule="nonzero"/></clipPath><clipPath id="91dc61cf02"><path d="M 361.492188 175.058594 L 403.347656 168.460938 L 409.945312 210.316406 L 368.09375 216.914062 Z M 361.492188 175.058594 " clip-rule="nonzero"/></clipPath><clipPath id="d2dac1d7ba"><path d="M 361.84375 177.28125 L 367.6875 214.34375 C 367.78125 214.933594 368.101562 215.460938 368.585938 215.8125 C 369.066406 216.164062 369.671875 216.308594 370.257812 216.214844 L 407.320312 210.371094 C 407.910156 210.277344 408.4375 209.953125 408.789062 209.472656 C 409.140625 208.988281 409.285156 208.386719 409.191406 207.796875 L 403.347656 170.738281 C 403.253906 170.148438 402.933594 169.621094 402.449219 169.269531 C 401.96875 168.917969 401.363281 168.773438 400.773438 168.867188 L 363.714844 174.710938 C 363.125 174.800781 362.597656 175.125 362.246094 175.609375 C 361.894531 176.089844 361.75 176.691406 361.84375 177.28125 Z M 361.84375 177.28125 " clip-rule="nonzero"/></clipPath><clipPath id="b3d16f02af"><path d="M 361.492188 175.058594 L 403.347656 168.460938 L 409.945312 210.316406 L 368.09375 216.914062 Z M 361.492188 175.058594 " clip-rule="nonzero"/></clipPath><clipPath id="929cd99dff"><path d="M 361.492188 175.058594 L 403.347656 168.460938 L 409.945312 210.316406 L 368.09375 216.914062 Z M 361.492188 175.058594 " clip-rule="nonzero"/></clipPath><clipPath id="132355534c"><path d="M 390 186 L 395 186 L 395 198 L 390 198 Z M 390 186 " clip-rule="nonzero"/></clipPath><clipPath id="9ab3a96212"><path d="M 361.492188 175.058594 L 403.347656 168.460938 L 409.945312 210.316406 L 368.09375 216.914062 Z M 361.492188 175.058594 " clip-rule="nonzero"/></clipPath><clipPath id="4dba25df99"><path d="M 361.84375 177.28125 L 367.6875 214.34375 C 367.78125 214.933594 368.101562 215.460938 368.585938 215.8125 C 369.066406 216.164062 369.671875 216.308594 370.257812 216.214844 L 407.320312 210.371094 C 407.910156 210.277344 408.4375 209.953125 408.789062 209.472656 C 409.140625 208.988281 409.285156 208.386719 409.191406 207.796875 L 403.347656 170.738281 C 403.253906 170.148438 402.933594 169.621094 402.449219 169.269531 C 401.96875 168.917969 401.363281 168.773438 400.773438 168.867188 L 363.714844 174.710938 C 363.125 174.800781 362.597656 175.125 362.246094 175.609375 C 361.894531 176.089844 361.75 176.691406 361.84375 177.28125 Z M 361.84375 177.28125 " clip-rule="nonzero"/></clipPath><clipPath id="50382223dd"><path d="M 361.492188 175.058594 L 403.347656 168.460938 L 409.945312 210.316406 L 368.09375 216.914062 Z M 361.492188 175.058594 " clip-rule="nonzero"/></clipPath><clipPath id="b0b4b97d51"><path d="M 361.492188 175.058594 L 403.347656 168.460938 L 409.945312 210.316406 L 368.09375 216.914062 Z M 361.492188 175.058594 " clip-rule="nonzero"/></clipPath><clipPath id="948ca8e29d"><path d="M 393 183 L 399 183 L 399 200 L 393 200 Z M 393 183 " clip-rule="nonzero"/></clipPath><clipPath id="f2578ca0bd"><path d="M 361.492188 175.058594 L 403.347656 168.460938 L 409.945312 210.316406 L 368.09375 216.914062 Z M 361.492188 175.058594 " clip-rule="nonzero"/></clipPath><clipPath id="0fd6e3cb02"><path d="M 361.84375 177.28125 L 367.6875 214.34375 C 367.78125 214.933594 368.101562 215.460938 368.585938 215.8125 C 369.066406 216.164062 369.671875 216.308594 370.257812 216.214844 L 407.320312 210.371094 C 407.910156 210.277344 408.4375 209.953125 408.789062 209.472656 C 409.140625 208.988281 409.285156 208.386719 409.191406 207.796875 L 403.347656 170.738281 C 403.253906 170.148438 402.933594 169.621094 402.449219 169.269531 C 401.96875 168.917969 401.363281 168.773438 400.773438 168.867188 L 363.714844 174.710938 C 363.125 174.800781 362.597656 175.125 362.246094 175.609375 C 361.894531 176.089844 361.75 176.691406 361.84375 177.28125 Z M 361.84375 177.28125 " clip-rule="nonzero"/></clipPath><clipPath id="a20c6b466a"><path d="M 361.492188 175.058594 L 403.347656 168.460938 L 409.945312 210.316406 L 368.09375 216.914062 Z M 361.492188 175.058594 " clip-rule="nonzero"/></clipPath><clipPath id="3d3b525cba"><path d="M 361.492188 175.058594 L 403.347656 168.460938 L 409.945312 210.316406 L 368.09375 216.914062 Z M 361.492188 175.058594 " clip-rule="nonzero"/></clipPath><clipPath id="2803ffe8cd"><rect x="0" width="504" y="0" height="267"/></clipPath></defs><rect x="-61.2" width="734.4" fill="#ffffff" y="-79.199999" height="950.399992" fill-opacity="1"/><rect x="-61.2" width="734.4" fill="#0d203b" y="-79.199999" height="950.399992" fill-opacity="1"/><g transform="matrix(1, 0, 0, 1, 66, 295)"><g clip-path="url(#2803ffe8cd)"><g fill="#000000" fill-opacity="0"><g transform="translate(1.874669, 155.255403)"><g><path d="M 115.304688 0 L 115.304688 -119.539062 L 85.335938 -119.539062 L 85.335938 -76.363281 L 41.652344 -76.363281 L 41.652344 -119.539062 L 11.511719 -119.539062 L 11.511719 0 L 41.652344 0 L 41.652344 -50.964844 L 85.335938 -50.964844 L 85.335938 0 Z M 115.304688 0 "/></g></g></g><g fill="#0f0f1a" fill-opacity="1"><g transform="translate(1.874669, 155.255403)"><g><path d="M 111.496094 0 L 111.496094 -119.539062 L 115.304688 -119.539062 L 115.304688 -115.730469 L 85.335938 -115.730469 L 85.335938 -119.539062 L 89.148438 -119.539062 L 89.148438 -72.550781 L 37.84375 -72.550781 L 37.84375 -119.539062 L 41.652344 -119.539062 L 41.652344 -115.730469 L 11.511719 -115.730469 L 11.511719 -119.539062 L 15.324219 -119.539062 L 15.324219 0 L 11.511719 0 L 11.511719 -3.808594 L 41.652344 -3.808594 L 41.652344 0 L 37.84375 0 L 37.84375 -54.773438 L 89.148438 -54.773438 L 89.148438 0 L 85.335938 0 L 85.335938 -3.808594 L 115.304688 -3.808594 L 115.304688 0 Z M 119.117188 3.808594 L 81.527344 3.808594 L 81.527344 -50.964844 L 85.335938 -50.964844 L 85.335938 -47.15625 L 41.652344 -47.15625 L 41.652344 -50.964844 L 45.460938 -50.964844 L 45.460938 3.808594 L 7.703125 3.808594 L 7.703125 -123.347656 L 45.460938 -123.347656 L 45.460938 -76.363281 L 41.652344 -76.363281 L 41.652344 -80.171875 L 85.335938 -80.171875 L 85.335938 -76.363281 L 81.527344 -76.363281 L 81.527344 -123.347656 L 119.117188 -123.347656 Z M 119.117188 3.808594 "/></g></g></g><g fill="#117bf4" fill-opacity="1"><g transform="translate(1.874669, 155.255403)"><g><path d="M 115.304688 0 L 115.304688 -119.539062 L 85.335938 -119.539062 L 85.335938 -76.363281 L 41.652344 -76.363281 L 41.652344 -119.539062 L 11.511719 -119.539062 L 11.511719 0 L 41.652344 0 L 41.652344 -50.964844 L 85.335938 -50.964844 L 85.335938 0 Z M 115.304688 0 "/></g></g></g><g clip-path="url(#9a0e32ab7c)"><g clip-path="url(#e4cf33de8c)"><g clip-path="url(#2561ab4b38)"><path fill="#0f0f1a" d="M 186.222656 119.324219 C 185.777344 118.042969 184.378906 117.367188 183.097656 117.8125 L 174.425781 120.828125 C 174.121094 120.9375 173.78125 120.804688 173.632812 120.515625 C 173.605469 120.46875 173.582031 120.417969 173.554688 120.367188 C 173.398438 120.070312 173.492188 119.699219 173.773438 119.515625 L 185.648438 111.691406 C 186.742188 110.972656 187.152344 109.523438 186.503906 108.386719 C 185.796875 107.140625 184.195312 106.773438 183.019531 107.546875 L 171.335938 115.246094 C 171.03125 115.445312 170.621094 115.359375 170.425781 115.054688 C 170.425781 115.050781 170.421875 115.046875 170.417969 115.042969 C 170.242188 114.765625 170.292969 114.402344 170.542969 114.191406 L 183.132812 103.472656 C 184.125 102.628906 184.355469 101.136719 183.574219 100.089844 C 182.71875 98.941406 181.085938 98.769531 180.011719 99.683594 L 167.808594 110.074219 C 167.527344 110.3125 167.097656 110.269531 166.867188 109.972656 C 166.816406 109.90625 166.765625 109.839844 166.710938 109.773438 C 166.507812 109.515625 166.53125 109.148438 166.761719 108.914062 L 176.800781 98.75 C 177.71875 97.816406 177.816406 96.3125 176.949219 95.335938 C 175.996094 94.265625 174.355469 94.238281 173.367188 95.238281 L 162.503906 106.242188 C 162.503906 106.242188 162.5 106.242188 162.5 106.242188 L 161.921875 106.832031 C 160.902344 107.84375 160.003906 108.589844 159.097656 108.882812 C 157.394531 109.4375 155.984375 108.480469 155.976562 107.039062 C 155.960938 105.226562 156.152344 103.320312 156.257812 100.269531 C 156.371094 96.925781 152.253906 96.328125 151.6875 98.238281 C 151.15625 100.039062 150.058594 106.136719 148.378906 113.925781 C 146.699219 121.71875 151.609375 128.5625 157.628906 131.667969 C 163.652344 134.777344 172.871094 126.566406 175.15625 125.773438 C 177.441406 124.976562 184.710938 122.449219 184.710938 122.449219 C 185.992188 122.003906 186.667969 120.601562 186.222656 119.324219 Z M 186.222656 119.324219 " fill-opacity="1" fill-rule="nonzero"/></g></g></g><g clip-path="url(#2a1b24d2a9)"><g clip-path="url(#3290db4d7e)"><g clip-path="url(#894e7a8b6e)"><path fill="#ffffff" d="M 156.984375 122.625 C 156.886719 122.597656 156.792969 122.550781 156.714844 122.484375 C 156.4375 122.246094 156.40625 121.828125 156.644531 121.550781 C 158.15625 119.808594 159.515625 115.496094 158.207031 112.707031 C 158.054688 112.378906 158.195312 111.984375 158.523438 111.832031 C 158.855469 111.675781 159.25 111.816406 159.402344 112.148438 C 160.957031 115.457031 159.425781 120.359375 157.644531 122.417969 C 157.476562 122.609375 157.21875 122.683594 156.984375 122.625 Z M 156.984375 122.625 " fill-opacity="1" fill-rule="nonzero"/></g></g></g><g clip-path="url(#a3353481eb)"><g clip-path="url(#945079cca1)"><g clip-path="url(#aaf0c2f41d)"><path fill="#0f0f1a" d="M 189.035156 123.550781 C 188.9375 123.523438 188.847656 123.476562 188.765625 123.40625 C 188.488281 123.167969 188.460938 122.753906 188.699219 122.476562 C 190.804688 120.046875 192.695312 114.035156 190.867188 110.140625 C 190.710938 109.8125 190.855469 109.417969 191.183594 109.265625 C 191.515625 109.109375 191.90625 109.25 192.0625 109.582031 C 194.144531 114.011719 192.085938 120.582031 189.695312 123.339844 C 189.527344 123.535156 189.269531 123.609375 189.035156 123.550781 Z M 189.035156 123.550781 " fill-opacity="1" fill-rule="nonzero"/></g></g></g><g clip-path="url(#63df25dd0f)"><g clip-path="url(#d09c23dc22)"><g clip-path="url(#17e6605de2)"><path fill="#0f0f1a" d="M 195.171875 122.902344 C 195.074219 122.875 194.980469 122.828125 194.902344 122.757812 C 194.625 122.519531 194.597656 122.105469 194.835938 121.828125 C 196.210938 120.238281 197.535156 115.613281 196.398438 112.257812 C 196.28125 111.910156 196.464844 111.535156 196.8125 111.417969 C 197.15625 111.300781 197.53125 111.488281 197.648438 111.832031 C 198.972656 115.734375 197.484375 120.789062 195.832031 122.691406 C 195.664062 122.886719 195.40625 122.960938 195.171875 122.902344 Z M 195.171875 122.902344 " fill-opacity="1" fill-rule="nonzero"/></g></g></g><g fill="#000000" fill-opacity="0"><g transform="translate(98.91972, 152.976192)"><g><path d="M 89.0625 0 C 86.859375 -3.21875 86.523438 -6.09375 86.523438 -13.714844 L 86.523438 -65.355469 C 86.523438 -86.691406 63.664062 -90.753906 48.425781 -90.753906 C 29.121094 -90.753906 11.175781 -82.796875 11.175781 -63.324219 L 37.25 -63.324219 C 37.925781 -67.21875 39.960938 -73.652344 50.964844 -73.652344 C 60.445312 -73.652344 60.953125 -66.035156 60.953125 -62.988281 L 60.953125 -58.078125 C 41.484375 -54.351562 32.171875 -52.488281 26.074219 -49.949219 C 15.070312 -45.378906 7.449219 -35.558594 7.449219 -24.550781 C 7.449219 -11.851562 16.253906 2.371094 36.402344 2.371094 C 49.949219 2.371094 56.550781 -3.386719 63.496094 -7.957031 L 63.496094 0 Z M 60.953125 -42.328125 L 60.953125 -38.433594 C 60.953125 -25.90625 53.164062 -16.761719 43.007812 -16.761719 C 35.558594 -16.761719 33.015625 -22.6875 33.015625 -25.738281 C 33.015625 -29.628906 35.21875 -33.863281 44.191406 -36.742188 Z M 60.953125 -42.328125 "/></g></g></g><g fill="#0f0f1a" fill-opacity="1"><g transform="translate(98.91972, 152.976192)"><g><path d="M 85.917969 2.152344 C 84.539062 0.140625 83.640625 -2.097656 83.210938 -4.554688 C 82.878906 -6.480469 82.710938 -9.53125 82.710938 -13.714844 L 82.710938 -65.355469 C 82.710938 -73.265625 78.984375 -79.023438 71.53125 -82.625 C 65.574219 -85.503906 57.871094 -86.945312 48.425781 -86.945312 C 43.734375 -86.945312 39.375 -86.464844 35.347656 -85.5 C 31.183594 -84.507812 27.609375 -83.050781 24.617188 -81.132812 C 18.195312 -77.015625 14.984375 -71.082031 14.984375 -63.324219 L 11.175781 -63.324219 L 11.175781 -67.136719 L 37.25 -67.136719 L 37.25 -63.324219 L 33.496094 -63.976562 C 34.117188 -67.546875 35.4375 -70.410156 37.457031 -72.558594 C 40.53125 -75.828125 45.03125 -77.464844 50.964844 -77.464844 C 53.832031 -77.464844 56.296875 -76.894531 58.367188 -75.75 C 60.25 -74.710938 61.734375 -73.246094 62.820312 -71.359375 C 64.117188 -69.101562 64.765625 -66.308594 64.765625 -62.988281 L 64.765625 -54.925781 L 61.671875 -54.335938 C 50.8125 -52.257812 43.367188 -50.761719 39.339844 -49.851562 C 34.105469 -48.667969 30.171875 -47.527344 27.539062 -46.433594 C 22.605469 -44.382812 18.65625 -41.367188 15.691406 -37.386719 C 12.738281 -33.421875 11.261719 -29.144531 11.261719 -24.550781 C 11.261719 -21.707031 11.746094 -18.957031 12.71875 -16.296875 C 13.746094 -13.488281 15.230469 -11.027344 17.179688 -8.90625 C 21.746094 -3.929688 28.152344 -1.441406 36.402344 -1.441406 C 41.179688 -1.441406 45.515625 -2.257812 49.40625 -3.898438 C 50.964844 -4.554688 52.589844 -5.398438 54.289062 -6.425781 C 55.339844 -7.0625 56.867188 -8.066406 58.871094 -9.433594 C 59.988281 -10.199219 60.832031 -10.765625 61.398438 -11.140625 L 67.304688 -15.027344 L 67.304688 0 L 63.496094 0 L 63.496094 -3.808594 L 89.0625 -3.808594 L 89.0625 0 Z M 96.285156 3.808594 L 59.683594 3.808594 L 59.683594 -7.957031 L 63.496094 -7.957031 L 65.589844 -4.777344 C 65.058594 -4.425781 64.25 -3.878906 63.167969 -3.140625 C 61.050781 -1.695312 59.40625 -0.617188 58.238281 0.0898438 C 56.222656 1.3125 54.265625 2.324219 52.367188 3.125 C 47.527344 5.160156 42.207031 6.179688 36.402344 6.179688 C 31.066406 6.179688 26.234375 5.273438 21.90625 3.464844 C 17.878906 1.777344 14.429688 -0.628906 11.5625 -3.753906 C 8.933594 -6.617188 6.933594 -9.925781 5.5625 -13.679688 C 4.28125 -17.183594 3.640625 -20.808594 3.640625 -24.550781 C 3.640625 -30.828125 5.621094 -36.625 9.582031 -41.9375 C 13.382812 -47.039062 18.390625 -50.882812 24.609375 -53.464844 C 27.648438 -54.730469 31.996094 -56.003906 37.660156 -57.285156 C 41.769531 -58.214844 49.296875 -59.726562 60.238281 -61.820312 L 60.953125 -58.078125 L 57.144531 -58.078125 L 57.144531 -62.988281 C 57.144531 -64.957031 56.832031 -66.480469 56.210938 -67.566406 C 55.339844 -69.085938 53.589844 -69.84375 50.964844 -69.84375 C 47.230469 -69.84375 44.578125 -69.007812 43.011719 -67.339844 C 42.03125 -66.300781 41.363281 -64.742188 41.003906 -62.671875 L 40.453125 -59.515625 L 7.363281 -59.515625 L 7.363281 -63.324219 C 7.363281 -68.695312 8.566406 -73.492188 10.96875 -77.710938 C 13.199219 -81.621094 16.375 -84.902344 20.503906 -87.550781 C 24.21875 -89.929688 28.578125 -91.71875 33.578125 -92.914062 C 38.1875 -94.015625 43.136719 -94.566406 48.425781 -94.566406 C 59.035156 -94.566406 67.839844 -92.871094 74.847656 -89.488281 C 79.5625 -87.207031 83.222656 -84.21875 85.828125 -80.519531 C 88.832031 -76.253906 90.332031 -71.199219 90.332031 -65.355469 L 90.332031 -13.714844 C 90.332031 -9.96875 90.460938 -7.351562 90.71875 -5.859375 C 90.957031 -4.488281 91.453125 -3.25 92.207031 -2.152344 Z M 64.765625 -42.328125 L 64.765625 -38.433594 C 64.765625 -34.9375 64.238281 -31.636719 63.1875 -28.539062 C 62.148438 -25.476562 60.65625 -22.785156 58.714844 -20.457031 C 56.734375 -18.089844 54.417969 -16.257812 51.765625 -14.960938 C 49.019531 -13.621094 46.101562 -12.953125 43.007812 -12.953125 C 38.507812 -12.953125 34.9375 -14.519531 32.300781 -17.65625 C 31.277344 -18.871094 30.492188 -20.242188 29.945312 -21.757812 C 29.453125 -23.125 29.207031 -24.449219 29.207031 -25.738281 C 29.207031 -32.535156 33.8125 -37.414062 43.027344 -40.371094 L 64.765625 -47.617188 Z M 57.144531 -42.328125 L 60.953125 -42.328125 L 62.160156 -38.714844 L 45.355469 -33.113281 C 41.890625 -32.003906 39.472656 -30.667969 38.101562 -29.105469 C 37.253906 -28.136719 36.828125 -27.015625 36.828125 -25.738281 C 36.828125 -25.335938 36.921875 -24.871094 37.113281 -24.339844 C 37.355469 -23.675781 37.695312 -23.082031 38.132812 -22.558594 C 39.246094 -21.234375 40.871094 -20.574219 43.007812 -20.574219 C 46.925781 -20.574219 50.210938 -22.164062 52.867188 -25.34375 C 55.71875 -28.757812 57.144531 -33.121094 57.144531 -38.433594 Z M 57.144531 -42.328125 "/></g></g></g><g fill="#117bf4" fill-opacity="1"><g transform="translate(98.91972, 152.976192)"><g><path d="M 89.0625 0 C 86.859375 -3.21875 86.523438 -6.09375 86.523438 -13.714844 L 86.523438 -65.355469 C 86.523438 -86.691406 63.664062 -90.753906 48.425781 -90.753906 C 29.121094 -90.753906 11.175781 -82.796875 11.175781 -63.324219 L 37.25 -63.324219 C 37.925781 -67.21875 39.960938 -73.652344 50.964844 -73.652344 C 60.445312 -73.652344 60.953125 -66.035156 60.953125 -62.988281 L 60.953125 -58.078125 C 41.484375 -54.351562 32.171875 -52.488281 26.074219 -49.949219 C 15.070312 -45.378906 7.449219 -35.558594 7.449219 -24.550781 C 7.449219 -11.851562 16.253906 2.371094 36.402344 2.371094 C 49.949219 2.371094 56.550781 -3.386719 63.496094 -7.957031 L 63.496094 0 Z M 60.953125 -42.328125 L 60.953125 -38.433594 C 60.953125 -25.90625 53.164062 -16.761719 43.007812 -16.761719 C 35.558594 -16.761719 33.015625 -22.6875 33.015625 -25.738281 C 33.015625 -29.628906 35.21875 -33.863281 44.191406 -36.742188 Z M 60.953125 -42.328125 "/></g></g></g><g fill="#000000" fill-opacity="0"><g transform="translate(171.007463, 152.976192)"><g><path d="M 90.585938 0 L 90.585938 -63.496094 C 90.585938 -81.441406 81.105469 -90.585938 63.15625 -90.585938 C 50.796875 -90.585938 42.5 -85.675781 38.265625 -80.59375 L 38.265625 -88.382812 L 11.851562 -88.382812 L 11.851562 0 L 37.925781 0 L 37.925781 -49.441406 C 37.925781 -61.292969 39.621094 -69.757812 51.640625 -69.757812 C 62.140625 -69.757812 64.511719 -62.816406 64.511719 -54.519531 L 64.511719 0 Z M 90.585938 0 "/></g></g></g><g fill="#0f0f1a" fill-opacity="1"><g transform="translate(171.007463, 152.976192)"><g><path d="M 86.777344 0 L 86.777344 -63.496094 C 86.777344 -71.375 84.828125 -77.226562 80.933594 -81.050781 C 77.042969 -84.867188 71.121094 -86.777344 63.15625 -86.777344 C 57.960938 -86.777344 53.316406 -85.855469 49.222656 -84.019531 C 45.875 -82.515625 43.195312 -80.5625 41.191406 -78.15625 L 34.457031 -70.070312 L 34.457031 -88.382812 L 38.265625 -88.382812 L 38.265625 -84.574219 L 11.851562 -84.574219 L 11.851562 -88.382812 L 15.664062 -88.382812 L 15.664062 0 L 11.851562 0 L 11.851562 -3.808594 L 37.925781 -3.808594 L 37.925781 0 L 34.117188 0 L 34.117188 -49.441406 C 34.117188 -52.929688 34.28125 -55.828125 34.605469 -58.148438 C 35.039062 -61.203125 35.808594 -63.769531 36.917969 -65.84375 C 39.675781 -70.992188 44.582031 -73.570312 51.640625 -73.570312 C 57.828125 -73.570312 62.332031 -71.515625 65.152344 -67.410156 C 67.265625 -64.335938 68.320312 -60.039062 68.320312 -54.519531 L 68.320312 0 L 64.511719 0 L 64.511719 -3.808594 L 90.585938 -3.808594 L 90.585938 0 Z M 94.394531 3.808594 L 60.699219 3.808594 L 60.699219 -54.519531 C 60.699219 -58.460938 60.089844 -61.320312 58.871094 -63.09375 C 57.566406 -64.996094 55.15625 -65.949219 51.640625 -65.949219 C 49.363281 -65.949219 47.550781 -65.59375 46.210938 -64.882812 C 45.128906 -64.3125 44.269531 -63.433594 43.636719 -62.246094 C 42.371094 -59.882812 41.738281 -55.613281 41.738281 -49.441406 L 41.738281 3.808594 L 8.042969 3.808594 L 8.042969 -92.195312 L 42.074219 -92.195312 L 42.074219 -80.59375 L 38.265625 -80.59375 L 35.339844 -83.035156 C 38.09375 -86.339844 41.683594 -88.984375 46.101562 -90.972656 C 51.1875 -93.253906 56.871094 -94.394531 63.15625 -94.394531 C 73.195312 -94.394531 80.902344 -91.761719 86.269531 -86.488281 C 91.6875 -81.171875 94.394531 -73.507812 94.394531 -63.496094 Z M 94.394531 3.808594 "/></g></g></g><g fill="#117bf4" fill-opacity="1"><g transform="translate(171.007463, 152.976192)"><g><path d="M 90.585938 0 L 90.585938 -63.496094 C 90.585938 -81.441406 81.105469 -90.585938 63.15625 -90.585938 C 50.796875 -90.585938 42.5 -85.675781 38.265625 -80.59375 L 38.265625 -88.382812 L 11.851562 -88.382812 L 11.851562 0 L 37.925781 0 L 37.925781 -49.441406 C 37.925781 -61.292969 39.621094 -69.757812 51.640625 -69.757812 C 62.140625 -69.757812 64.511719 -62.816406 64.511719 -54.519531 L 64.511719 0 Z M 90.585938 0 "/></g></g></g><g fill="#000000" fill-opacity="0"><g transform="translate(245.681085, 152.976192)"><g><path d="M 90.753906 0 L 90.753906 -119.539062 L 65.527344 -119.539062 L 65.527344 -81.78125 C 62.140625 -84.488281 54.519531 -90.753906 42.160156 -90.753906 C 18.117188 -90.753906 5.25 -69.757812 5.25 -43.515625 C 5.25 -13.714844 22.6875 2.371094 43.515625 2.371094 C 48.253906 2.371094 57.398438 1.523438 67.050781 -8.296875 L 67.050781 0 Z M 31.664062 -43.683594 C 31.664062 -56.214844 35.894531 -71.28125 49.78125 -71.28125 C 64.003906 -71.28125 66.035156 -54.519531 66.035156 -43.515625 C 66.035156 -39.28125 65.355469 -16.933594 48.425781 -16.933594 C 33.355469 -16.933594 31.664062 -35.894531 31.664062 -43.683594 Z M 31.664062 -43.683594 "/></g></g></g><g fill="#0f0f1a" fill-opacity="1"><g transform="translate(245.681085, 152.976192)"><g><path d="M 86.945312 0 L 86.945312 -119.539062 L 90.753906 -119.539062 L 90.753906 -115.730469 L 65.527344 -115.730469 L 65.527344 -119.539062 L 69.335938 -119.539062 L 69.335938 -73.855469 L 63.144531 -78.804688 C 63.109375 -78.835938 63.054688 -78.878906 62.976562 -78.941406 C 60.203125 -81.160156 57.664062 -82.828125 55.359375 -83.945312 C 51.230469 -85.945312 46.832031 -86.945312 42.160156 -86.945312 C 36.917969 -86.945312 32.199219 -85.855469 28.003906 -83.683594 C 24.027344 -81.621094 20.617188 -78.636719 17.765625 -74.730469 C 14.949219 -70.867188 12.792969 -66.273438 11.304688 -60.941406 C 9.808594 -55.585938 9.058594 -49.777344 9.058594 -43.515625 C 9.058594 -36.691406 10.007812 -30.523438 11.902344 -25.011719 C 13.65625 -19.914062 16.15625 -15.558594 19.40625 -11.945312 C 22.488281 -8.515625 26.105469 -5.902344 30.261719 -4.105469 C 34.371094 -2.328125 38.789062 -1.441406 43.515625 -1.441406 C 51.152344 -1.441406 58.089844 -4.617188 64.332031 -10.96875 L 70.859375 -17.609375 L 70.859375 0 L 67.050781 0 L 67.050781 -3.808594 L 90.753906 -3.808594 L 90.753906 0 Z M 94.566406 3.808594 L 63.238281 3.808594 L 63.238281 -8.296875 L 67.050781 -8.296875 L 69.765625 -5.625 C 62.03125 2.246094 53.28125 6.179688 43.515625 6.179688 C 37.738281 6.179688 32.3125 5.082031 27.238281 2.886719 C 22.0625 0.652344 17.5625 -2.59375 13.738281 -6.851562 C 9.800781 -11.230469 6.785156 -16.460938 4.695312 -22.535156 C 2.523438 -28.847656 1.4375 -35.839844 1.4375 -43.515625 C 1.4375 -50.476562 2.28125 -56.96875 3.964844 -62.992188 C 5.703125 -69.207031 8.25 -74.617188 11.609375 -79.222656 C 15.164062 -84.09375 19.460938 -87.835938 24.496094 -90.445312 C 29.792969 -93.191406 35.679688 -94.566406 42.160156 -94.566406 C 48 -94.566406 53.503906 -93.3125 58.679688 -90.804688 C 61.5 -89.4375 64.519531 -87.464844 67.738281 -84.890625 C 67.820312 -84.828125 67.875 -84.78125 67.90625 -84.757812 L 65.527344 -81.78125 L 61.714844 -81.78125 L 61.714844 -123.347656 L 94.566406 -123.347656 Z M 27.851562 -43.683594 C 27.851562 -51.738281 29.28125 -58.492188 32.140625 -63.949219 C 33.921875 -67.351562 36.1875 -69.992188 38.9375 -71.875 C 42.070312 -74.019531 45.683594 -75.09375 49.78125 -75.09375 C 54.023438 -75.09375 57.660156 -73.886719 60.691406 -71.472656 C 63.25 -69.4375 65.273438 -66.605469 66.765625 -62.972656 C 68.816406 -57.972656 69.84375 -51.488281 69.84375 -43.515625 C 69.84375 -37.515625 68.945312 -32.113281 67.148438 -27.300781 C 65.625 -23.226562 63.523438 -20.007812 60.84375 -17.636719 C 57.441406 -14.625 53.300781 -13.121094 48.425781 -13.121094 C 43.988281 -13.121094 40.179688 -14.445312 37.007812 -17.089844 C 34.429688 -19.242188 32.378906 -22.199219 30.859375 -25.960938 C 28.855469 -30.925781 27.851562 -36.835938 27.851562 -43.683594 Z M 35.472656 -43.683594 C 35.472656 -37.820312 36.289062 -32.863281 37.925781 -28.8125 C 40.097656 -23.433594 43.597656 -20.742188 48.425781 -20.742188 C 53.847656 -20.742188 57.710938 -23.816406 60.011719 -29.96875 C 61.484375 -33.917969 62.222656 -38.433594 62.222656 -43.515625 C 62.222656 -50.484375 61.386719 -56.007812 59.714844 -60.078125 C 58.726562 -62.488281 57.46875 -64.296875 55.945312 -65.511719 C 54.304688 -66.820312 52.246094 -67.472656 49.78125 -67.472656 C 44.984375 -67.472656 41.355469 -65.121094 38.890625 -60.414062 C 36.613281 -56.066406 35.472656 -50.488281 35.472656 -43.683594 Z M 35.472656 -43.683594 "/></g></g></g><g fill="#117bf4" fill-opacity="1"><g transform="translate(245.681085, 152.976192)"><g><path d="M 90.753906 0 L 90.753906 -119.539062 L 65.527344 -119.539062 L 65.527344 -81.78125 C 62.140625 -84.488281 54.519531 -90.753906 42.160156 -90.753906 C 18.117188 -90.753906 5.25 -69.757812 5.25 -43.515625 C 5.25 -13.714844 22.6875 2.371094 43.515625 2.371094 C 48.253906 2.371094 57.398438 1.523438 67.050781 -8.296875 L 67.050781 0 Z M 31.664062 -43.683594 C 31.664062 -56.214844 35.894531 -71.28125 49.78125 -71.28125 C 64.003906 -71.28125 66.035156 -54.519531 66.035156 -43.515625 C 66.035156 -39.28125 65.355469 -16.933594 48.425781 -16.933594 C 33.355469 -16.933594 31.664062 -35.894531 31.664062 -43.683594 Z M 31.664062 -43.683594 "/></g></g></g><g clip-path="url(#3e35ced16a)"><g clip-path="url(#b0925eb1de)"><g transform="matrix(1, 0, 0, 1, 258, 68)"><g clip-path="url(#db5aedf367)"><g clip-path="url(#2565d65eab)"><g clip-path="url(#dc33c42cb2)"><g clip-path="url(#8f5f8e3a3e)"><path fill="#117bf4" d="M 29.652344 47.425781 C 29.660156 48.480469 29.675781 49.539062 29.691406 50.601562 C 29.761719 56.011719 29.929688 53.277344 30.117188 58.667969 C 30.15625 60.136719 30.113281 61.292969 29.15625 62.542969 C 27.554688 64.597656 24.703125 65.242188 22.609375 64.054688 C 21.023438 63.144531 20.410156 61.574219 20.21875 59.785156 C 20.007812 57.882812 19.84375 55.953125 19.652344 54.03125 C 18.785156 44.625 18.933594 45.390625 18.152344 35.949219 C 17.757812 31.175781 18.875 26.582031 21.824219 22.21875 C 28.023438 13.105469 39.320312 11.101562 45.992188 14.746094 C 47.648438 15.648438 49.078125 16.847656 50.542969 17.984375 C 54.5625 21.109375 57.011719 22.429688 61.027344 25.566406 C 65.902344 29.375 70.761719 33.167969 75.632812 36.972656 C 76.929688 37.972656 78.238281 38.972656 79.511719 40 C 80.792969 41.039062 80.96875 42.53125 80.425781 44.171875 C 79.902344 45.8125 78.65625 46.773438 77.003906 47.148438 C 75.765625 47.457031 74.648438 47.257812 73.6875 46.5625 C 70.597656 44.300781 64.890625 39.640625 61.804688 37.386719 C 61.664062 37.292969 61.523438 37.199219 61.394531 37.09375 C 61.125 36.867188 60.902344 36.949219 60.664062 37.265625 C 60.285156 37.789062 59.894531 38.320312 59.492188 38.832031 C 59.175781 39.203125 59.195312 39.449219 59.507812 39.714844 C 60.488281 40.554688 64.0625 43.796875 65.027344 44.648438 C 67.925781 47.203125 70.828125 49.753906 73.726562 52.3125 C 75.054688 53.496094 76.363281 54.691406 77.707031 55.867188 C 78.847656 56.851562 79.160156 58.648438 78.457031 60.332031 C 77.800781 61.855469 76.273438 62.976562 74.601562 63.132812 C 73.382812 63.234375 72.324219 62.996094 71.484375 62.191406 C 70.261719 61.003906 69.003906 59.828125 67.777344 58.617188 C 64.28125 55.191406 58.195312 49.367188 54.699219 45.949219 C 54.132812 45.386719 54.082031 45.414062 53.472656 46.042969 C 53.210938 46.324219 52.9375 46.585938 52.671875 46.855469 C 52.167969 47.324219 52.167969 47.355469 52.542969 47.769531 C 53.554688 48.890625 57.171875 52.433594 58.214844 53.523438 C 60.582031 55.996094 62.847656 58.566406 65.183594 61.082031 C 66.558594 62.570312 67.941406 64.042969 69.316406 65.554688 C 70.710938 67.101562 70.519531 69.691406 68.925781 71.386719 C 67.414062 72.972656 64.800781 73.316406 63.152344 72.128906 C 62.589844 71.722656 62.210938 71.160156 61.773438 70.652344 C 60.328125 68.96875 58.871094 67.261719 57.445312 65.574219 C 54.628906 62.222656 49.214844 56.484375 46.417969 53.128906 C 46.140625 52.792969 45.894531 52.691406 45.464844 53.046875 C 45.128906 53.320312 44.78125 53.574219 44.4375 53.828125 C 44.152344 54.042969 44.074219 54.246094 44.261719 54.515625 C 46.097656 57.105469 50.519531 62.085938 52.339844 64.671875 C 53.851562 66.832031 55.410156 68.996094 56.902344 71.183594 C 57.949219 72.683594 57.390625 75.332031 55.808594 76.71875 C 54.191406 78.132812 51.558594 78.3125 50.222656 77.03125 C 49.511719 76.34375 49.050781 75.449219 48.488281 74.632812 C 45.371094 70.136719 42.277344 65.632812 39.171875 61.125 C 36.921875 57.851562 34.6875 54.566406 32.4375 51.289062 C 31.550781 49.996094 30.640625 48.683594 29.753906 47.390625 C 29.714844 47.398438 29.679688 47.414062 29.652344 47.425781 Z M 29.652344 47.425781 " fill-opacity="1" fill-rule="evenodd"/></g></g></g></g></g></g></g><g fill="#0f0f1a" fill-opacity="1"><g transform="translate(336.727946, 157.265829)"><g><path d="M 14.390625 3.808594 C 7.101562 3.808594 1.886719 1.613281 -1.242188 -2.785156 C -4.082031 -6.777344 -5.503906 -11.660156 -5.503906 -17.441406 C -5.503906 -21.996094 -4.941406 -26.941406 -3.8125 -32.28125 C -2.707031 -37.519531 -1.28125 -42.640625 0.464844 -47.648438 L 15.117188 -89.144531 C 19.230469 -100.613281 23.230469 -109.324219 27.117188 -115.273438 C 31.59375 -122.125 36.777344 -125.550781 42.667969 -125.550781 C 45.125 -125.550781 47.203125 -125.035156 48.910156 -124.007812 C 50.804688 -122.867188 52.128906 -121.191406 52.878906 -118.988281 C 54.121094 -115.34375 53.210938 -110.398438 50.152344 -104.148438 C 45.558594 -94.84375 41.609375 -86.246094 38.308594 -78.363281 C 35.042969 -70.5625 32.476562 -63.183594 30.601562 -56.238281 C 29.738281 -53.117188 29.125 -50.152344 28.75 -47.332031 C 28.472656 -45.226562 28.667969 -43.625 29.332031 -42.527344 C 29.71875 -41.886719 30.890625 -41.566406 32.847656 -41.566406 C 34.988281 -41.566406 36.835938 -42.105469 38.382812 -43.175781 C 40.1875 -44.425781 41.855469 -46.199219 43.390625 -48.507812 C 44.277344 -49.835938 45.378906 -50.765625 46.699219 -51.300781 C 48.082031 -51.859375 49.550781 -51.929688 51.109375 -51.511719 C 53.339844 -50.910156 55.191406 -49.746094 56.660156 -48.015625 C 57.632812 -46.871094 58.199219 -45.644531 58.363281 -44.324219 C 58.542969 -42.890625 58.238281 -41.515625 57.449219 -40.199219 C 56.382812 -38.492188 55.09375 -35.992188 53.582031 -32.699219 C 51.957031 -29.15625 50.015625 -25.394531 47.761719 -21.40625 C 45.453125 -17.316406 42.757812 -13.410156 39.679688 -9.679688 C 36.476562 -5.800781 32.863281 -2.621094 28.832031 -0.140625 C 24.554688 2.492188 19.738281 3.808594 14.390625 3.808594 Z M 14.390625 -3.808594 C 18.300781 -3.808594 21.785156 -4.75 24.839844 -6.632812 C 28.148438 -8.667969 31.136719 -11.300781 33.804688 -14.53125 C 36.597656 -17.914062 39.039062 -21.457031 41.128906 -25.15625 C 43.277344 -28.957031 45.121094 -32.53125 46.65625 -35.875 C 48.304688 -39.46875 49.722656 -42.214844 50.914062 -44.121094 C 50.800781 -43.933594 50.765625 -43.6875 50.804688 -43.382812 C 50.820312 -43.246094 50.851562 -43.128906 50.898438 -43.03125 C 50.90625 -43.015625 50.910156 -43.007812 50.914062 -43.003906 C 50.898438 -43.023438 50.878906 -43.050781 50.855469 -43.078125 C 50.40625 -43.605469 49.832031 -43.964844 49.128906 -44.152344 C 49.21875 -44.128906 49.359375 -44.15625 49.558594 -44.238281 C 49.660156 -44.277344 49.746094 -44.328125 49.808594 -44.382812 C 49.796875 -44.375 49.773438 -44.339844 49.734375 -44.28125 C 47.65625 -41.167969 45.320312 -38.710938 42.71875 -36.910156 C 39.867188 -34.9375 36.574219 -33.949219 32.847656 -33.949219 C 28.03125 -33.949219 24.6875 -35.492188 22.816406 -38.578125 C 21.226562 -41.203125 20.683594 -44.453125 21.199219 -48.332031 C 21.617188 -51.496094 22.296875 -54.792969 23.242188 -58.222656 C 25.207031 -65.496094 27.886719 -73.191406 31.28125 -81.304688 C 34.640625 -89.335938 38.652344 -98.066406 43.308594 -107.5 C 44.46875 -109.871094 45.230469 -111.898438 45.585938 -113.582031 C 45.863281 -114.886719 45.890625 -115.871094 45.664062 -116.53125 C 45.511719 -116.980469 45.28125 -117.296875 44.976562 -117.480469 C 44.480469 -117.78125 43.710938 -117.929688 42.667969 -117.929688 C 39.527344 -117.929688 36.46875 -115.65625 33.496094 -111.105469 C 29.9375 -105.65625 26.203125 -97.488281 22.300781 -86.609375 L 7.660156 -45.136719 C 6.019531 -40.4375 4.683594 -35.628906 3.644531 -30.707031 C 2.625 -25.886719 2.117188 -21.464844 2.117188 -17.441406 C 2.117188 -13.285156 3.066406 -9.875 4.964844 -7.203125 C 6.578125 -4.941406 9.71875 -3.808594 14.390625 -3.808594 Z M 14.390625 -3.808594 "/></g></g></g><g fill="#117bf4" fill-opacity="1"><g transform="translate(336.727946, 157.265829)"><g><path d="M 14.390625 0 C 8.410156 0 4.234375 -1.660156 1.859375 -4.984375 C -0.503906 -8.316406 -1.6875 -12.46875 -1.6875 -17.4375 C -1.6875 -21.726562 -1.148438 -26.410156 -0.078125 -31.484375 C 0.992188 -36.566406 2.375 -41.535156 4.0625 -46.390625 C 9.820312 -62.867188 14.703125 -76.695312 18.703125 -87.875 C 22.710938 -99.050781 26.578125 -107.488281 30.296875 -113.1875 C 34.023438 -118.882812 38.148438 -121.734375 42.671875 -121.734375 C 46.171875 -121.734375 48.367188 -120.40625 49.265625 -117.75 C 50.171875 -115.101562 49.328125 -111.125 46.734375 -105.8125 C 42.097656 -96.445312 38.113281 -87.785156 34.78125 -79.828125 C 31.457031 -71.867188 28.835938 -64.335938 26.921875 -57.234375 C 26.015625 -53.953125 25.363281 -50.816406 24.96875 -47.828125 C 24.570312 -44.835938 24.9375 -42.410156 26.0625 -40.546875 C 27.195312 -38.679688 29.457031 -37.75 32.84375 -37.75 C 35.78125 -37.75 38.347656 -38.507812 40.546875 -40.03125 C 42.753906 -41.5625 44.757812 -43.679688 46.5625 -46.390625 C 47.46875 -47.742188 48.648438 -48.222656 50.109375 -47.828125 C 51.578125 -47.429688 52.789062 -46.671875 53.75 -45.546875 C 54.71875 -44.421875 54.863281 -43.289062 54.1875 -42.15625 C 53.050781 -40.351562 51.691406 -37.726562 50.109375 -34.28125 C 48.535156 -30.84375 46.644531 -27.175781 44.4375 -23.28125 C 42.238281 -19.382812 39.671875 -15.65625 36.734375 -12.09375 C 33.804688 -8.539062 30.503906 -5.632812 26.828125 -3.375 C 23.160156 -1.125 19.015625 0 14.390625 0 Z M 14.390625 0 "/></g></g></g><g fill="#0f0f1a" fill-opacity="1"><g transform="translate(362.710108, 151.112387)"><g><path d="M 48.652344 38.511719 C 38.980469 38.511719 30.933594 36.847656 24.515625 33.523438 C 17.984375 30.136719 13.019531 25.683594 9.617188 20.15625 C 6.28125 14.730469 4.398438 8.984375 3.980469 2.910156 C 3.566406 -3.066406 4.398438 -8.761719 6.480469 -14.179688 C 8.621094 -19.738281 11.828125 -24.285156 16.109375 -27.820312 C 20.671875 -31.59375 26.082031 -33.476562 32.332031 -33.476562 C 33.933594 -33.476562 35.304688 -33.347656 36.445312 -33.085938 C 38.410156 -32.636719 39.945312 -31.761719 41.046875 -30.460938 C 42.507812 -28.734375 43.238281 -26.714844 43.238281 -24.402344 L 43.238281 -24.234375 L 43.230469 -24.066406 C 43.082031 -21.578125 43.589844 -19.09375 44.753906 -16.617188 C 45.855469 -14.277344 47.757812 -12.261719 50.464844 -10.570312 C 53.199219 -8.863281 57.015625 -8.007812 61.921875 -8.007812 C 66.847656 -8.007812 70.929688 -8.785156 74.160156 -10.339844 C 77.449219 -11.921875 80.128906 -13.929688 82.195312 -16.363281 C 84.410156 -18.96875 86.117188 -21.683594 87.3125 -24.5 C 88.582031 -27.492188 89.457031 -30.214844 89.941406 -32.671875 C 90.429688 -35.15625 90.671875 -36.925781 90.671875 -37.976562 C 90.671875 -37.40625 90.917969 -36.785156 91.40625 -36.101562 C 91.914062 -35.398438 92.570312 -34.875 93.378906 -34.53125 C 94.023438 -34.253906 94.675781 -34.136719 95.335938 -34.171875 C 96.289062 -34.226562 97.113281 -34.582031 97.800781 -35.246094 C 98.148438 -35.578125 98.367188 -35.886719 98.460938 -36.167969 L 93.035156 -37.976562 L 98.523438 -36.371094 C 95.757812 -26.921875 91.289062 -19.613281 85.113281 -14.449219 C 78.765625 -9.136719 71.796875 -6.480469 64.210938 -6.480469 C 55.472656 -6.480469 48.75 -9.671875 44.046875 -16.054688 C 39.746094 -21.890625 37.59375 -29.148438 37.59375 -37.824219 C 37.59375 -43.222656 38.632812 -49.035156 40.710938 -55.265625 C 42.722656 -61.296875 45.457031 -67.230469 48.917969 -73.074219 C 52.375 -78.90625 56.21875 -84.128906 60.453125 -88.742188 C 64.894531 -93.582031 69.460938 -97.175781 74.160156 -99.523438 L 76.714844 -94.410156 L 76.488281 -88.695312 C 64.683594 -89.164062 55.507812 -87.914062 48.964844 -84.933594 C 46.175781 -83.664062 44.15625 -82.179688 42.898438 -80.484375 C 41.804688 -79.003906 41.257812 -77.238281 41.257812 -75.191406 C 41.257812 -74.238281 41.429688 -73.535156 41.769531 -73.082031 C 41.824219 -73.011719 41.867188 -72.960938 41.898438 -72.933594 C 41.875 -72.953125 41.839844 -72.976562 41.789062 -73.003906 C 41.628906 -73.089844 41.476562 -73.132812 41.332031 -73.132812 L 45.074219 -73.132812 L 46.574219 -69.707031 C 47.820312 -66.855469 47.964844 -63.644531 47.011719 -60.066406 C 46.179688 -56.945312 44.589844 -54.011719 42.25 -51.269531 C 39.976562 -48.605469 37.105469 -46.390625 33.632812 -44.625 C 30.019531 -42.785156 25.925781 -41.867188 21.351562 -41.867188 C 16.039062 -41.867188 11.480469 -43.121094 7.675781 -45.636719 C 3.941406 -48.101562 1.136719 -51.316406 -0.742188 -55.277344 C -2.535156 -59.050781 -3.433594 -63.097656 -3.433594 -67.414062 C -3.433594 -74.636719 -1.574219 -81.464844 2.140625 -87.890625 C 5.757812 -94.148438 10.902344 -99.65625 17.578125 -104.40625 C 24.105469 -109.054688 31.902344 -112.6875 40.964844 -115.308594 C 49.921875 -117.898438 59.957031 -119.191406 71.074219 -119.191406 C 77.589844 -119.191406 83.199219 -118.410156 87.90625 -116.839844 C 93.390625 -115.011719 97.304688 -112.078125 99.65625 -108.039062 C 102.214844 -103.640625 102.289062 -98.398438 99.878906 -92.304688 L 98.96875 -89.996094 L 96.65625 -89.085938 C 94.023438 -88.050781 91.433594 -86.277344 88.886719 -83.773438 C 86.132812 -81.066406 83.714844 -77.964844 81.625 -74.46875 C 79.492188 -70.898438 77.804688 -67.292969 76.5625 -63.65625 C 75.394531 -60.238281 74.808594 -57.222656 74.808594 -54.601562 C 74.808594 -52.578125 75.113281 -51.097656 75.71875 -50.164062 C 75.757812 -50.109375 75.785156 -50.070312 75.808594 -50.046875 C 75.808594 -50.050781 75.804688 -50.050781 75.804688 -50.050781 C 75.941406 -49.984375 76.191406 -49.949219 76.5625 -49.949219 C 79.132812 -49.949219 81.308594 -50.855469 83.085938 -52.664062 C 85.46875 -55.089844 87.664062 -58.6875 89.671875 -63.453125 C 91.875 -68.695312 94.066406 -75.023438 96.242188 -82.445312 C 98.25 -89.425781 100.234375 -95.007812 102.191406 -99.195312 C 104.269531 -103.640625 106.375 -107.023438 108.5 -109.335938 C 110.839844 -111.882812 113.167969 -113.59375 115.488281 -114.472656 C 117.613281 -115.28125 119.636719 -115.683594 121.558594 -115.683594 C 126.226562 -115.683594 130.054688 -114.273438 133.035156 -111.453125 C 136.15625 -108.5 137.644531 -104.390625 137.492188 -99.125 L 131.777344 -99.289062 L 137.492188 -99.460938 C 137.625 -95.136719 136.503906 -90.632812 134.132812 -85.953125 C 132.15625 -82.054688 129.902344 -77.878906 127.363281 -73.425781 C 125.085938 -69.429688 123.195312 -64.941406 121.695312 -59.964844 C 120.867188 -57.378906 120.023438 -54.699219 119.167969 -51.921875 C 118.34375 -49.261719 117.542969 -46.222656 116.761719 -42.804688 C 115.976562 -39.371094 115.1875 -35.128906 114.394531 -30.074219 C 112.375 -16.457031 108.722656 -4.585938 103.445312 5.542969 C 97.988281 16.007812 90.734375 24.109375 81.683594 29.84375 C 72.5625 35.621094 61.554688 38.511719 48.652344 38.511719 Z M 48.652344 27.070312 C 59.339844 27.070312 68.3125 24.773438 75.5625 20.179688 C 82.878906 15.542969 88.792969 8.902344 93.300781 0.253906 C 97.988281 -8.734375 101.253906 -19.4375 103.09375 -31.847656 C 103.929688 -37.164062 104.765625 -41.664062 105.609375 -45.351562 C 106.457031 -49.050781 107.332031 -52.367188 108.238281 -55.300781 C 109.109375 -58.113281 109.941406 -60.769531 110.742188 -63.269531 C 112.496094 -69.070312 114.722656 -74.34375 117.425781 -79.089844 C 119.871094 -83.382812 122.039062 -87.390625 123.929688 -91.121094 C 125.421875 -94.066406 126.132812 -96.730469 126.058594 -99.117188 L 126.054688 -99.285156 L 126.058594 -99.453125 C 126.109375 -101.304688 125.816406 -102.535156 125.175781 -103.140625 C 124.398438 -103.878906 123.191406 -104.246094 121.558594 -104.246094 C 121.035156 -104.246094 120.363281 -104.089844 119.542969 -103.777344 C 118.914062 -103.539062 118.039062 -102.8125 116.921875 -101.597656 C 115.589844 -100.148438 114.136719 -97.734375 112.554688 -94.351562 C 110.851562 -90.707031 109.070312 -85.664062 107.21875 -79.226562 C 104.921875 -71.390625 102.585938 -64.65625 100.214844 -59.019531 C 97.644531 -52.90625 94.652344 -48.113281 91.242188 -44.644531 C 87.226562 -40.554688 82.332031 -38.511719 76.5625 -38.511719 C 74.394531 -38.511719 72.433594 -38.945312 70.6875 -39.820312 C 68.820312 -40.753906 67.296875 -42.128906 66.121094 -43.9375 C 64.289062 -46.765625 63.371094 -50.320312 63.371094 -54.601562 C 63.371094 -58.488281 64.160156 -62.742188 65.738281 -67.355469 C 67.238281 -71.75 69.261719 -76.078125 71.804688 -80.335938 C 74.394531 -84.671875 77.414062 -88.535156 80.867188 -91.929688 C 84.519531 -95.523438 88.386719 -98.125 92.464844 -99.730469 L 94.5625 -94.410156 L 89.242188 -96.511719 C 90.289062 -99.164062 90.464844 -101.085938 89.769531 -102.285156 C 88.867188 -103.835938 87.039062 -105.070312 84.289062 -105.988281 C 80.757812 -107.164062 76.351562 -107.753906 71.074219 -107.753906 C 61.039062 -107.753906 52.0625 -106.609375 44.140625 -104.320312 C 36.324219 -102.058594 29.683594 -98.980469 24.210938 -95.085938 C 18.886719 -91.296875 14.832031 -86.992188 12.042969 -82.167969 C 9.351562 -77.511719 8.007812 -72.59375 8.007812 -67.414062 C 8.007812 -64.816406 8.535156 -62.402344 9.589844 -60.179688 C 10.558594 -58.140625 12.023438 -56.472656 13.980469 -55.179688 C 15.871094 -53.929688 18.328125 -53.304688 21.351562 -53.304688 C 24.097656 -53.304688 26.460938 -53.808594 28.441406 -54.816406 C 30.5625 -55.898438 32.265625 -57.191406 33.550781 -58.695312 C 34.769531 -60.121094 35.570312 -61.5625 35.957031 -63.015625 C 36.226562 -64.015625 36.269531 -64.714844 36.09375 -65.121094 L 41.332031 -67.414062 L 41.332031 -61.695312 C 37.8125 -61.695312 34.921875 -63.183594 32.65625 -66.167969 C 30.765625 -68.664062 29.816406 -71.671875 29.816406 -75.191406 C 29.816406 -79.753906 31.113281 -83.785156 33.703125 -87.285156 C 36.132812 -90.570312 39.640625 -93.257812 44.226562 -95.34375 C 52.421875 -99.074219 63.328125 -100.667969 76.945312 -100.125 L 79.273438 -89.292969 C 75.835938 -87.574219 72.371094 -84.8125 68.882812 -81.007812 C 65.183594 -76.980469 61.8125 -72.390625 58.757812 -67.242188 C 55.714844 -62.101562 53.316406 -56.90625 51.5625 -51.648438 C 49.878906 -46.59375 49.035156 -41.984375 49.035156 -37.824219 C 49.035156 -31.65625 50.441406 -26.660156 53.257812 -22.839844 C 55.671875 -19.558594 59.324219 -17.921875 64.210938 -17.921875 C 69.027344 -17.921875 73.550781 -19.6875 77.773438 -23.222656 C 82.175781 -26.902344 85.429688 -32.355469 87.546875 -39.582031 L 87.609375 -39.785156 C 88.109375 -41.289062 88.863281 -42.523438 89.871094 -43.492188 C 91.222656 -44.789062 92.832031 -45.492188 94.703125 -45.59375 C 95.816406 -45.65625 96.871094 -45.476562 97.859375 -45.054688 C 99.011719 -44.566406 99.953125 -43.808594 100.691406 -42.785156 C 101.636719 -41.472656 102.109375 -39.867188 102.109375 -37.976562 C 102.109375 -36.183594 101.796875 -33.679688 101.164062 -30.46875 C 100.527344 -27.234375 99.421875 -23.753906 97.84375 -20.035156 C 96.191406 -16.140625 93.882812 -12.449219 90.910156 -8.953125 C 87.796875 -5.289062 83.863281 -2.3125 79.121094 -0.03125 C 74.320312 2.277344 68.585938 3.433594 61.921875 3.433594 C 54.828125 3.433594 48.988281 1.996094 44.402344 -0.871094 C 39.789062 -3.753906 36.457031 -7.378906 34.402344 -11.753906 C 32.414062 -15.984375 31.550781 -20.3125 31.808594 -24.738281 L 37.519531 -24.402344 L 31.800781 -24.402344 C 31.800781 -23.921875 31.972656 -23.476562 32.3125 -23.074219 C 32.6875 -22.632812 33.101562 -22.300781 33.5625 -22.070312 C 33.714844 -21.996094 33.828125 -21.953125 33.902344 -21.933594 C 33.597656 -22.003906 33.074219 -22.039062 32.332031 -22.039062 C 28.824219 -22.039062 25.84375 -21.027344 23.394531 -19.003906 C 20.65625 -16.742188 18.578125 -13.765625 17.160156 -10.070312 C 15.683594 -6.234375 15.09375 -2.171875 15.390625 2.121094 C 15.683594 6.320312 17.003906 10.332031 19.359375 14.160156 C 21.652344 17.886719 25.125 20.953125 29.78125 23.367188 C 34.546875 25.835938 40.839844 27.070312 48.652344 27.070312 Z M 48.652344 27.070312 "/></g></g></g><g fill="#117bf4" fill-opacity="1"><g transform="translate(362.710108, 151.112387)"><g><path d="M 48.65625 32.796875 C 39.90625 32.796875 32.734375 31.34375 27.140625 28.4375 C 21.554688 25.539062 17.335938 21.78125 14.484375 17.15625 C 11.640625 12.53125 10.039062 7.648438 9.6875 2.515625 C 9.332031 -2.617188 10.039062 -7.5 11.8125 -12.125 C 13.59375 -16.75 16.238281 -20.507812 19.75 -23.40625 C 23.257812 -26.3125 27.453125 -27.765625 32.328125 -27.765625 C 34.671875 -27.765625 36.117188 -27.429688 36.671875 -26.765625 C 37.234375 -26.109375 37.515625 -25.320312 37.515625 -24.40625 C 37.316406 -20.945312 38.003906 -17.539062 39.578125 -14.1875 C 41.148438 -10.832031 43.765625 -8.007812 47.421875 -5.71875 C 51.085938 -3.425781 55.921875 -2.28125 61.921875 -2.28125 C 67.710938 -2.28125 72.613281 -3.242188 76.625 -5.171875 C 80.644531 -7.109375 83.953125 -9.601562 86.546875 -12.65625 C 89.140625 -15.707031 91.148438 -18.910156 92.578125 -22.265625 C 94.003906 -25.617188 94.992188 -28.71875 95.546875 -31.5625 C 96.109375 -34.414062 96.390625 -36.550781 96.390625 -37.96875 C 96.390625 -39.289062 95.929688 -39.925781 95.015625 -39.875 C 94.097656 -39.832031 93.4375 -39.195312 93.03125 -37.96875 C 90.59375 -29.632812 86.726562 -23.253906 81.4375 -18.828125 C 76.15625 -14.410156 70.410156 -12.203125 64.203125 -12.203125 C 57.390625 -12.203125 52.203125 -14.613281 48.640625 -19.4375 C 45.085938 -24.269531 43.3125 -30.398438 43.3125 -37.828125 C 43.3125 -42.597656 44.25 -47.804688 46.125 -53.453125 C 48.007812 -59.097656 50.578125 -64.664062 53.828125 -70.15625 C 57.085938 -75.644531 60.695312 -80.550781 64.65625 -84.875 C 68.625 -89.195312 72.644531 -92.375 76.71875 -94.40625 C 64.007812 -94.914062 53.96875 -93.492188 46.59375 -90.140625 C 39.21875 -86.785156 35.53125 -81.800781 35.53125 -75.1875 C 35.53125 -72.945312 36.085938 -71.085938 37.203125 -69.609375 C 38.328125 -68.140625 39.703125 -67.40625 41.328125 -67.40625 C 42.046875 -65.78125 42.097656 -63.820312 41.484375 -61.53125 C 40.867188 -59.25 39.671875 -57.066406 37.890625 -54.984375 C 36.117188 -52.898438 33.832031 -51.144531 31.03125 -49.71875 C 28.238281 -48.289062 25.015625 -47.578125 21.359375 -47.578125 C 17.179688 -47.578125 13.671875 -48.519531 10.828125 -50.40625 C 7.984375 -52.289062 5.847656 -54.726562 4.421875 -57.71875 C 2.992188 -60.71875 2.28125 -63.945312 2.28125 -67.40625 C 2.28125 -73.613281 3.878906 -79.488281 7.078125 -85.03125 C 10.285156 -90.570312 14.890625 -95.476562 20.890625 -99.75 C 26.890625 -104.019531 34.109375 -107.375 42.546875 -109.8125 C 50.984375 -112.25 60.492188 -113.46875 71.078125 -113.46875 C 76.972656 -113.46875 81.976562 -112.78125 86.09375 -111.40625 C 90.207031 -110.039062 93.078125 -107.957031 94.703125 -105.15625 C 96.335938 -102.363281 96.289062 -98.78125 94.5625 -94.40625 C 91.207031 -93.082031 87.976562 -90.894531 84.875 -87.84375 C 81.769531 -84.800781 79.046875 -81.320312 76.703125 -77.40625 C 74.367188 -73.488281 72.515625 -69.519531 71.140625 -65.5 C 69.773438 -61.488281 69.09375 -57.851562 69.09375 -54.59375 C 69.09375 -51.445312 69.703125 -48.929688 70.921875 -47.046875 C 72.140625 -45.171875 74.019531 -44.234375 76.5625 -44.234375 C 80.726562 -44.234375 84.257812 -45.707031 87.15625 -48.65625 C 90.0625 -51.601562 92.65625 -55.796875 94.9375 -61.234375 C 97.226562 -66.671875 99.492188 -73.203125 101.734375 -80.828125 C 103.660156 -87.546875 105.535156 -92.859375 107.359375 -96.765625 C 109.191406 -100.679688 110.972656 -103.578125 112.703125 -105.453125 C 114.429688 -107.335938 116.03125 -108.5625 117.5 -109.125 C 118.976562 -109.6875 120.332031 -109.96875 121.5625 -109.96875 C 124.707031 -109.96875 127.21875 -109.078125 129.09375 -107.296875 C 130.976562 -105.515625 131.875 -102.84375 131.78125 -99.28125 C 131.875 -95.925781 130.953125 -92.34375 129.015625 -88.53125 C 127.085938 -84.71875 124.878906 -80.625 122.390625 -76.25 C 119.898438 -71.882812 117.84375 -67.003906 116.21875 -61.609375 C 115.40625 -59.066406 114.566406 -56.398438 113.703125 -53.609375 C 112.835938 -50.816406 112 -47.640625 111.1875 -44.078125 C 110.375 -40.515625 109.5625 -36.140625 108.75 -30.953125 C 106.8125 -17.941406 103.351562 -6.660156 98.375 2.890625 C 93.394531 12.453125 86.8125 19.828125 78.625 25.015625 C 70.4375 30.203125 60.445312 32.796875 48.65625 32.796875 Z M 48.65625 32.796875 "/></g></g></g><g clip-path="url(#92b038fa67)"><g clip-path="url(#e9c38e01ab)"><g clip-path="url(#29bbc0f84f)"><path fill="#0f0f1a" d="M 323.140625 107.972656 C 321.683594 106.554688 319.355469 106.585938 317.9375 108.046875 L 308.332031 117.914062 C 307.992188 118.265625 307.453125 118.3125 307.058594 118.027344 C 306.992188 117.980469 306.921875 117.929688 306.855469 117.882812 C 306.441406 117.585938 306.324219 117.03125 306.574219 116.59375 L 317.25 98.125 C 318.230469 96.425781 317.804688 94.203125 316.175781 93.113281 C 314.386719 91.921875 311.996094 92.5 310.9375 94.332031 L 300.4375 112.5 C 300.164062 112.972656 299.558594 113.132812 299.089844 112.855469 C 299.082031 112.851562 299.078125 112.851562 299.074219 112.847656 C 298.648438 112.59375 298.476562 112.070312 298.667969 111.617188 L 308.351562 88.792969 C 309.117188 86.988281 308.425781 84.832031 306.671875 83.953125 C 304.753906 82.988281 302.449219 83.855469 301.625 85.800781 L 292.234375 107.933594 C 292.015625 108.445312 291.410156 108.675781 290.90625 108.433594 C 290.789062 108.375 290.675781 108.320312 290.5625 108.269531 C 290.117188 108.058594 289.898438 107.546875 290.050781 107.078125 L 296.6875 86.707031 C 297.292969 84.839844 296.417969 82.753906 294.59375 82.03125 C 292.597656 81.234375 290.378906 82.296875 289.726562 84.304688 L 282.542969 106.359375 C 282.542969 106.359375 282.542969 106.363281 282.542969 106.363281 L 282.160156 107.542969 C 281.472656 109.585938 280.769531 111.1875 279.75 112.191406 C 277.839844 114.074219 275.304688 113.738281 274.324219 111.808594 C 273.089844 109.386719 272.0625 106.707031 270.152344 102.539062 C 268.0625 97.984375 262.136719 99.941406 262.664062 102.886719 C 263.160156 105.660156 265.78125 114.574219 268.761719 126.152344 C 271.742188 137.730469 282.925781 143.609375 293.085938 143.734375 C 303.246094 143.859375 310.101562 126.65625 312.628906 124.054688 C 315.160156 121.453125 323.214844 113.179688 323.214844 113.179688 C 324.632812 111.722656 324.597656 109.390625 323.140625 107.972656 Z M 323.140625 107.972656 " fill-opacity="1" fill-rule="nonzero"/></g></g></g><g clip-path="url(#58457be3fe)"><g clip-path="url(#5b76e69efc)"><g clip-path="url(#6c96151fdb)"><path fill="#0f0f1a" d="M 286.144531 132.039062 C 285.996094 132.070312 285.839844 132.070312 285.6875 132.03125 C 285.15625 131.894531 284.835938 131.355469 284.972656 130.824219 C 285.824219 127.472656 284.753906 120.773438 281.125 117.917969 C 280.699219 117.578125 280.625 116.957031 280.960938 116.527344 C 281.300781 116.097656 281.921875 116.023438 282.351562 116.359375 C 286.660156 119.757812 287.898438 127.359375 286.890625 131.316406 C 286.792969 131.691406 286.496094 131.960938 286.144531 132.039062 Z M 286.144531 132.039062 " fill-opacity="1" fill-rule="nonzero"/></g></g></g><g clip-path="url(#33d56e856a)"><g clip-path="url(#38277d92bb)"><g clip-path="url(#4a99d902f6)"><path fill="#0f0f1a" d="M 329.753906 111.75 C 329.609375 111.785156 329.453125 111.785156 329.296875 111.746094 C 328.765625 111.609375 328.445312 111.070312 328.582031 110.539062 C 329.773438 105.867188 328.273438 96.53125 323.207031 92.539062 C 322.777344 92.199219 322.703125 91.578125 323.042969 91.148438 C 323.378906 90.71875 324.003906 90.644531 324.433594 90.984375 C 330.199219 95.53125 331.855469 105.722656 330.5 111.03125 C 330.40625 111.40625 330.109375 111.675781 329.753906 111.753906 Z M 329.753906 111.75 " fill-opacity="1" fill-rule="nonzero"/></g></g></g><g clip-path="url(#70b4c99b07)"><g clip-path="url(#413d232496)"><g clip-path="url(#b54b57041b)"><path fill="#0f0f1a" d="M 337.546875 106.761719 C 337.402344 106.792969 337.246094 106.792969 337.089844 106.753906 C 336.5625 106.617188 336.242188 106.078125 336.375 105.550781 C 337.15625 102.492188 335.824219 95.398438 332.042969 91.660156 C 331.65625 91.277344 331.652344 90.648438 332.035156 90.261719 C 332.421875 89.871094 333.046875 89.867188 333.4375 90.253906 C 337.832031 94.597656 339.230469 102.375 338.296875 106.039062 C 338.199219 106.414062 337.902344 106.683594 337.546875 106.761719 Z M 337.546875 106.761719 " fill-opacity="1" fill-rule="nonzero"/></g></g></g><g clip-path="url(#b7b3a45c47)"><g clip-path="url(#bad3fae4f5)"><g clip-path="url(#f3c41755d8)"><g clip-path="url(#127d9f5d2d)"><g clip-path="url(#fa29db8f7f)"><path fill="#1900b7" d="M 406.410156 188.03125 C 406.515625 188.679688 406.585938 189.332031 406.621094 189.988281 C 406.660156 190.644531 406.667969 191.300781 406.640625 191.957031 C 406.613281 192.613281 406.554688 193.269531 406.464844 193.917969 C 406.375 194.570312 406.253906 195.214844 406.097656 195.851562 C 405.945312 196.492188 405.761719 197.121094 405.542969 197.742188 C 405.328125 198.363281 405.082031 198.972656 404.808594 199.566406 C 404.53125 200.164062 404.226562 200.746094 403.894531 201.3125 C 403.5625 201.878906 403.203125 202.429688 402.816406 202.960938 C 402.429688 203.492188 402.019531 204 401.582031 204.492188 C 401.144531 204.984375 400.6875 205.453125 400.203125 205.898438 C 399.71875 206.34375 399.214844 206.761719 398.691406 207.160156 C 398.167969 207.554688 397.625 207.925781 397.066406 208.269531 C 396.503906 208.609375 395.929688 208.925781 395.339844 209.210938 C 394.746094 209.5 394.144531 209.753906 393.527344 209.980469 C 392.910156 210.210938 392.285156 210.40625 391.648438 210.570312 C 391.011719 210.734375 390.371094 210.871094 389.71875 210.972656 C 389.070312 211.074219 388.417969 211.144531 387.761719 211.183594 C 387.105469 211.222656 386.449219 211.226562 385.792969 211.199219 C 385.136719 211.175781 384.484375 211.117188 383.832031 211.027344 C 383.183594 210.9375 382.539062 210.8125 381.898438 210.660156 C 381.261719 210.507812 380.632812 210.320312 380.011719 210.105469 C 379.390625 209.890625 378.78125 209.644531 378.183594 209.367188 C 377.589844 209.09375 377.007812 208.789062 376.441406 208.457031 C 375.875 208.125 375.324219 207.765625 374.792969 207.378906 C 374.261719 206.992188 373.75 206.578125 373.261719 206.144531 C 372.769531 205.707031 372.300781 205.246094 371.855469 204.761719 C 371.410156 204.28125 370.988281 203.777344 370.59375 203.253906 C 370.195312 202.730469 369.828125 202.1875 369.484375 201.625 C 369.140625 201.066406 368.828125 200.488281 368.539062 199.898438 C 368.253906 199.308594 367.996094 198.703125 367.769531 198.085938 C 367.542969 197.46875 367.347656 196.84375 367.183594 196.207031 C 367.015625 195.574219 366.882812 194.929688 366.78125 194.28125 C 366.679688 193.632812 366.609375 192.980469 366.570312 192.324219 C 366.53125 191.667969 366.523438 191.011719 366.550781 190.355469 C 366.578125 189.699219 366.636719 189.046875 366.726562 188.394531 C 366.816406 187.742188 366.9375 187.097656 367.09375 186.460938 C 367.246094 185.820312 367.429688 185.191406 367.648438 184.570312 C 367.863281 183.949219 368.109375 183.34375 368.382812 182.746094 C 368.660156 182.148438 368.964844 181.566406 369.296875 181 C 369.628906 180.433594 369.988281 179.886719 370.375 179.355469 C 370.761719 178.824219 371.171875 178.3125 371.609375 177.820312 C 372.046875 177.332031 372.507812 176.863281 372.988281 176.417969 C 373.472656 175.972656 373.976562 175.550781 374.5 175.152344 C 375.023438 174.757812 375.566406 174.386719 376.125 174.046875 C 376.6875 173.703125 377.261719 173.386719 377.855469 173.101562 C 378.445312 172.816406 379.050781 172.558594 379.664062 172.332031 C 380.28125 172.105469 380.910156 171.90625 381.542969 171.742188 C 382.179688 171.578125 382.824219 171.445312 383.472656 171.339844 C 384.121094 171.238281 384.773438 171.167969 385.429688 171.128906 C 386.085938 171.09375 386.742188 171.085938 387.398438 171.113281 C 388.054688 171.136719 388.707031 171.195312 389.359375 171.289062 C 390.007812 171.378906 390.652344 171.5 391.292969 171.652344 C 391.929688 171.808594 392.5625 171.992188 393.179688 172.207031 C 393.800781 172.421875 394.410156 172.667969 395.007812 172.945312 C 395.601562 173.21875 396.183594 173.523438 396.75 173.855469 C 397.316406 174.1875 397.867188 174.550781 398.398438 174.933594 C 398.929688 175.320312 399.441406 175.734375 399.929688 176.171875 C 400.421875 176.605469 400.890625 177.066406 401.335938 177.550781 C 401.78125 178.03125 402.203125 178.535156 402.597656 179.058594 C 402.996094 179.585938 403.363281 180.125 403.707031 180.6875 C 404.050781 181.246094 404.363281 181.824219 404.652344 182.414062 C 404.9375 183.003906 405.195312 183.609375 405.421875 184.226562 C 405.648438 184.84375 405.84375 185.46875 406.011719 186.105469 C 406.175781 186.742188 406.308594 187.382812 406.410156 188.03125 Z M 406.410156 188.03125 " fill-opacity="1" fill-rule="nonzero"/></g></g></g></g></g><g clip-path="url(#8221a721e3)"><g clip-path="url(#46da21fd08)"><g clip-path="url(#1b449bfee4)"><g clip-path="url(#c4b5165229)"><g clip-path="url(#5e0c85fa8b)"><path fill="#ffffff" d="M 374.039062 190.355469 L 375.03125 196.636719 C 375.078125 196.933594 375.351562 197.113281 375.628906 197.070312 L 379.648438 196.433594 C 379.75 196.417969 379.851562 196.425781 379.941406 196.472656 L 386.980469 199.644531 C 387.371094 199.808594 387.789062 199.496094 387.722656 199.082031 L 385.304688 183.746094 C 385.238281 183.328125 384.722656 183.144531 384.40625 183.460938 L 378.78125 188.996094 C 378.710938 189.070312 378.597656 189.128906 378.5 189.144531 L 374.496094 189.773438 C 374.195312 189.800781 373.996094 190.078125 374.039062 190.355469 Z M 374.039062 190.355469 " fill-opacity="1" fill-rule="nonzero"/></g></g></g></g></g><g clip-path="url(#772e8176ee)"><g clip-path="url(#7f3296eeb0)"><g clip-path="url(#4f273e28d3)"><g clip-path="url(#f1a27bb45e)"><g clip-path="url(#e7fbe65816)"><path fill="#ffffff" d="M 390.46875 194.972656 C 390.328125 194.996094 390.183594 194.976562 390.054688 194.9375 C 389.664062 194.773438 389.46875 194.316406 389.613281 193.929688 C 390.804688 190.917969 388.878906 188.765625 388.804688 188.675781 C 388.511719 188.355469 388.535156 187.867188 388.851562 187.570312 C 389.171875 187.277344 389.664062 187.300781 389.957031 187.621094 C 390.078125 187.742188 392.636719 190.570312 391.066406 194.511719 C 390.960938 194.753906 390.726562 194.933594 390.46875 194.972656 Z M 390.46875 194.972656 " fill-opacity="1" fill-rule="nonzero"/></g></g></g></g></g><g clip-path="url(#cc8995ff80)"><g clip-path="url(#b67236d00c)"><g clip-path="url(#24db07d0a9)"><g clip-path="url(#622692a8ca)"><g clip-path="url(#3420ab1ea1)"><path fill="#ffffff" d="M 393.746094 196.324219 C 393.589844 196.351562 393.421875 196.335938 393.269531 196.257812 C 392.894531 196.074219 392.71875 195.59375 392.921875 195.214844 C 395.535156 190.011719 391.648438 186.625 391.601562 186.589844 C 391.273438 186.316406 391.238281 185.816406 391.511719 185.488281 C 391.785156 185.160156 392.285156 185.121094 392.613281 185.394531 C 392.660156 185.429688 397.464844 189.625 394.3125 195.910156 C 394.203125 196.128906 393.984375 196.289062 393.746094 196.324219 Z M 393.746094 196.324219 " fill-opacity="1" fill-rule="nonzero"/></g></g></g></g></g><g clip-path="url(#2982875c0a)"><g clip-path="url(#bd55ae29ac)"><g clip-path="url(#d0c4f7518d)"><g clip-path="url(#53a2cfd8dc)"><g clip-path="url(#c688579868)"><path fill="#ffffff" d="M 396.820312 197.648438 C 396.660156 197.671875 396.472656 197.640625 396.320312 197.5625 C 395.941406 197.359375 395.804688 196.875 396.007812 196.496094 C 400.046875 189.257812 394.324219 184.273438 394.070312 184.070312 C 393.742188 183.796875 393.703125 183.292969 393.976562 182.964844 C 394.25 182.640625 394.75 182.601562 395.078125 182.875 C 395.148438 182.921875 402.039062 188.902344 397.367188 197.257812 C 397.257812 197.476562 397.058594 197.609375 396.820312 197.648438 Z M 396.820312 197.648438 " fill-opacity="1" fill-rule="nonzero"/></g></g></g></g></g><g fill="#0f0f1a" fill-opacity="1"><g transform="translate(322.678908, 219.418918)"><g><path d="M 13.867188 11.453125 C 9.367188 11.453125 5.40625 10.589844 1.984375 8.863281 C -1.511719 7.097656 -4.210938 4.71875 -6.113281 1.722656 C -8.035156 -1.304688 -8.996094 -4.65625 -8.996094 -8.339844 C -8.996094 -11.074219 -8.496094 -13.597656 -7.5 -15.917969 C -6.457031 -18.335938 -4.984375 -20.289062 -3.078125 -21.773438 C -1.019531 -23.378906 1.351562 -24.183594 4.039062 -24.183594 C 5.246094 -24.183594 6.261719 -23.851562 7.082031 -23.195312 C 8.125 -22.363281 8.644531 -21.242188 8.644531 -19.835938 C 8.644531 -18.316406 9.058594 -16.976562 9.878906 -15.820312 C 10.761719 -14.582031 11.980469 -13.617188 13.539062 -12.925781 C 15.21875 -12.179688 17.113281 -11.804688 19.222656 -11.804688 C 21.753906 -11.804688 23.835938 -12.371094 25.464844 -13.5 C 27.183594 -14.691406 28.558594 -16.371094 29.59375 -18.535156 C 29.496094 -18.335938 29.453125 -18.0625 29.476562 -17.71875 C 29.507812 -17.179688 29.703125 -16.714844 30.058594 -16.332031 C 30.265625 -16.105469 30.523438 -15.921875 30.832031 -15.78125 C 31.296875 -15.566406 31.789062 -15.488281 32.304688 -15.546875 C 32.957031 -15.621094 33.460938 -15.859375 33.8125 -16.265625 L 31.335938 -18.433594 L 33.96875 -16.457031 C 32.457031 -14.441406 30.679688 -12.867188 28.628906 -11.734375 C 26.492188 -10.554688 24.121094 -9.960938 21.503906 -9.960938 C 16.984375 -9.960938 13.238281 -11.859375 10.265625 -15.660156 C 7.488281 -19.210938 6.101562 -24.140625 6.101562 -30.457031 C 6.101562 -35.515625 7.046875 -40.335938 8.9375 -44.921875 C 10.8125 -49.46875 13.390625 -53.523438 16.667969 -57.085938 C 19.960938 -60.667969 23.738281 -63.5 28.003906 -65.582031 C 32.351562 -67.707031 36.914062 -68.769531 41.691406 -68.769531 C 47.273438 -68.769531 51.570312 -67.285156 54.582031 -64.308594 C 57.605469 -61.324219 59.117188 -57.558594 59.117188 -53.015625 C 59.117188 -49.664062 58.304688 -46.761719 56.683594 -44.308594 C 55.101562 -41.917969 53.082031 -40.109375 50.625 -38.878906 C 48.230469 -37.683594 45.691406 -37.085938 43.007812 -37.085938 C 41.511719 -37.085938 40.117188 -37.480469 38.828125 -38.273438 C 37.765625 -38.925781 37.058594 -39.785156 36.703125 -40.847656 C 36.328125 -41.980469 36.410156 -43.132812 36.949219 -44.300781 C 37.402344 -45.308594 37.492188 -46.222656 37.214844 -47.042969 C 37.207031 -47.066406 37.199219 -47.082031 37.195312 -47.09375 C 37.195312 -47.089844 37.199219 -47.082031 37.207031 -47.078125 L 37.210938 -47.0625 C 36.96875 -47.199219 36.53125 -47.265625 35.898438 -47.265625 C 34.519531 -47.265625 33.304688 -46.910156 32.25 -46.203125 C 31.082031 -45.417969 30.15625 -44.40625 29.476562 -43.175781 C 28.8125 -41.972656 28.484375 -40.71875 28.484375 -39.410156 C 28.484375 -37.746094 28.957031 -36.390625 29.90625 -35.351562 C 30.773438 -34.402344 32.097656 -33.925781 33.878906 -33.925781 C 35.027344 -33.925781 36.167969 -34.125 37.304688 -34.527344 C 38.25 -34.859375 39.121094 -35.484375 39.910156 -36.390625 L 39.945312 -36.433594 L 39.984375 -36.472656 C 41.457031 -38.058594 43.140625 -38.789062 45.035156 -38.65625 C 46.703125 -38.542969 48.121094 -37.902344 49.285156 -36.734375 C 49.976562 -36.042969 50.453125 -35.253906 50.710938 -34.363281 C 50.96875 -33.480469 50.996094 -32.5625 50.792969 -31.609375 C 49.941406 -28.015625 49.03125 -24.769531 48.0625 -21.867188 L 44.988281 -12.730469 C 43.460938 -8.082031 41.203125 -3.945312 38.222656 -0.320312 C 35.207031 3.339844 31.636719 6.214844 27.507812 8.292969 C 23.324219 10.402344 18.777344 11.453125 13.867188 11.453125 Z M 13.867188 4.871094 C 17.734375 4.871094 21.292969 4.050781 24.542969 2.414062 C 27.847656 0.75 30.710938 -1.554688 33.136719 -4.503906 C 35.597656 -7.492188 37.46875 -10.933594 38.75 -14.832031 L 41.816406 -23.949219 C 42.722656 -26.667969 43.570312 -29.679688 44.355469 -32.992188 C 44.328125 -32.859375 44.339844 -32.703125 44.390625 -32.519531 C 44.445312 -32.332031 44.527344 -32.183594 44.632812 -32.078125 C 44.628906 -32.082031 44.609375 -32.085938 44.582031 -32.089844 C 44.730469 -32.078125 44.859375 -32.101562 44.976562 -32.15625 L 44.976562 -32.152344 C 44.925781 -32.113281 44.871094 -32.0625 44.808594 -31.992188 L 42.394531 -34.230469 L 44.878906 -32.070312 C 43.328125 -30.289062 41.535156 -29.039062 39.496094 -28.320312 C 37.648438 -27.667969 35.777344 -27.339844 33.878906 -27.339844 C 30.160156 -27.339844 27.214844 -28.53125 25.042969 -30.917969 C 22.945312 -33.210938 21.898438 -36.042969 21.898438 -39.410156 C 21.898438 -41.847656 22.503906 -44.164062 23.714844 -46.355469 C 24.90625 -48.515625 26.527344 -50.285156 28.578125 -51.664062 C 30.742188 -53.121094 33.183594 -53.847656 35.898438 -53.847656 C 37.667969 -53.847656 39.167969 -53.507812 40.402344 -52.820312 C 41.882812 -52 42.898438 -50.78125 43.449219 -49.15625 C 44.28125 -46.699219 44.109375 -44.160156 42.925781 -41.542969 C 43.113281 -41.949219 43.121094 -42.414062 42.949219 -42.929688 C 42.800781 -43.378906 42.574219 -43.699219 42.277344 -43.882812 C 42.507812 -43.738281 42.753906 -43.667969 43.007812 -43.667969 C 44.65625 -43.667969 46.214844 -44.035156 47.679688 -44.769531 C 49.085938 -45.472656 50.257812 -46.527344 51.191406 -47.941406 C 52.085938 -49.292969 52.53125 -50.984375 52.53125 -53.015625 C 52.53125 -55.726562 51.671875 -57.929688 49.957031 -59.625 C 48.226562 -61.332031 45.472656 -62.1875 41.691406 -62.1875 C 37.929688 -62.1875 34.328125 -61.347656 30.894531 -59.667969 C 27.375 -57.949219 24.246094 -55.601562 21.511719 -52.628906 C 18.765625 -49.640625 16.601562 -46.234375 15.023438 -42.410156 C 13.464844 -38.628906 12.683594 -34.644531 12.683594 -30.457031 C 12.683594 -25.65625 13.605469 -22.074219 15.453125 -19.714844 C 17.105469 -17.601562 19.121094 -16.546875 21.503906 -16.546875 C 22.984375 -16.546875 24.296875 -16.863281 25.441406 -17.492188 C 26.667969 -18.171875 27.753906 -19.144531 28.703125 -20.40625 L 28.777344 -20.507812 L 28.859375 -20.601562 C 29.621094 -21.472656 30.519531 -21.96875 31.550781 -22.085938 C 32.253906 -22.167969 32.933594 -22.058594 33.582031 -21.761719 C 34.074219 -21.535156 34.511719 -21.214844 34.894531 -20.796875 C 35.601562 -20.03125 35.984375 -19.136719 36.046875 -18.117188 C 36.097656 -17.285156 35.925781 -16.480469 35.535156 -15.695312 C 33.996094 -12.480469 31.890625 -9.945312 29.21875 -8.089844 C 26.457031 -6.179688 23.128906 -5.222656 19.222656 -5.222656 C 16.183594 -5.222656 13.394531 -5.785156 10.863281 -6.910156 C 8.207031 -8.089844 6.09375 -9.789062 4.515625 -12.003906 C 2.878906 -14.300781 2.0625 -16.910156 2.0625 -19.835938 C 2.0625 -19.574219 2.121094 -19.304688 2.234375 -19.03125 C 2.394531 -18.644531 2.640625 -18.320312 2.96875 -18.054688 C 3.21875 -17.855469 3.484375 -17.71875 3.765625 -17.644531 C 3.878906 -17.613281 3.96875 -17.597656 4.039062 -17.597656 C 2.859375 -17.597656 1.839844 -17.261719 0.972656 -16.582031 C -0.046875 -15.789062 -0.855469 -14.699219 -1.453125 -13.3125 C -2.09375 -11.824219 -2.414062 -10.167969 -2.414062 -8.339844 C -2.414062 -5.933594 -1.792969 -3.757812 -0.558594 -1.808594 C 0.699219 0.167969 2.535156 1.765625 4.949219 2.988281 C 7.4375 4.242188 10.410156 4.871094 13.867188 4.871094 Z M 13.867188 4.871094 "/></g></g></g><g fill="#117bf4" fill-opacity="1"><g transform="translate(322.678908, 219.418918)"><g><path d="M 13.875 8.15625 C 9.894531 8.15625 6.425781 7.410156 3.46875 5.921875 C 0.507812 4.429688 -1.753906 2.441406 -3.328125 -0.046875 C -4.910156 -2.535156 -5.703125 -5.300781 -5.703125 -8.34375 C -5.703125 -10.625 -5.289062 -12.710938 -4.46875 -14.609375 C -3.65625 -16.515625 -2.515625 -18.035156 -1.046875 -19.171875 C 0.410156 -20.316406 2.101562 -20.890625 4.03125 -20.890625 C 4.914062 -20.890625 5.359375 -20.539062 5.359375 -19.84375 C 5.359375 -17.613281 5.972656 -15.632812 7.203125 -13.90625 C 8.429688 -12.1875 10.097656 -10.859375 12.203125 -9.921875 C 14.304688 -8.984375 16.644531 -8.515625 19.21875 -8.515625 C 22.4375 -8.515625 25.144531 -9.273438 27.34375 -10.796875 C 29.539062 -12.316406 31.28125 -14.425781 32.5625 -17.125 C 32.851562 -17.707031 32.820312 -18.1875 32.46875 -18.5625 C 32.125 -18.945312 31.75 -18.90625 31.34375 -18.4375 C 30.113281 -16.789062 28.675781 -15.515625 27.03125 -14.609375 C 25.394531 -13.703125 23.550781 -13.25 21.5 -13.25 C 18.050781 -13.25 15.171875 -14.726562 12.859375 -17.6875 C 10.546875 -20.644531 9.390625 -24.898438 9.390625 -30.453125 C 9.390625 -35.078125 10.253906 -39.484375 11.984375 -43.671875 C 13.710938 -47.859375 16.082031 -51.585938 19.09375 -54.859375 C 22.101562 -58.140625 25.550781 -60.726562 29.4375 -62.625 C 33.332031 -64.53125 37.421875 -65.484375 41.703125 -65.484375 C 46.378906 -65.484375 49.898438 -64.3125 52.265625 -61.96875 C 54.640625 -59.632812 55.828125 -56.648438 55.828125 -53.015625 C 55.828125 -50.328125 55.195312 -48.03125 53.9375 -46.125 C 52.675781 -44.226562 51.082031 -42.796875 49.15625 -41.828125 C 47.226562 -40.859375 45.179688 -40.375 43.015625 -40.375 C 42.140625 -40.375 41.316406 -40.609375 40.546875 -41.078125 C 39.785156 -41.546875 39.582031 -42.160156 39.9375 -42.921875 C 40.757812 -44.734375 40.890625 -46.457031 40.328125 -48.09375 C 39.773438 -49.738281 38.300781 -50.5625 35.90625 -50.5625 C 33.851562 -50.5625 32.019531 -50.019531 30.40625 -48.9375 C 28.800781 -47.851562 27.53125 -46.460938 26.59375 -44.765625 C 25.65625 -43.066406 25.1875 -41.28125 25.1875 -39.40625 C 25.1875 -36.894531 25.945312 -34.804688 27.46875 -33.140625 C 29 -31.472656 31.140625 -30.640625 33.890625 -30.640625 C 35.410156 -30.640625 36.914062 -30.898438 38.40625 -31.421875 C 39.894531 -31.953125 41.222656 -32.890625 42.390625 -34.234375 C 43.160156 -35.054688 43.96875 -35.4375 44.8125 -35.375 C 45.65625 -35.3125 46.367188 -34.988281 46.953125 -34.40625 C 47.546875 -33.820312 47.753906 -33.117188 47.578125 -32.296875 C 46.753906 -28.847656 45.875 -25.71875 44.9375 -22.90625 C 44.007812 -20.101562 42.988281 -17.0625 41.875 -13.78125 C 40.46875 -9.507812 38.398438 -5.71875 35.671875 -2.40625 C 32.953125 0.894531 29.734375 3.476562 26.015625 5.34375 C 22.304688 7.21875 18.257812 8.15625 13.875 8.15625 Z M 13.875 8.15625 "/></g></g></g><g clip-path="url(#4d272c3995)"><g clip-path="url(#8e0b4dec2d)"><g clip-path="url(#4d15492941)"><g clip-path="url(#3f0ec3fb6e)"><g clip-path="url(#8ab8c897e0)"><path fill="#117bf4" d="M 406.257812 189.265625 C 406.367188 189.945312 406.441406 190.628906 406.480469 191.3125 C 406.519531 192 406.527344 192.6875 406.5 193.375 C 406.472656 194.0625 406.410156 194.746094 406.316406 195.429688 C 406.21875 196.109375 406.09375 196.785156 405.933594 197.453125 C 405.769531 198.121094 405.578125 198.78125 405.351562 199.429688 C 405.125 200.082031 404.867188 200.71875 404.578125 201.34375 C 404.292969 201.96875 403.972656 202.574219 403.625 203.167969 C 403.277344 203.761719 402.898438 204.335938 402.496094 204.894531 C 402.089844 205.449219 401.660156 205.984375 401.203125 206.5 C 400.746094 207.011719 400.265625 207.503906 399.757812 207.96875 C 399.253906 208.4375 398.726562 208.875 398.175781 209.292969 C 397.628906 209.707031 397.058594 210.09375 396.472656 210.453125 C 395.886719 210.8125 395.285156 211.140625 394.664062 211.441406 C 394.046875 211.742188 393.414062 212.007812 392.769531 212.246094 C 392.121094 212.484375 391.464844 212.691406 390.800781 212.863281 C 390.136719 213.035156 389.460938 213.175781 388.78125 213.285156 C 388.101562 213.390625 387.421875 213.464844 386.734375 213.503906 C 386.046875 213.542969 385.359375 213.550781 384.671875 213.523438 C 383.984375 213.496094 383.300781 213.433594 382.621094 213.339844 C 381.9375 213.246094 381.261719 213.117188 380.59375 212.957031 C 379.925781 212.796875 379.265625 212.601562 378.617188 212.375 C 377.964844 212.148438 377.328125 211.894531 376.703125 211.605469 C 376.082031 211.316406 375.472656 210.996094 374.878906 210.648438 C 374.285156 210.300781 373.710938 209.925781 373.152344 209.519531 C 372.597656 209.117188 372.0625 208.683594 371.546875 208.226562 C 371.035156 207.769531 370.542969 207.289062 370.078125 206.78125 C 369.613281 206.277344 369.171875 205.75 368.757812 205.203125 C 368.339844 204.652344 367.953125 204.085938 367.59375 203.5 C 367.234375 202.910156 366.90625 202.308594 366.605469 201.6875 C 366.308594 201.070312 366.039062 200.4375 365.800781 199.792969 C 365.5625 199.148438 365.359375 198.492188 365.183594 197.824219 C 365.011719 197.160156 364.871094 196.488281 364.765625 195.808594 C 364.65625 195.128906 364.582031 194.445312 364.542969 193.757812 C 364.503906 193.070312 364.496094 192.382812 364.523438 191.695312 C 364.550781 191.007812 364.613281 190.324219 364.707031 189.644531 C 364.800781 188.960938 364.929688 188.289062 365.089844 187.617188 C 365.253906 186.949219 365.445312 186.289062 365.671875 185.640625 C 365.898438 184.992188 366.15625 184.355469 366.441406 183.730469 C 366.730469 183.105469 367.050781 182.496094 367.398438 181.902344 C 367.746094 181.308594 368.121094 180.734375 368.527344 180.179688 C 368.933594 179.621094 369.363281 179.085938 369.820312 178.574219 C 370.277344 178.058594 370.757812 177.570312 371.265625 177.101562 C 371.769531 176.636719 372.296875 176.195312 372.847656 175.78125 C 373.394531 175.367188 373.960938 174.980469 374.550781 174.621094 C 375.136719 174.261719 375.738281 173.929688 376.359375 173.632812 C 376.976562 173.332031 377.609375 173.0625 378.253906 172.824219 C 378.902344 172.585938 379.554688 172.382812 380.222656 172.210938 C 380.886719 172.035156 381.558594 171.894531 382.238281 171.789062 C 382.917969 171.679688 383.601562 171.609375 384.289062 171.566406 C 384.976562 171.527344 385.664062 171.519531 386.351562 171.550781 C 387.039062 171.578125 387.722656 171.636719 388.402344 171.730469 C 389.085938 171.828125 389.761719 171.953125 390.429688 172.117188 C 391.097656 172.277344 391.757812 172.46875 392.40625 172.695312 C 393.054688 172.921875 393.695312 173.179688 394.316406 173.46875 C 394.941406 173.757812 395.550781 174.074219 396.144531 174.421875 C 396.738281 174.769531 397.3125 175.148438 397.867188 175.550781 C 398.425781 175.957031 398.960938 176.386719 399.472656 176.84375 C 399.988281 177.300781 400.476562 177.785156 400.945312 178.289062 C 401.410156 178.792969 401.851562 179.320312 402.265625 179.871094 C 402.683594 180.417969 403.070312 180.988281 403.429688 181.574219 C 403.785156 182.160156 404.117188 182.761719 404.414062 183.382812 C 404.714844 184 404.984375 184.632812 405.222656 185.28125 C 405.460938 185.925781 405.664062 186.582031 405.839844 187.246094 C 406.011719 187.914062 406.152344 188.585938 406.257812 189.265625 Z M 406.257812 189.265625 " fill-opacity="1" fill-rule="nonzero"/></g></g></g></g></g><g clip-path="url(#f52900deae)"><g clip-path="url(#35ce4d1964)"><g clip-path="url(#31445a0feb)"><g clip-path="url(#c10e99dc8f)"><g clip-path="url(#3f5c16755f)"><path fill="#0f0f1a" d="M 372.367188 191.695312 L 373.402344 198.273438 C 373.453125 198.585938 373.738281 198.773438 374.027344 198.726562 L 378.238281 198.0625 C 378.34375 198.046875 378.449219 198.050781 378.542969 198.101562 L 385.914062 201.425781 C 386.324219 201.59375 386.761719 201.269531 386.691406 200.835938 L 384.160156 184.773438 C 384.089844 184.339844 383.550781 184.148438 383.21875 184.476562 L 377.328125 190.273438 C 377.257812 190.351562 377.140625 190.410156 377.035156 190.429688 L 372.84375 191.089844 C 372.53125 191.117188 372.320312 191.40625 372.367188 191.695312 Z M 372.367188 191.695312 " fill-opacity="1" fill-rule="nonzero"/></g></g></g></g></g><g clip-path="url(#a6e7812d08)"><g clip-path="url(#91dc61cf02)"><g clip-path="url(#d2dac1d7ba)"><g clip-path="url(#b3d16f02af)"><g clip-path="url(#929cd99dff)"><path fill="#0f0f1a" d="M 389.566406 196.53125 C 389.417969 196.554688 389.269531 196.535156 389.132812 196.492188 C 388.722656 196.324219 388.519531 195.847656 388.667969 195.441406 C 389.917969 192.289062 387.902344 190.03125 387.824219 189.9375 C 387.515625 189.605469 387.539062 189.089844 387.875 188.78125 C 388.210938 188.472656 388.722656 188.5 389.03125 188.835938 C 389.15625 188.964844 391.835938 191.921875 390.191406 196.050781 C 390.082031 196.300781 389.835938 196.488281 389.566406 196.53125 Z M 389.566406 196.53125 " fill-opacity="1" fill-rule="nonzero"/></g></g></g></g></g><g clip-path="url(#132355534c)"><g clip-path="url(#9ab3a96212)"><g clip-path="url(#4dba25df99)"><g clip-path="url(#50382223dd)"><g clip-path="url(#b0b4b97d51)"><path fill="#0f0f1a" d="M 393 197.945312 C 392.832031 197.972656 392.660156 197.957031 392.5 197.878906 C 392.105469 197.683594 391.921875 197.179688 392.136719 196.785156 C 394.871094 191.335938 390.800781 187.789062 390.753906 187.753906 C 390.410156 187.46875 390.371094 186.941406 390.65625 186.601562 C 390.941406 186.257812 391.46875 186.21875 391.8125 186.503906 C 391.859375 186.539062 396.890625 190.933594 393.589844 197.515625 C 393.476562 197.742188 393.246094 197.90625 393 197.945312 Z M 393 197.945312 " fill-opacity="1" fill-rule="nonzero"/></g></g></g></g></g><g clip-path="url(#948ca8e29d)"><g clip-path="url(#f2578ca0bd)"><g clip-path="url(#0fd6e3cb02)"><g clip-path="url(#a20c6b466a)"><g clip-path="url(#3d3b525cba)"><path fill="#0f0f1a" d="M 396.214844 199.332031 C 396.050781 199.359375 395.851562 199.324219 395.691406 199.246094 C 395.296875 199.03125 395.152344 198.523438 395.367188 198.125 C 399.59375 190.550781 393.601562 185.328125 393.335938 185.113281 C 392.992188 184.828125 392.953125 184.304688 393.238281 183.960938 C 393.523438 183.617188 394.050781 183.578125 394.394531 183.863281 C 394.464844 183.914062 401.683594 190.175781 396.789062 198.921875 C 396.675781 199.152344 396.464844 199.292969 396.214844 199.332031 Z M 396.214844 199.332031 " fill-opacity="1" fill-rule="nonzero"/></g></g></g></g></g></g></g></svg>