<svg xmlns="http://www.w3.org/2000/svg" xmlns:xlink="http://www.w3.org/1999/xlink" width="816" zoomAndPan="magnify" viewBox="0 0 612 791.999994" height="1056" preserveAspectRatio="xMidYMid meet" version="1.0"><defs><g/><clipPath id="b52d11bc83"><path d="M 142.082031 232.082031 L 469.917969 232.082031 L 469.917969 559.917969 L 142.082031 559.917969 Z M 142.082031 232.082031 " clip-rule="nonzero"/></clipPath><clipPath id="788770471b"><path d="M 306 232.082031 C 215.46875 232.082031 142.082031 305.46875 142.082031 396 C 142.082031 486.53125 215.46875 559.917969 306 559.917969 C 396.53125 559.917969 469.917969 486.53125 469.917969 396 C 469.917969 305.46875 396.53125 232.082031 306 232.082031 Z M 306 232.082031 " clip-rule="nonzero"/></clipPath><clipPath id="e48aa75398"><path d="M 0.0820312 0.0820312 L 327.917969 0.0820312 L 327.917969 327.917969 L 0.0820312 327.917969 Z M 0.0820312 0.0820312 " clip-rule="nonzero"/></clipPath><clipPath id="8b2b11c9de"><path d="M 164 0.0820312 C 73.46875 0.0820312 0.0820312 73.46875 0.0820312 164 C 0.0820312 254.53125 73.46875 327.917969 164 327.917969 C 254.53125 327.917969 327.917969 254.53125 327.917969 164 C 327.917969 73.46875 254.53125 0.0820312 164 0.0820312 Z M 164 0.0820312 " clip-rule="nonzero"/></clipPath><clipPath id="91dfb18eb1"><rect x="0" width="328" y="0" height="328"/></clipPath><clipPath id="401d4eaecf"><rect x="0" width="84" y="0" height="148"/></clipPath></defs><rect x="-61.2" width="734.4" fill="#ffffff" y="-79.199999" height="950.399992" fill-opacity="1"/><rect x="-61.2" width="734.4" fill="#fcfaff" y="-79.199999" height="950.399992" fill-opacity="1"/><g clip-path="url(#b52d11bc83)"><g clip-path="url(#788770471b)"><g transform="matrix(1, 0, 0, 1, 142, 232)"><g clip-path="url(#91dfb18eb1)"><g clip-path="url(#e48aa75398)"><g clip-path="url(#8b2b11c9de)"><path fill="#1f3065" d="M 0.0820312 0.0820312 L 327.917969 0.0820312 L 327.917969 327.917969 L 0.0820312 327.917969 Z M 0.0820312 0.0820312 " fill-opacity="1" fill-rule="nonzero"/></g></g></g></g></g></g><g transform="matrix(1, 0, 0, 1, 264, 320)"><g clip-path="url(#401d4eaecf)"><g fill="#fcfaff" fill-opacity="1"><g transform="translate(0.778495, 111.133188)"><g><path d="M 6.746094 -25.230469 C 7.628906 -18.042969 12.320312 1.90625 37.40625 1.90625 C 69.53125 1.90625 75.988281 -24.792969 75.988281 -52.074219 C 75.988281 -88.894531 59.410156 -101.070312 40.339844 -101.070312 C 19.511719 -101.070312 4.695312 -88.308594 4.695312 -66.160156 C 4.695312 -43.714844 20.535156 -35.644531 32.125 -35.644531 C 37.261719 -35.644531 48.261719 -37.40625 53.691406 -47.234375 C 53.25 -34.914062 51.929688 -15.84375 39.3125 -15.84375 C 33.886719 -15.84375 30.21875 -19.804688 30.21875 -26.109375 L 30.21875 -27.726562 Z M 50.753906 -67.773438 C 50.753906 -57.796875 45.769531 -52.515625 39.019531 -52.515625 C 27.726562 -52.515625 27.136719 -63.957031 27.136719 -67.773438 C 27.136719 -70.558594 27.136719 -83.761719 39.3125 -83.761719 C 49.433594 -83.761719 50.753906 -73.199219 50.753906 -67.773438 Z M 50.753906 -67.773438 "/></g></g></g></g></g></svg>