<svg xmlns="http://www.w3.org/2000/svg" xmlns:xlink="http://www.w3.org/1999/xlink" width="816" zoomAndPan="magnify" viewBox="0 0 612 791.999994" height="1056" preserveAspectRatio="xMidYMid meet" version="1.0"><defs><g/><clipPath id="8b3e03eb44"><path d="M 142.082031 232.082031 L 469.917969 232.082031 L 469.917969 559.921875 L 142.082031 559.921875 Z M 142.082031 232.082031 " clip-rule="nonzero"/></clipPath><clipPath id="e48016ba28"><path d="M 306 232.082031 C 215.46875 232.082031 142.082031 305.46875 142.082031 396 C 142.082031 486.53125 215.46875 559.921875 306 559.921875 C 396.53125 559.921875 469.917969 486.53125 469.917969 396 C 469.917969 305.46875 396.53125 232.082031 306 232.082031 Z M 306 232.082031 " clip-rule="nonzero"/></clipPath><clipPath id="af0d41a81b"><path d="M 0.0820312 0.0820312 L 327.917969 0.0820312 L 327.917969 327.921875 L 0.0820312 327.921875 Z M 0.0820312 0.0820312 " clip-rule="nonzero"/></clipPath><clipPath id="58bae1a103"><path d="M 164 0.0820312 C 73.46875 0.0820312 0.0820312 73.46875 0.0820312 164 C 0.0820312 254.53125 73.46875 327.921875 164 327.921875 C 254.53125 327.921875 327.917969 254.53125 327.917969 164 C 327.917969 73.46875 254.53125 0.0820312 164 0.0820312 Z M 164 0.0820312 " clip-rule="nonzero"/></clipPath><clipPath id="0247fb1df3"><rect x="0" width="328" y="0" height="328"/></clipPath><clipPath id="7405b9aa77"><rect x="0" width="84" y="0" height="148"/></clipPath></defs><rect x="-61.2" width="734.4" fill="#ffffff" y="-79.199999" height="950.399992" fill-opacity="1"/><rect x="-61.2" width="734.4" fill="#fcfaff" y="-79.199999" height="950.399992" fill-opacity="1"/><g clip-path="url(#8b3e03eb44)"><g clip-path="url(#e48016ba28)"><g transform="matrix(1, 0, 0, 1, 142, 232)"><g clip-path="url(#0247fb1df3)"><g clip-path="url(#af0d41a81b)"><g clip-path="url(#58bae1a103)"><path fill="#1f3065" d="M 0.0820312 0.0820312 L 327.917969 0.0820312 L 327.917969 327.921875 L 0.0820312 327.921875 Z M 0.0820312 0.0820312 " fill-opacity="1" fill-rule="nonzero"/></g></g></g></g></g></g><g transform="matrix(1, 0, 0, 1, 264, 320)"><g clip-path="url(#7405b9aa77)"><g fill="#fcfaff" fill-opacity="1"><g transform="translate(0.778495, 111.133247)"><g><path d="M 28.3125 -62.492188 C 28.019531 -65.570312 27.726562 -69.386719 27.726562 -71.878906 C 27.726562 -82.292969 34.621094 -84.054688 38.582031 -84.054688 C 48.703125 -84.054688 48.703125 -74.375 48.703125 -70.414062 C 48.703125 -54.714844 40.195312 -46.355469 28.457031 -36.085938 C 18.191406 -27.285156 13.054688 -23.324219 5.425781 -17.308594 L 5.425781 0 L 73.640625 0 L 73.640625 -18.777344 C 69.53125 -18.777344 34.914062 -18.191406 34.914062 -18.191406 C 63.957031 -40.339844 73.347656 -53.542969 73.347656 -70.851562 C 73.347656 -90.070312 59.996094 -101.21875 39.605469 -101.21875 C 19.804688 -101.21875 4.695312 -90.804688 4.695312 -67.332031 L 4.695312 -63.8125 Z M 28.3125 -62.492188 "/></g></g></g></g></g></svg>