<svg xmlns="http://www.w3.org/2000/svg" xmlns:xlink="http://www.w3.org/1999/xlink" width="816" zoomAndPan="magnify" viewBox="0 0 612 791.999994" height="1056" preserveAspectRatio="xMidYMid meet" version="1.0"><defs><g/><clipPath id="a4952f9126"><path d="M 142.082031 232.082031 L 469.917969 232.082031 L 469.917969 559.917969 L 142.082031 559.917969 Z M 142.082031 232.082031 " clip-rule="nonzero"/></clipPath><clipPath id="eec54ba42a"><path d="M 306 232.082031 C 215.46875 232.082031 142.082031 305.46875 142.082031 396 C 142.082031 486.53125 215.46875 559.917969 306 559.917969 C 396.53125 559.917969 469.917969 486.53125 469.917969 396 C 469.917969 305.46875 396.53125 232.082031 306 232.082031 Z M 306 232.082031 " clip-rule="nonzero"/></clipPath><clipPath id="872654123b"><path d="M 0.0820312 0.0820312 L 327.917969 0.0820312 L 327.917969 327.917969 L 0.0820312 327.917969 Z M 0.0820312 0.0820312 " clip-rule="nonzero"/></clipPath><clipPath id="3f5c0d5db5"><path d="M 164 0.0820312 C 73.46875 0.0820312 0.0820312 73.46875 0.0820312 164 C 0.0820312 254.53125 73.46875 327.917969 164 327.917969 C 254.53125 327.917969 327.917969 254.53125 327.917969 164 C 327.917969 73.46875 254.53125 0.0820312 164 0.0820312 Z M 164 0.0820312 " clip-rule="nonzero"/></clipPath><clipPath id="dab7f260e9"><rect x="0" width="328" y="0" height="328"/></clipPath><clipPath id="cf82a97a86"><rect x="0" width="163" y="0" height="148"/></clipPath></defs><rect x="-61.2" width="734.4" fill="#ffffff" y="-79.199999" height="950.399992" fill-opacity="1"/><rect x="-61.2" width="734.4" fill="#fcfaff" y="-79.199999" height="950.399992" fill-opacity="1"/><g clip-path="url(#a4952f9126)"><g clip-path="url(#eec54ba42a)"><g transform="matrix(1, 0, 0, 1, 142, 232)"><g clip-path="url(#dab7f260e9)"><g clip-path="url(#872654123b)"><g clip-path="url(#3f5c0d5db5)"><path fill="#1f3065" d="M 0.0820312 0.0820312 L 327.917969 0.0820312 L 327.917969 327.917969 L 0.0820312 327.917969 Z M 0.0820312 0.0820312 " fill-opacity="1" fill-rule="nonzero"/></g></g></g></g></g></g><g transform="matrix(1, 0, 0, 1, 225, 320)"><g clip-path="url(#cf82a97a86)"><g fill="#fcfaff" fill-opacity="1"><g transform="translate(0.813229, 111.13313)"><g><path d="M 12.910156 -69.386719 C 27.136719 -69.679688 28.457031 -70.265625 33.886719 -72.613281 L 33.886719 0 L 57.503906 0 L 57.503906 -99.457031 L 39.605469 -99.457031 C 37.699219 -95.496094 35.792969 -91.683594 29.339844 -88.308594 C 23.910156 -85.523438 18.921875 -85.082031 12.910156 -84.640625 Z M 12.910156 -69.386719 "/></g></g></g><g fill="#fcfaff" fill-opacity="1"><g transform="translate(78.707199, 111.13313)"><g><path d="M 5.867188 -50.460938 C 5.867188 -18.335938 16.871094 2.199219 40.339844 2.199219 C 68.945312 2.199219 76.425781 -26.699219 76.425781 -49.289062 C 76.425781 -63.371094 73.054688 -101.070312 41.21875 -101.070312 C 16.871094 -101.070312 5.867188 -78.480469 5.867188 -50.460938 Z M 27.578125 -45.621094 C 27.726562 -68.210938 30.511719 -82.734375 40.925781 -82.734375 C 51.78125 -82.734375 54.421875 -65.132812 54.421875 -48.996094 C 54.421875 -33.003906 52.371094 -15.988281 41.21875 -15.988281 C 29.339844 -15.988281 27.578125 -34.179688 27.578125 -45.621094 Z M 27.578125 -45.621094 "/></g></g></g></g></g></svg>