<svg xmlns="http://www.w3.org/2000/svg" xmlns:xlink="http://www.w3.org/1999/xlink" width="816" zoomAndPan="magnify" viewBox="0 0 612 791.999994" height="1056" preserveAspectRatio="xMidYMid meet" version="1.0"><defs><g/><clipPath id="d68c879840"><path d="M 142.082031 232.082031 L 469.917969 232.082031 L 469.917969 559.917969 L 142.082031 559.917969 Z M 142.082031 232.082031 " clip-rule="nonzero"/></clipPath><clipPath id="187f292e8f"><path d="M 306 232.082031 C 215.46875 232.082031 142.082031 305.46875 142.082031 396 C 142.082031 486.53125 215.46875 559.917969 306 559.917969 C 396.53125 559.917969 469.917969 486.53125 469.917969 396 C 469.917969 305.46875 396.53125 232.082031 306 232.082031 Z M 306 232.082031 " clip-rule="nonzero"/></clipPath><clipPath id="c84e36e146"><path d="M 0.0820312 0.0820312 L 327.917969 0.0820312 L 327.917969 327.917969 L 0.0820312 327.917969 Z M 0.0820312 0.0820312 " clip-rule="nonzero"/></clipPath><clipPath id="c39dbaa87a"><path d="M 164 0.0820312 C 73.46875 0.0820312 0.0820312 73.46875 0.0820312 164 C 0.0820312 254.53125 73.46875 327.917969 164 327.917969 C 254.53125 327.917969 327.917969 254.53125 327.917969 164 C 327.917969 73.46875 254.53125 0.0820312 164 0.0820312 Z M 164 0.0820312 " clip-rule="nonzero"/></clipPath><clipPath id="4ae98f5a41"><rect x="0" width="328" y="0" height="328"/></clipPath><clipPath id="a1e64d0af7"><rect x="0" width="84" y="0" height="148"/></clipPath></defs><rect x="-61.2" width="734.4" fill="#ffffff" y="-79.199999" height="950.399992" fill-opacity="1"/><rect x="-61.2" width="734.4" fill="#fcfaff" y="-79.199999" height="950.399992" fill-opacity="1"/><g clip-path="url(#d68c879840)"><g clip-path="url(#187f292e8f)"><g transform="matrix(1, 0, 0, 1, 142, 232)"><g clip-path="url(#4ae98f5a41)"><g clip-path="url(#c84e36e146)"><g clip-path="url(#c39dbaa87a)"><path fill="#1f3065" d="M 0.0820312 0.0820312 L 327.917969 0.0820312 L 327.917969 327.917969 L 0.0820312 327.917969 Z M 0.0820312 0.0820312 " fill-opacity="1" fill-rule="nonzero"/></g></g></g></g></g></g><g transform="matrix(1, 0, 0, 1, 264, 320)"><g clip-path="url(#a1e64d0af7)"><g fill="#fcfaff" fill-opacity="1"><g transform="translate(0.778495, 111.13313)"><g><path d="M 12.910156 -69.386719 C 27.136719 -69.679688 28.457031 -70.265625 33.886719 -72.613281 L 33.886719 0 L 57.503906 0 L 57.503906 -99.457031 L 39.605469 -99.457031 C 37.699219 -95.496094 35.792969 -91.683594 29.339844 -88.308594 C 23.910156 -85.523438 18.921875 -85.082031 12.910156 -84.640625 Z M 12.910156 -69.386719 "/></g></g></g></g></g></svg>