<svg xmlns="http://www.w3.org/2000/svg" xmlns:xlink="http://www.w3.org/1999/xlink" width="816" zoomAndPan="magnify" viewBox="0 0 612 791.999994" height="1056" preserveAspectRatio="xMidYMid meet" version="1.0"><defs><g/><clipPath id="5a75aa0890"><path d="M 142.082031 232.082031 L 469.917969 232.082031 L 469.917969 559.917969 L 142.082031 559.917969 Z M 142.082031 232.082031 " clip-rule="nonzero"/></clipPath><clipPath id="0b35167796"><path d="M 306 232.082031 C 215.46875 232.082031 142.082031 305.46875 142.082031 396 C 142.082031 486.53125 215.46875 559.917969 306 559.917969 C 396.53125 559.917969 469.917969 486.53125 469.917969 396 C 469.917969 305.46875 396.53125 232.082031 306 232.082031 Z M 306 232.082031 " clip-rule="nonzero"/></clipPath><clipPath id="79200b09fb"><path d="M 0.0820312 0.0820312 L 327.917969 0.0820312 L 327.917969 327.917969 L 0.0820312 327.917969 Z M 0.0820312 0.0820312 " clip-rule="nonzero"/></clipPath><clipPath id="53a44ce0ee"><path d="M 164 0.0820312 C 73.46875 0.0820312 0.0820312 73.46875 0.0820312 164 C 0.0820312 254.53125 73.46875 327.917969 164 327.917969 C 254.53125 327.917969 327.917969 254.53125 327.917969 164 C 327.917969 73.46875 254.53125 0.0820312 164 0.0820312 Z M 164 0.0820312 " clip-rule="nonzero"/></clipPath><clipPath id="b6d2715ba5"><rect x="0" width="328" y="0" height="328"/></clipPath><clipPath id="54589e81ea"><rect x="0" width="84" y="0" height="148"/></clipPath></defs><rect x="-61.2" width="734.4" fill="#ffffff" y="-79.199999" height="950.399992" fill-opacity="1"/><rect x="-61.2" width="734.4" fill="#fcfaff" y="-79.199999" height="950.399992" fill-opacity="1"/><g clip-path="url(#5a75aa0890)"><g clip-path="url(#0b35167796)"><g transform="matrix(1, 0, 0, 1, 142, 232)"><g clip-path="url(#b6d2715ba5)"><g clip-path="url(#79200b09fb)"><g clip-path="url(#53a44ce0ee)"><path fill="#1f3065" d="M 0.0820312 0.0820312 L 327.917969 0.0820312 L 327.917969 327.917969 L 0.0820312 327.917969 Z M 0.0820312 0.0820312 " fill-opacity="1" fill-rule="nonzero"/></g></g></g></g></g></g><g transform="matrix(1, 0, 0, 1, 264, 320)"><g clip-path="url(#54589e81ea)"><g fill="#fcfaff" fill-opacity="1"><g transform="translate(0.778495, 111.13313)"><g><path d="M 75.546875 -74.375 C 74.226562 -81.707031 70.117188 -101.363281 44.886719 -101.363281 C 12.46875 -101.363281 6.160156 -74.375 6.160156 -47.382812 C 6.160156 -9.535156 24.351562 1.613281 41.808594 1.613281 C 62.785156 1.613281 77.453125 -11.148438 77.453125 -33.300781 C 77.453125 -55.304688 62.050781 -63.8125 50.023438 -63.8125 C 38.726562 -63.8125 30.953125 -57.648438 28.457031 -52.222656 C 28.898438 -64.691406 30.21875 -83.613281 42.980469 -83.613281 C 48.261719 -83.613281 52.074219 -79.507812 52.074219 -73.640625 L 52.074219 -71.734375 Z M 31.390625 -31.6875 C 31.390625 -41.660156 36.378906 -46.941406 43.128906 -46.941406 C 54.421875 -46.941406 55.007812 -35.5 55.007812 -31.6875 C 55.007812 -28.898438 55.007812 -15.695312 42.835938 -15.695312 C 32.710938 -15.695312 31.390625 -26.257812 31.390625 -31.6875 Z M 31.390625 -31.6875 "/></g></g></g></g></g></svg>