<svg xmlns="http://www.w3.org/2000/svg" xmlns:xlink="http://www.w3.org/1999/xlink" width="816" zoomAndPan="magnify" viewBox="0 0 612 791.999994" height="1056" preserveAspectRatio="xMidYMid meet" version="1.0"><defs><filter x="0%" y="0%" width="100%" height="100%" id="4d649fd7a3"><feColorMatrix values="0 0 0 0 1 0 0 0 0 1 0 0 0 0 1 0 0 0 1 0" color-interpolation-filters="sRGB"/></filter><mask id="b31229fe82"><g filter="url(#4d649fd7a3)"><rect x="-61.2" width="734.4" fill="#000000" y="-79.199999" height="950.399992" fill-opacity="0.79"/></g></mask><clipPath id="eb4e9a8045"><path d="M 0.785156 0.320312 L 220.679688 0.320312 L 220.679688 232.371094 L 0.785156 232.371094 Z M 0.785156 0.320312 " clip-rule="nonzero"/></clipPath><clipPath id="6f661b2c2c"><rect x="0" width="221" y="0" height="233"/></clipPath></defs><rect x="-61.2" width="734.4" fill="#ffffff" y="-79.199999" height="950.399992" fill-opacity="1"/><rect x="-61.2" width="734.4" fill="#fcfaff" y="-79.199999" height="950.399992" fill-opacity="1"/><g mask="url(#b31229fe82)"><g transform="matrix(1, 0, 0, 1, 195, 280)"><g clip-path="url(#6f661b2c2c)"><g clip-path="url(#eb4e9a8045)"><path fill="#737373" d="M 118.207031 7.703125 L 118.207031 224.921875 C 118.207031 227.859375 116.371094 230.484375 113.53125 231.609375 C 112.589844 231.980469 111.605469 232.164062 110.628906 232.164062 C 108.660156 232.164062 106.730469 231.425781 105.277344 230.039062 L 47.707031 175.019531 L 9.585938 175.019531 C 4.746094 175.019531 0.820312 171.09375 0.820312 166.25 L 0.820312 66.375 C 0.820312 61.53125 4.746094 57.605469 9.585938 57.605469 L 47.707031 57.605469 L 105.277344 2.585938 C 107.453125 0.507812 110.691406 -0.109375 113.53125 1.015625 C 116.371094 2.140625 118.207031 4.765625 118.207031 7.703125 Z M 143.5625 162.605469 C 153.59375 159.785156 162.289062 153.945312 168.707031 145.722656 C 175.121094 137.5 178.632812 127.707031 178.859375 117.398438 C 179.34375 95.445312 164.777344 75.964844 143.429688 70.019531 C 141.46875 69.472656 139.433594 70.621094 138.886719 72.582031 C 138.339844 74.542969 139.488281 76.578125 141.449219 77.121094 C 159.546875 82.164062 171.898438 98.65625 171.488281 117.234375 C 171.09375 134.925781 158.792969 150.664062 141.566406 155.503906 C 139.605469 156.054688 138.464844 158.089844 139.015625 160.050781 C 139.472656 161.679688 140.953125 162.742188 142.5625 162.742188 C 142.894531 162.742188 143.230469 162.699219 143.5625 162.605469 Z M 155.683594 202.414062 C 174.253906 196.992188 190.296875 185.984375 202.082031 170.574219 C 213.859375 155.171875 220.242188 136.871094 220.535156 117.644531 C 221.15625 77.625 194.644531 41.671875 156.070312 30.214844 C 154.121094 29.636719 152.066406 30.75 151.488281 32.699219 C 150.90625 34.652344 152.019531 36.707031 153.972656 37.285156 C 189.390625 47.804688 213.730469 80.800781 213.164062 117.53125 C 212.890625 135.164062 207.035156 151.957031 196.222656 166.09375 C 185.402344 180.246094 170.667969 190.359375 153.617188 195.335938 C 151.660156 195.90625 150.539062 197.953125 151.109375 199.90625 C 151.578125 201.519531 153.050781 202.5625 154.648438 202.5625 C 154.988281 202.5625 155.335938 202.515625 155.683594 202.414062 Z M 155.683594 202.414062 " fill-opacity="1" fill-rule="nonzero"/></g></g></g></g></svg>