<svg width="707" height="697" viewBox="0 0 707 697" fill="none" xmlns="http://www.w3.org/2000/svg">
<rect width="707" height="697" fill="#1E1E1E"/>
<mask id="mask0_0_1" style="mask-type:luminance" maskUnits="userSpaceOnUse" x="37" y="25" width="652" height="647">
<path d="M37 25H689V672H37V25Z" fill="white"/>
</mask>
<g mask="url(#mask0_0_1)">
<path d="M625.492 608.987L407.123 535.497L222.32 672.352L225.272 443.551L37.007 311.432L257.196 243.508L325.645 25.007L458.786 211.829L689.355 208.899L551.442 392.285L625.492 608.987Z" fill="#FFCC00"/>
</g>
<path d="M270.573 236.034L327.414 45.9896L334.849 73.5279L270.573 236.034Z" fill="#FFE680"/>
<path d="M245.744 257.398L54.2233 313.796L81.9744 321.175L245.744 257.398Z" fill="#FFE680"/>
<path d="M246.062 314.472L245.833 338.692H223.223V361.128H245.167V384.224H268.442V361.017H288.469L288.706 338.816L267.539 338.582L267.776 314.281L246.062 314.472Z" fill="black" stroke="black" stroke-width="0.984562"/>
<path d="M298.553 307.292L337.742 348.096L299.737 386.676L329.441 416.153L366.574 378.439L404.142 415.287L434.719 384.944L397.003 347.949L433.802 308.826L404.719 279.35L366.115 319.64L326.822 278.733L298.553 307.292Z" fill="black" stroke="black" stroke-width="1.83739"/>
<path d="M489.741 270.547C473.546 270.642 457.01 273.66 457.01 273.66V418.884L500.964 419.324V363.969C500.964 363.969 532.318 354.571 539.79 341.724C546.671 329.896 545.058 313.378 539.79 300.758C534.863 288.96 524.38 278.549 512.491 273.66C506.616 271.252 498.227 270.496 489.741 270.547ZM485.405 286.669C485.405 286.669 500.483 287.858 506.172 292.19C512.86 297.285 519.12 311.689 519.12 320.059C519.12 325.146 515.332 329.97 511.44 333.273C504.456 339.191 485.716 343.082 485.716 343.082L485.405 286.669Z" fill="black" stroke="black" stroke-width="1.83739"/>
</svg>
