<svg xmlns="http://www.w3.org/2000/svg" xmlns:xlink="http://www.w3.org/1999/xlink" width="816" zoomAndPan="magnify" viewBox="0 0 612 791.999994" height="1056" preserveAspectRatio="xMidYMid meet" version="1.0"><defs><clipPath id="7adc938483"><path d="M 186.625 224.125 L 424 224.125 L 424 567 L 186.625 567 Z M 186.625 224.125 " clip-rule="nonzero"/></clipPath></defs><rect x="-61.2" width="734.4" fill="#ffffff" y="-79.199999" height="950.399992" fill-opacity="1"/><rect x="-61.2" width="734.4" fill="#fcfaff" y="-79.199999" height="950.399992" fill-opacity="1"/><g clip-path="url(#7adc938483)"><path fill="#000000" d="M 211.832031 565.347656 C 208.371094 564.753906 201.371094 559.695312 196.109375 553.980469 L 186.625 543.6875 L 186.625 522.796875 C 186.625 463.117188 194.824219 288.878906 197.890625 283.40625 C 200.25 279.191406 211.664062 274.738281 299.066406 243.921875 C 329.523438 233.183594 357.132812 224.398438 360.414062 224.398438 C 363.792969 224.398438 370.25 227.707031 375.28125 232.015625 C 384.246094 239.691406 399.984375 245.367188 412.296875 245.367188 C 424.878906 245.367188 425.121094 246.953125 422.167969 310.082031 C 420.6875 341.761719 418.289062 393.371094 416.835938 424.765625 C 415.078125 462.871094 413.167969 483.90625 411.09375 488.042969 C 409.058594 492.097656 404.152344 495.652344 396.875 498.339844 C 353.984375 514.167969 249.46875 556.683594 244.054688 560.503906 C 237.382812 565.214844 223.339844 567.324219 211.828125 565.347656 Z M 238.671875 551.746094 L 250.675781 548.257812 L 250.675781 495.367188 L 235.082031 496.480469 C 223.800781 497.285156 216.792969 496.515625 209.75 493.699219 C 204.398438 491.554688 199.480469 490.339844 198.824219 490.996094 C 196.953125 492.867188 195.167969 535.53125 196.703125 541.621094 C 198.484375 548.679688 208.976562 555.09375 218.875 555.171875 C 223.160156 555.203125 232.070312 553.664062 238.671875 551.742188 Z M 330.5625 514.304688 C 368.609375 499.484375 400.65625 486.453125 401.785156 485.347656 C 403.714844 483.453125 406.585938 438.121094 412.613281 314.457031 C 414.042969 285.179688 414.777344 260.796875 414.246094 260.269531 C 413.71875 259.738281 381.414062 269.085938 342.457031 281.042969 L 271.636719 302.78125 L 270.105469 318.097656 C 268.667969 332.484375 266.640625 367.707031 261.03125 476.015625 C 259.734375 501.003906 258.066406 525.902344 257.320312 531.351562 C 256.398438 538.105469 256.828125 541.253906 258.679688 541.253906 C 260.171875 541.253906 292.519531 529.125 330.5625 514.304688 Z M 246.269531 483.957031 C 251.679688 482.503906 252.3125 477.824219 255.648438 414.660156 L 257.226562 384.757812 L 245.796875 386.644531 C 229.648438 389.3125 220.207031 388.453125 209.988281 383.394531 L 201.109375 379 L 199.429688 424.859375 C 198.507812 450.082031 198.414062 472.808594 199.226562 475.363281 C 200.039062 477.917969 203.035156 481.136719 205.890625 482.515625 C 211.433594 485.191406 238.117188 486.140625 246.269531 483.953125 Z M 245.746094 375.445312 C 251.019531 373.945312 255.992188 372.113281 256.800781 371.367188 C 257.613281 370.621094 259.003906 354.929688 259.894531 336.492188 C 261.378906 305.8125 261.1875 303.101562 257.644531 304.460938 C 255.511719 305.277344 248.035156 306.621094 241.027344 307.445312 C 230.515625 308.679688 226.265625 308 216.777344 303.550781 C 210.449219 300.585938 204.84375 298.601562 204.328125 299.140625 C 203.808594 299.675781 203.03125 314.910156 202.601562 332.992188 C 201.769531 367.863281 202.714844 371.644531 213.328125 375.949219 C 220.292969 378.773438 234.816406 378.546875 245.746094 375.441406 Z M 306.953125 271.804688 C 354.777344 253.425781 377.609375 243.558594 377.609375 241.265625 C 377.609375 238.996094 376.265625 238.394531 373.535156 239.441406 C 285.988281 273.035156 229.234375 295.386719 227.5 296.953125 C 220.28125 303.46875 244.453125 295.820312 306.953125 271.804688 Z M 333.9375 275.175781 C 369.484375 263.304688 398.570312 252.789062 398.570312 251.808594 C 398.570312 246.402344 376.109375 252.292969 324.628906 271.207031 C 292.921875 282.855469 265.40625 293.308594 263.484375 294.433594 C 252.316406 300.980469 276.300781 294.425781 333.9375 275.175781 Z M 278.621094 268.660156 L 349.078125 242.558594 C 359.648438 238.636719 368.292969 234.449219 368.292969 233.25 C 368.292969 232.054688 365.933594 231.8125 363.054688 232.714844 C 270.847656 261.578125 207.839844 282.675781 206.273438 285.214844 C 205.492188 286.476562 206.082031 288.992188 207.585938 290.800781 C 209.925781 293.621094 211.539062 293.632812 218.851562 290.863281 C 223.542969 289.085938 250.441406 279.09375 278.621094 268.660156 Z M 278.621094 268.660156 " fill-opacity="1" fill-rule="nonzero"/></g></svg>