<svg xmlns="http://www.w3.org/2000/svg" xmlns:xlink="http://www.w3.org/1999/xlink" width="816" zoomAndPan="magnify" viewBox="0 0 612 791.999994" height="1056" preserveAspectRatio="xMidYMid meet" version="1.0"><defs><clipPath id="08ecb078ef"><path d="M 131.949219 224.125 L 479.949219 224.125 L 479.949219 567.625 L 131.949219 567.625 Z M 131.949219 224.125 " clip-rule="nonzero"/></clipPath></defs><rect x="-61.2" width="734.4" fill="#ffffff" y="-79.199999" height="950.399992" fill-opacity="1"/><rect x="-61.2" width="734.4" fill="#fcfaff" y="-79.199999" height="950.399992" fill-opacity="1"/><g clip-path="url(#08ecb078ef)"><path fill="#131313" d="M 338.867188 425.203125 C 338.621094 425.148438 338.378906 425.308594 338.324219 425.558594 C 338.308594 425.632812 338.3125 425.710938 338.332031 425.785156 C 343.441406 445.183594 340.984375 463.304688 330.960938 480.148438 C 327.929688 485.238281 323.296875 491.273438 318.695312 495.667969 C 302.453125 511.195312 286.335938 526.054688 265.671875 545.523438 C 242.730469 567.121094 210.074219 573.472656 181.15625 561.757812 C 156.621094 551.828125 138.203125 530.175781 133.226562 504.082031 C 130.332031 488.878906 132.339844 473.675781 139.25 458.472656 C 141.75 452.960938 145.683594 446.78125 151.050781 439.9375 C 153.832031 436.390625 158.898438 431.109375 166.257812 424.085938 C 183.90625 407.230469 198.957031 392.914062 211.417969 381.140625 C 226.53125 366.851562 244.574219 360.378906 265.546875 361.730469 C 268.902344 361.949219 272.257812 362.46875 275.617188 363.289062 C 275.925781 363.371094 276.242188 363.183594 276.324219 362.871094 C 276.34375 362.792969 276.347656 362.710938 276.332031 362.628906 C 271.515625 334.222656 282.0625 310.757812 302.453125 291.609375 C 324.808594 270.605469 342.078125 254.21875 354.265625 242.445312 C 357.265625 239.554688 361.5 236.664062 366.964844 233.769531 C 387.574219 222.863281 408.574219 221.265625 429.964844 228.976562 C 443.511719 233.859375 454.96875 242.398438 464.332031 254.59375 C 475.742188 269.464844 480.898438 286.617188 479.800781 306.054688 C 479.253906 315.75 477.429688 324.195312 474.332031 331.398438 C 471.589844 337.769531 467.839844 344.222656 463.078125 350.765625 C 460.421875 354.433594 455.28125 359.851562 447.667969 367.023438 C 424.277344 389.058594 411.257812 401.367188 408.609375 403.945312 C 402.558594 409.851562 397.203125 414.191406 392.550781 416.960938 C 376.464844 426.53125 358.570312 429.277344 338.867188 425.203125 Z M 339.425781 414.96875 C 358.308594 420.695312 378.140625 416.503906 393.8125 404.34375 C 395.679688 402.894531 398.105469 400.761719 401.082031 397.945312 C 426.761719 373.6875 442.011719 359.238281 446.824219 354.589844 C 460.355469 341.511719 468.910156 324.785156 470.140625 306.308594 C 473.707031 252.695312 416.789062 215.542969 369.527344 243.242188 C 365.324219 245.703125 360.347656 249.679688 354.609375 255.175781 C 339.824219 269.308594 323.613281 284.742188 305.984375 301.480469 C 299.664062 307.476562 294.496094 314.648438 290.480469 322.996094 C 280 344.789062 284.066406 370.347656 299.136719 388.894531 C 299.40625 389.226562 299.890625 389.28125 300.21875 389.015625 C 300.234375 389.003906 300.25 388.988281 300.265625 388.976562 L 318.328125 371.703125 C 318.453125 371.585938 318.46875 371.390625 318.363281 371.25 C 308.242188 357.304688 307.761719 343.199219 316.929688 328.929688 C 319.160156 325.445312 322.363281 322.316406 325.242188 319.59375 C 344.902344 301.121094 360.148438 286.730469 370.976562 276.433594 C 376.808594 270.882812 381.484375 267.144531 385.007812 265.21875 C 406.320312 253.558594 432.519531 263.101562 442.269531 284.847656 C 448.5 298.734375 445.933594 315.644531 436.550781 327.519531 C 435.191406 329.234375 432.523438 331.976562 428.542969 335.75 C 409.40625 353.921875 393.785156 368.675781 381.683594 380.015625 C 374.878906 386.398438 367.996094 390.128906 361.03125 391.207031 C 360.476562 391.292969 359.992188 391.625 359.710938 392.105469 C 357.5 395.902344 355.152344 398.996094 352.660156 401.386719 C 344.359375 409.363281 339.890625 413.664062 339.253906 414.285156 C 339.09375 414.445312 339.09375 414.703125 339.253906 414.863281 C 339.300781 414.914062 339.359375 414.949219 339.425781 414.96875 Z M 321.78125 338.71875 C 322.617188 338.621094 323.910156 338.292969 325.664062 337.730469 C 344.1875 331.832031 362.796875 345.277344 366.113281 363.585938 C 367.011719 368.585938 366.417969 374.664062 365.496094 379.695312 C 365.441406 379.972656 365.621094 380.242188 365.898438 380.300781 C 366.027344 380.324219 366.160156 380.300781 366.269531 380.230469 C 368.972656 378.597656 371.355469 376.808594 373.414062 374.855469 C 393.535156 355.789062 410.101562 340.191406 423.109375 328.0625 C 427.082031 324.367188 429.820312 321.25 431.332031 318.714844 C 442.449219 300.054688 433.316406 277.410156 413.40625 271.070312 C 405.757812 268.640625 397.75 269.472656 389.382812 273.5625 C 387.414062 274.519531 385.816406 275.578125 384.585938 276.738281 C 363.675781 296.390625 344.667969 314.300781 327.566406 330.464844 C 325.167969 332.734375 323.125 335.3125 321.4375 338.195312 C 321.34375 338.367188 321.40625 338.582031 321.574219 338.675781 C 321.636719 338.710938 321.710938 338.726562 321.78125 338.71875 Z M 320.003906 351.414062 C 320.503906 355.4375 321.785156 359.242188 323.84375 362.824219 C 324.015625 363.132812 324.347656 363.316406 324.695312 363.300781 C 329.003906 363.132812 331.042969 365.210938 330.8125 369.527344 C 330.683594 372.0625 329.878906 374.035156 328.398438 375.4375 C 315.414062 387.75 301.183594 401.207031 285.707031 415.808594 C 282.074219 419.25 273.097656 421.082031 273.953125 413.121094 C 274.015625 412.570312 273.753906 412.03125 273.28125 411.734375 C 269.300781 409.238281 265.359375 407.742188 261.457031 407.25 C 260.785156 407.15625 260.121094 407.496094 259.78125 408.101562 C 252.503906 421.273438 256.117188 439.933594 271.664062 444.863281 C 280.410156 447.644531 288.667969 445.261719 296.550781 440.617188 C 298.519531 439.464844 301.847656 436.628906 306.539062 432.113281 C 317.503906 421.570312 329.390625 410.308594 342.191406 398.320312 C 346.816406 394.003906 349.859375 390.621094 351.316406 388.179688 C 357.933594 377.132812 359.425781 363.925781 350.972656 354.023438 C 343.113281 344.8125 330.300781 343.957031 320.390625 350.5625 C 320.113281 350.75 319.960938 351.082031 320.003906 351.414062 Z M 328.101562 425.875 C 327.972656 425.519531 327.578125 425.339844 327.21875 425.472656 C 327.128906 425.503906 327.042969 425.558594 326.976562 425.625 L 305.925781 445.742188 C 305.710938 445.949219 305.566406 446.21875 305.515625 446.515625 C 304.109375 455.609375 300.21875 463.097656 293.839844 468.980469 C 285.328125 476.835938 278.425781 483.296875 273.132812 488.367188 C 270.566406 490.820312 261.273438 499.613281 245.261719 514.746094 C 238.84375 520.804688 233.980469 524.679688 230.667969 526.371094 C 194.800781 544.667969 153.101562 506.6875 173.523438 469.902344 C 175.914062 465.605469 178.066406 462.546875 179.972656 460.726562 C 187.503906 453.542969 205.183594 436.875 233.015625 410.722656 C 238.785156 405.292969 243.382812 401.828125 246.808594 400.328125 C 259.234375 394.859375 270.898438 397.742188 281.320312 406.085938 C 281.570312 406.28125 281.921875 406.269531 282.152344 406.054688 L 291.890625 396.738281 C 292.175781 396.464844 292.210938 396.023438 291.972656 395.714844 C 287.113281 389.523438 283.265625 382.949219 280.433594 375.996094 C 280.171875 375.351562 279.652344 374.84375 279 374.59375 C 264.5 369.1875 246.820312 369.917969 233.609375 377.113281 C 227.183594 380.617188 223.058594 383.285156 221.238281 385.117188 C 220.8125 385.539062 217.238281 388.898438 210.519531 395.191406 C 194.808594 409.902344 180.898438 423.132812 168.785156 434.890625 C 162.710938 440.78125 158.289062 445.714844 155.515625 449.691406 C 151.398438 455.589844 148.234375 461.398438 146.015625 467.125 C 138.066406 487.707031 141.3125 510.488281 153.945312 528.535156 C 161.855469 539.835938 172.546875 548.136719 186.019531 553.433594 C 210.964844 563.238281 237.730469 557.375 257.628906 539.761719 C 262.496094 535.449219 278.945312 520.046875 306.972656 493.546875 C 313.222656 487.644531 317.359375 483.207031 319.386719 480.238281 C 323.847656 473.71875 326.800781 468.433594 328.25 464.378906 C 332.90625 451.339844 332.855469 438.503906 328.101562 425.875 Z M 293.648438 452.925781 C 276.800781 459.769531 256.183594 453.222656 249.078125 435.632812 C 245.765625 427.433594 245.480469 419.261719 248.222656 411.109375 C 248.285156 410.910156 248.175781 410.699219 247.980469 410.636719 C 247.871094 410.601562 247.757812 410.617188 247.664062 410.675781 C 245.871094 411.867188 243.890625 413.449219 241.71875 415.421875 C 234.109375 422.351562 216.382812 439.078125 188.535156 465.597656 C 181.03125 472.746094 176.507812 482.925781 177.910156 493.273438 C 179.140625 502.40625 185.8125 512.164062 193.582031 516.707031 C 206.058594 524.007812 218.289062 523.546875 230.269531 515.316406 C 232.320312 513.914062 236.59375 510.078125 243.085938 503.808594 C 247.59375 499.449219 251.761719 495.507812 255.578125 491.976562 C 264.703125 483.550781 268.828125 479.375 278.066406 470.824219 C 285.421875 464.027344 290.21875 459.53125 294.089844 453.472656 C 294.199219 453.296875 294.148438 453.066406 293.976562 452.957031 C 293.878906 452.890625 293.753906 452.878906 293.648438 452.925781 Z M 293.648438 452.925781 " fill-opacity="1" fill-rule="nonzero"/></g></svg>