<svg xmlns="http://www.w3.org/2000/svg" xmlns:xlink="http://www.w3.org/1999/xlink" width="816" zoomAndPan="magnify" viewBox="0 0 612 791.999994" height="1056" preserveAspectRatio="xMidYMid meet" version="1.0"><defs><clipPath id="1cba1a5a8f"><path d="M 134.125 224.125 L 477.625 224.125 L 477.625 567.625 L 134.125 567.625 Z M 134.125 224.125 " clip-rule="nonzero"/></clipPath><clipPath id="e54e264fa0"><path d="M 277 224.125 L 335 224.125 L 335 253 L 277 253 Z M 277 224.125 " clip-rule="nonzero"/></clipPath><clipPath id="8d05d892fa"><path d="M 449 367 L 477.625 367 L 477.625 425 L 449 425 Z M 449 367 " clip-rule="nonzero"/></clipPath><clipPath id="150b037e56"><path d="M 134.125 367 L 163 367 L 163 425 L 134.125 425 Z M 134.125 367 " clip-rule="nonzero"/></clipPath><clipPath id="370b0ea19a"><path d="M 277 539 L 335 539 L 335 567.625 L 277 567.625 Z M 277 539 " clip-rule="nonzero"/></clipPath></defs><rect x="-61.2" width="734.4" fill="#ffffff" y="-79.199999" height="950.399992" fill-opacity="1"/><rect x="-61.2" width="734.4" fill="#fcfaff" y="-79.199999" height="950.399992" fill-opacity="1"/><g clip-path="url(#1cba1a5a8f)"><path fill="#ffd524" d="M 449 367.25 L 449 310 L 420.375 310 L 420.375 281.375 L 391.75 281.375 L 391.75 252.75 L 334.5 252.75 L 334.5 224.125 L 277.25 224.125 L 277.25 252.75 L 220 252.75 L 220 281.375 L 191.375 281.375 L 191.375 310 L 162.75 310 L 162.75 367.25 L 134.125 367.25 L 134.125 424.5 L 162.75 424.5 L 162.75 481.75 L 191.375 481.75 L 191.375 510.375 L 220 510.375 L 220 539 L 277.25 539 L 277.25 567.625 L 334.5 567.625 L 334.5 539 L 391.75 539 L 391.75 510.375 L 420.375 510.375 L 420.375 481.75 L 449 481.75 L 449 424.5 L 477.625 424.5 L 477.625 367.25 Z M 449 367.25 " fill-opacity="1" fill-rule="nonzero"/><path fill="#fdad16" d="M 449 367.25 L 449 310 L 420.375 310 L 420.375 281.375 L 391.75 281.375 L 391.75 252.75 L 334.5 252.75 L 334.5 224.125 L 277.25 224.125 L 277.25 252.75 L 220 252.75 L 220 281.375 L 191.375 281.375 L 191.375 310 L 162.75 310 L 162.75 367.25 L 134.125 367.25 L 134.125 424.5 L 162.75 424.5 L 162.75 481.75 L 191.375 481.75 L 191.375 510.375 L 220 510.375 L 220 539 L 277.25 539 L 277.25 567.625 L 334.5 567.625 L 334.5 539 L 391.75 539 L 391.75 510.375 L 420.375 510.375 L 420.375 481.75 L 449 481.75 L 449 424.5 L 477.625 424.5 L 477.625 367.25 Z M 449 367.25 " fill-opacity="1" fill-rule="nonzero"/></g><path fill="#ffe24c" d="M 191.375 281.375 L 220 281.375 L 220 310 L 191.375 310 Z M 191.375 281.375 " fill-opacity="1" fill-rule="nonzero"/><path fill="#ffe24c" d="M 220 252.75 L 277.25 252.75 L 277.25 281.375 L 220 281.375 Z M 220 252.75 " fill-opacity="1" fill-rule="nonzero"/><g clip-path="url(#e54e264fa0)"><path fill="#ffe24c" d="M 277.25 224.125 L 334.5 224.125 L 334.5 252.75 L 277.25 252.75 Z M 277.25 224.125 " fill-opacity="1" fill-rule="nonzero"/></g><path fill="#ffe24c" d="M 334.5 252.75 L 391.75 252.75 L 391.75 281.375 L 334.5 281.375 Z M 334.5 252.75 " fill-opacity="1" fill-rule="nonzero"/><path fill="#ffe24c" d="M 391.75 281.375 L 420.375 281.375 L 420.375 310 L 391.75 310 Z M 391.75 281.375 " fill-opacity="1" fill-rule="nonzero"/><path fill="#ffe24c" d="M 420.375 310 L 449 310 L 449 367.25 L 420.375 367.25 Z M 420.375 310 " fill-opacity="1" fill-rule="nonzero"/><g clip-path="url(#8d05d892fa)"><path fill="#ffe24c" d="M 449 367.25 L 477.625 367.25 L 477.625 424.5 L 449 424.5 Z M 449 367.25 " fill-opacity="1" fill-rule="nonzero"/></g><path fill="#ffe24c" d="M 420.375 424.5 L 449 424.5 L 449 481.75 L 420.375 481.75 Z M 420.375 424.5 " fill-opacity="1" fill-rule="nonzero"/><path fill="#ffe24c" d="M 391.75 481.75 L 420.375 481.75 L 420.375 510.375 L 391.75 510.375 Z M 391.75 481.75 " fill-opacity="1" fill-rule="nonzero"/><path fill="#ffe24c" d="M 191.375 338.625 L 191.375 453.125 L 220 453.125 L 220 481.75 L 248.625 481.75 L 248.625 424.5 L 220 424.5 L 220 367.25 L 248.625 367.25 L 248.625 310 L 220 310 L 220 338.625 Z M 191.375 338.625 " fill-opacity="1" fill-rule="nonzero"/><path fill="#ffe24c" d="M 248.625 481.75 L 363.125 481.75 L 363.125 510.375 L 248.625 510.375 Z M 248.625 481.75 " fill-opacity="1" fill-rule="nonzero"/><g clip-path="url(#150b037e56)"><path fill="#da531f" d="M 134.125 367.25 L 162.75 367.25 L 162.75 424.5 L 134.125 424.5 Z M 134.125 367.25 " fill-opacity="1" fill-rule="nonzero"/></g><path fill="#da531f" d="M 162.75 424.5 L 191.375 424.5 L 191.375 481.75 L 162.75 481.75 Z M 162.75 424.5 " fill-opacity="1" fill-rule="nonzero"/><path fill="#da531f" d="M 191.375 481.75 L 220 481.75 L 220 510.375 L 191.375 510.375 Z M 191.375 481.75 " fill-opacity="1" fill-rule="nonzero"/><path fill="#da531f" d="M 220 510.375 L 277.25 510.375 L 277.25 539 L 220 539 Z M 220 510.375 " fill-opacity="1" fill-rule="nonzero"/><g clip-path="url(#370b0ea19a)"><path fill="#da531f" d="M 277.25 539 L 334.5 539 L 334.5 567.625 L 277.25 567.625 Z M 277.25 539 " fill-opacity="1" fill-rule="nonzero"/></g><path fill="#da531f" d="M 334.5 510.375 L 391.75 510.375 L 391.75 539 L 334.5 539 Z M 334.5 510.375 " fill-opacity="1" fill-rule="nonzero"/><path fill="#da531f" d="M 162.75 310 L 191.375 310 L 191.375 367.25 L 162.75 367.25 Z M 162.75 310 " fill-opacity="1" fill-rule="nonzero"/><path fill="#da531f" d="M 248.625 281.375 L 363.125 281.375 L 363.125 310 L 248.625 310 Z M 248.625 281.375 " fill-opacity="1" fill-rule="nonzero"/><path fill="#da531f" d="M 391.75 338.625 L 391.75 310 L 363.125 310 L 363.125 367.25 L 391.75 367.25 L 391.75 424.5 L 363.125 424.5 L 363.125 481.75 L 391.75 481.75 L 391.75 453.125 L 420.375 453.125 L 420.375 338.625 Z M 391.75 338.625 " fill-opacity="1" fill-rule="nonzero"/><path fill="#ef7d30" d="M 248.625 367.25 L 277.25 367.25 L 277.25 424.5 L 248.625 424.5 Z M 248.625 367.25 " fill-opacity="1" fill-rule="nonzero"/><path fill="#ef7d30" d="M 277.25 424.5 L 334.5 424.5 L 334.5 453.125 L 277.25 453.125 Z M 277.25 424.5 " fill-opacity="1" fill-rule="nonzero"/><path fill="#ffd524" d="M 277.25 338.625 L 334.5 338.625 L 334.5 367.25 L 277.25 367.25 Z M 277.25 338.625 " fill-opacity="1" fill-rule="nonzero"/><path fill="#ffd524" d="M 334.5 367.25 L 363.125 367.25 L 363.125 424.5 L 334.5 424.5 Z M 334.5 367.25 " fill-opacity="1" fill-rule="nonzero"/></svg>