<svg xmlns="http://www.w3.org/2000/svg" xmlns:xlink="http://www.w3.org/1999/xlink" width="816" zoomAndPan="magnify" viewBox="0 0 612 791.999994" height="1056" preserveAspectRatio="xMidYMid meet" version="1.0"><defs><clipPath id="05da47bc40"><path d="M 128 226 L 483 226 L 483 567.625 L 128 567.625 Z M 128 226 " clip-rule="nonzero"/></clipPath></defs><rect x="-61.2" width="734.4" fill="#ffffff" y="-79.199999" height="950.399992" fill-opacity="1"/><rect x="-61.2" width="734.4" fill="#fcfaff" y="-79.199999" height="950.399992" fill-opacity="1"/><g clip-path="url(#05da47bc40)"><path fill="#000000" d="M 463.613281 403.726562 L 449.101562 403.726562 L 449.101562 552.546875 C 449.039062 553.550781 448.878906 554.539062 448.625 555.511719 C 448.367188 556.484375 448.019531 557.421875 447.582031 558.324219 C 447.144531 559.230469 446.621094 560.082031 446.015625 560.886719 C 445.410156 561.6875 444.730469 562.425781 443.980469 563.09375 C 443.230469 563.765625 442.425781 564.355469 441.558594 564.867188 C 440.695312 565.378906 439.789062 565.800781 438.839844 566.136719 C 437.890625 566.472656 436.921875 566.710938 435.925781 566.855469 C 434.929688 567 433.929688 567.046875 432.925781 566.996094 L 347.191406 566.996094 L 347.191406 465.523438 C 347.191406 464.828125 347.121094 464.140625 346.984375 463.457031 C 346.851562 462.773438 346.648438 462.113281 346.382812 461.46875 C 346.117188 460.824219 345.789062 460.214844 345.402344 459.636719 C 345.019531 459.058594 344.578125 458.523438 344.085938 458.03125 C 343.59375 457.539062 343.058594 457.097656 342.480469 456.710938 C 341.902344 456.324219 341.292969 455.996094 340.648438 455.730469 C 340.007812 455.464844 339.34375 455.261719 338.660156 455.125 C 337.976562 454.992188 337.289062 454.921875 336.59375 454.921875 L 274.386719 454.921875 C 273.691406 454.921875 273.003906 454.988281 272.320312 455.125 C 271.636719 455.261719 270.972656 455.460938 270.332031 455.730469 C 269.6875 455.996094 269.078125 456.320312 268.5 456.710938 C 267.921875 457.097656 267.386719 457.535156 266.894531 458.027344 C 266.402344 458.519531 265.960938 459.054688 265.574219 459.632812 C 265.1875 460.214844 264.863281 460.824219 264.597656 461.46875 C 264.332031 462.109375 264.128906 462.773438 263.992188 463.457031 C 263.859375 464.140625 263.789062 464.828125 263.792969 465.523438 L 263.792969 566.992188 L 178.046875 566.992188 C 177.046875 567.042969 176.050781 567 175.058594 566.855469 C 174.066406 566.714844 173.097656 566.476562 172.152344 566.144531 C 171.207031 565.8125 170.304688 565.390625 169.441406 564.882812 C 168.578125 564.371094 167.773438 563.78125 167.023438 563.117188 C 166.277344 562.449219 165.601562 561.714844 165 560.914062 C 164.394531 560.113281 163.875 559.261719 163.441406 558.359375 C 163.003906 557.457031 162.660156 556.523438 162.40625 555.550781 C 162.152344 554.582031 161.996094 553.597656 161.9375 552.597656 L 161.9375 403.726562 L 147.359375 403.726562 C 131.207031 403.726562 122.453125 388.515625 133.039062 378.757812 L 292.558594 231.285156 C 293.554688 230.441406 294.621094 229.691406 295.75 229.03125 C 296.882812 228.375 298.0625 227.824219 299.289062 227.375 C 300.515625 226.925781 301.773438 226.589844 303.0625 226.363281 C 304.351562 226.136719 305.648438 226.023438 306.957031 226.027344 C 308.261719 226.027344 309.558594 226.144531 310.847656 226.378906 C 312.132812 226.609375 313.390625 226.953125 314.617188 227.40625 C 315.84375 227.859375 317.019531 228.417969 318.148438 229.078125 C 319.277344 229.738281 320.335938 230.492188 321.332031 231.34375 C 373.554688 280.496094 425.800781 329.652344 478.070312 378.808594 C 488.457031 388.660156 479.710938 403.726562 463.613281 403.726562 Z M 463.613281 403.726562 " fill-opacity="1" fill-rule="nonzero"/></g></svg>