<svg xmlns="http://www.w3.org/2000/svg" xmlns:xlink="http://www.w3.org/1999/xlink" width="816" zoomAndPan="magnify" viewBox="0 0 612 791.999994" height="1056" preserveAspectRatio="xMidYMid meet" version="1.0"><defs><clipPath id="7e5cea7a42"><path d="M 132 224.125 L 480 224.125 L 480 567.625 L 132 567.625 Z M 132 224.125 " clip-rule="nonzero"/></clipPath></defs><rect x="-61.2" width="734.4" fill="#ffffff" y="-79.199999" height="950.399992" fill-opacity="1"/><rect x="-61.2" width="734.4" fill="#fcfaff" y="-79.199999" height="950.399992" fill-opacity="1"/><g clip-path="url(#7e5cea7a42)"><path fill="#000000" d="M 469.804688 334.425781 C 469.804688 332.628906 468.605469 331.429688 467.40625 330.832031 C 465.605469 329.632812 464.40625 329.632812 462.605469 329.632812 L 431.40625 335.027344 L 421.207031 317.042969 L 441.605469 293.0625 C 444.007812 290.664062 443.40625 286.46875 441.007812 284.671875 L 393.011719 244.507812 C 390.609375 242.109375 386.410156 242.707031 384.609375 245.105469 L 364.210938 269.085938 L 344.414062 261.890625 L 344.414062 230.117188 C 344.414062 226.523438 342.011719 224.125 338.414062 224.125 L 275.417969 224.125 C 271.816406 224.125 269.417969 226.523438 269.417969 230.117188 L 269.417969 261.890625 L 249.617188 269.085938 L 229.21875 245.105469 C 226.820312 242.707031 223.21875 242.109375 220.820312 244.507812 L 172.824219 284.671875 C 170.421875 287.070312 169.824219 290.664062 172.222656 293.0625 L 192.621094 317.042969 L 182.421875 335.027344 L 150.625 329.632812 C 148.824219 329.632812 147.625 329.632812 146.421875 330.832031 C 145.222656 332.03125 144.023438 333.230469 144.023438 334.425781 L 132.625 396.171875 C 132.023438 399.171875 134.425781 402.769531 137.425781 403.367188 L 168.621094 408.761719 L 172.222656 429.144531 L 144.625 444.730469 C 141.625 446.53125 141.023438 450.125 142.222656 453.125 L 173.421875 507.675781 C 174.023438 508.875 175.820312 510.074219 177.023438 510.671875 C 178.820312 511.273438 180.023438 510.671875 181.820312 510.074219 L 209.421875 494.488281 L 225.621094 507.675781 L 214.820312 537.648438 C 213.621094 540.648438 215.417969 544.246094 218.417969 545.441406 L 277.214844 567.023438 C 278.417969 567.625 280.214844 567.625 282.015625 567.023438 C 283.214844 566.425781 284.417969 565.226562 285.015625 563.425781 L 295.816406 533.453125 L 316.8125 533.453125 L 327.613281 563.425781 C 328.214844 564.625 329.414062 566.425781 330.613281 567.023438 C 331.214844 567.625 332.414062 567.625 333.011719 567.625 C 333.613281 567.625 334.214844 567.625 334.8125 567.023438 L 393.609375 545.441406 C 396.609375 544.246094 398.410156 540.648438 397.210938 537.648438 L 386.410156 507.675781 L 402.609375 494.488281 L 430.207031 510.074219 C 431.40625 510.671875 433.207031 511.273438 435.007812 510.671875 C 436.808594 510.074219 438.007812 509.476562 438.605469 507.675781 L 469.804688 453.125 C 471.605469 450.125 470.40625 446.53125 467.40625 444.730469 L 439.808594 429.144531 L 443.40625 408.761719 L 474.605469 403.367188 C 477.605469 402.769531 480.003906 399.769531 479.40625 396.171875 Z M 360.613281 426.148438 C 360.613281 427.347656 359.410156 428.546875 358.8125 429.746094 L 329.414062 454.324219 C 328.214844 455.523438 327.011719 455.523438 325.8125 455.523438 L 288.015625 455.523438 C 286.816406 455.523438 285.015625 454.921875 284.417969 454.324219 L 255.019531 429.746094 C 253.816406 428.546875 253.21875 427.347656 253.21875 426.148438 L 246.617188 388.980469 C 246.617188 387.78125 246.617188 385.984375 247.21875 384.785156 L 266.417969 351.8125 C 267.015625 350.613281 268.21875 349.414062 269.417969 349.414062 L 305.414062 336.226562 C 306.613281 335.625 308.414062 335.625 309.613281 336.226562 L 345.613281 349.414062 C 346.8125 350.015625 348.011719 350.613281 348.613281 351.8125 L 367.8125 384.785156 C 368.410156 385.984375 369.011719 387.179688 368.410156 388.980469 Z M 360.613281 426.148438 " fill-opacity="1" fill-rule="nonzero"/></g></svg>