<svg xmlns="http://www.w3.org/2000/svg" xmlns:xlink="http://www.w3.org/1999/xlink" width="816" zoomAndPan="magnify" viewBox="0 0 612 791.999994" height="1056" preserveAspectRatio="xMidYMid meet" version="1.0"><defs><clipPath id="340bc8f98b"><path d="M 43.816406 86.878906 L 302.183594 86.878906 L 302.183594 345.246094 L 43.816406 345.246094 Z M 43.816406 86.878906 " clip-rule="nonzero"/></clipPath><clipPath id="398f0008f3"><path d="M 173 86.878906 C 101.652344 86.878906 43.816406 144.714844 43.816406 216.0625 C 43.816406 287.40625 101.652344 345.246094 173 345.246094 C 244.347656 345.246094 302.183594 287.40625 302.183594 216.0625 C 302.183594 144.714844 244.347656 86.878906 173 86.878906 Z M 173 86.878906 " clip-rule="nonzero"/></clipPath><clipPath id="9d6f3f6a42"><path d="M 0.816406 0.878906 L 259.183594 0.878906 L 259.183594 259.246094 L 0.816406 259.246094 Z M 0.816406 0.878906 " clip-rule="nonzero"/></clipPath><clipPath id="dc5a685273"><path d="M 130 0.878906 C 58.652344 0.878906 0.816406 58.714844 0.816406 130.0625 C 0.816406 201.40625 58.652344 259.246094 130 259.246094 C 201.347656 259.246094 259.183594 201.40625 259.183594 130.0625 C 259.183594 58.714844 201.347656 0.878906 130 0.878906 Z M 130 0.878906 " clip-rule="nonzero"/></clipPath><clipPath id="cd43ae8cdf"><rect x="0" width="260" y="0" height="260"/></clipPath><clipPath id="ec6ac29bcb"><path d="M 0.753906 0.753906 L 344.824219 0.753906 L 344.824219 344.824219 L 0.753906 344.824219 Z M 0.753906 0.753906 " clip-rule="nonzero"/></clipPath><clipPath id="039ce3db93"><rect x="0" width="346" y="0" height="346"/></clipPath></defs><rect x="-61.2" width="734.4" fill="#ffffff" y="-79.199999" height="950.399992" fill-opacity="1"/><rect x="-61.2" width="734.4" fill="#fcfaff" y="-79.199999" height="950.399992" fill-opacity="1"/><g transform="matrix(1, 0, 0, 1, 133, 223)"><g clip-path="url(#039ce3db93)"><g clip-path="url(#340bc8f98b)"><g clip-path="url(#398f0008f3)"><g transform="matrix(1, 0, 0, 1, 43, 86)"><g clip-path="url(#cd43ae8cdf)"><g clip-path="url(#9d6f3f6a42)"><g clip-path="url(#dc5a685273)"><path fill="#fcfaff" d="M 0.816406 0.878906 L 259.183594 0.878906 L 259.183594 259.246094 L 0.816406 259.246094 Z M 0.816406 0.878906 " fill-opacity="1" fill-rule="nonzero"/></g></g></g></g></g></g><g clip-path="url(#ec6ac29bcb)"><path fill="#1900b7" d="M 172.996094 327.824219 C 133.140625 327.824219 96.761719 312.488281 69.289062 287.664062 C 76.414062 246.0625 112.621094 215.023438 155.285156 215.023438 L 190.535156 215.023438 C 233.246094 215.023438 269.496094 246.117188 276.558594 287.765625 C 276.558594 287.773438 276.558594 287.832031 276.5625 287.839844 C 249.109375 312.589844 212.78125 327.824219 172.996094 327.824219 Z M 172.996094 86.0625 C 200.859375 86.0625 223.527344 108.730469 223.527344 136.589844 C 223.527344 164.453125 200.859375 187.121094 172.996094 187.121094 C 145.132812 187.121094 122.464844 164.453125 122.464844 136.589844 C 122.464844 108.730469 145.132812 86.0625 172.996094 86.0625 Z M 172.996094 0.753906 C 78.019531 0.753906 0.753906 78.019531 0.753906 172.996094 C 0.753906 267.96875 78.019531 345.234375 172.996094 345.234375 C 267.96875 345.234375 345.234375 267.96875 345.234375 172.996094 C 345.234375 78.019531 267.96875 0.753906 172.996094 0.753906 " fill-opacity="1" fill-rule="nonzero"/></g></g></g></svg>