<svg xmlns="http://www.w3.org/2000/svg" xmlns:xlink="http://www.w3.org/1999/xlink" width="816" zoomAndPan="magnify" viewBox="0 0 612 791.999994" height="1056" preserveAspectRatio="xMidYMid meet" version="1.0"><defs><clipPath id="9b9da1af2c"><path d="M 0.558594 77.160156 L 150 77.160156 L 150 344.601562 L 0.558594 344.601562 Z M 0.558594 77.160156 " clip-rule="nonzero"/></clipPath><clipPath id="de44b9f7f1"><path d="M 182 77.160156 L 331.601562 77.160156 L 331.601562 344.601562 L 182 344.601562 Z M 182 77.160156 " clip-rule="nonzero"/></clipPath><clipPath id="12f65aa972"><path d="M 62.867188 1.125 L 251.554688 1.125 L 251.554688 189.808594 L 62.867188 189.808594 Z M 62.867188 1.125 " clip-rule="nonzero"/></clipPath><clipPath id="658c23f479"><rect x="0" width="332" y="0" height="346"/></clipPath></defs><rect x="-61.2" width="734.4" fill="#ffffff" y="-79.199999" height="950.399992" fill-opacity="1"/><rect x="-61.2" width="734.4" fill="#fcfaff" y="-79.199999" height="950.399992" fill-opacity="1"/><g transform="matrix(1, 0, 0, 1, 140, 223)"><g clip-path="url(#658c23f479)"><g clip-path="url(#9b9da1af2c)"><path fill="#1900b7" d="M 148.6875 336.273438 C 143.761719 313.253906 140.621094 289.871094 135.9375 266.824219 C 131.667969 247.6875 113.242188 238.050781 100.054688 225.628906 C 93.929688 219.558594 88.351562 212.972656 82.804688 206.367188 C 84.835938 191.5625 85.625 151.414062 85.40625 138.027344 C 84.9375 127.921875 75.21875 121.917969 65.996094 121.230469 C 68.363281 108.3125 57.457031 97.273438 44.738281 97.960938 C 44.128906 90.527344 41.570312 82.292969 34.136719 79.074219 C 23.171875 73.125 8.636719 82.1875 8.113281 94.355469 C 5.746094 123.601562 3.621094 152.875 1.257812 182.117188 C -1 207.863281 2.027344 234.601562 13.039062 258.171875 C 23.863281 280.113281 44.703125 294.269531 59.578125 313.132812 C 66.820312 321.804688 69.105469 333.152344 73.84375 343.121094 C 76.871094 346.867188 84.28125 343.835938 83.066406 338.90625 C 78 310.878906 55.472656 292.011719 36.886719 272.460938 C 16.292969 251.863281 11.277344 221.132812 11.636719 193.183594 C 13.757812 161.132812 16.488281 129.105469 18.960938 97.085938 C 18.851562 92.207031 22.734375 87.226562 28.050781 88.300781 C 30.941406 90.117188 33.503906 93.03125 33.066406 96.726562 C 33.582031 122.386719 34.507812 162.507812 35.488281 188.261719 C 30.839844 194.59375 31.300781 204.191406 35.535156 210.871094 C 45.613281 228.136719 55.523438 245.542969 65.960938 262.585938 C 68.359375 268.121094 77.777344 264.929688 76.042969 259.007812 C 66.101562 239.234375 52.859375 221.140625 43.4375 201.121094 C 40.332031 193.242188 52.582031 189.199219 57.320312 194.125 C 72.46875 209.300781 84.058594 228 101.214844 241.160156 C 110.878906 249.339844 122.886719 257.078125 125.449219 270.460938 C 129.910156 292.515625 132.746094 314.929688 137.644531 336.902344 C 138.359375 340.292969 139.269531 344.863281 143.703125 344.808594 C 148.191406 344.835938 150.394531 340.097656 148.6875 336.269531 Z M 46.042969 181.757812 C 46.179688 159.996094 43.953125 128.566406 44.324219 109.054688 C 48.210938 109.824219 55.726562 110.347656 54.707031 116.132812 C 54.171875 133.183594 54.925781 162.308594 54.722656 181.257812 C 51.855469 180.855469 48.878906 181.046875 46.042969 181.757812 Z M 64.949219 132.546875 C 68.582031 133.152344 73.457031 133.507812 74.339844 137.996094 C 74.929688 148.722656 73.699219 176.050781 72.671875 194.472656 C 70.183594 191.648438 67.640625 188.875 65 186.195312 C 67.011719 173.203125 63.273438 145.597656 64.949219 132.546875 Z M 64.949219 132.546875 " fill-opacity="1" fill-rule="nonzero"/></g><g clip-path="url(#de44b9f7f1)"><path fill="#1900b7" d="M 188.28125 344.8125 C 192.714844 344.867188 193.625 340.296875 194.339844 336.90625 C 199.238281 314.933594 202.074219 292.519531 206.535156 270.464844 C 209.097656 257.082031 221.101562 249.347656 230.769531 241.164062 C 247.925781 228.003906 259.515625 209.304688 274.664062 194.128906 C 279.398438 189.203125 291.652344 193.246094 288.542969 201.125 C 279.125 221.144531 265.882812 239.238281 255.941406 259.011719 C 254.207031 264.933594 263.625 268.125 266.019531 262.589844 C 276.457031 245.546875 286.371094 228.140625 296.449219 210.875 C 300.683594 204.195312 301.144531 194.59375 296.496094 188.265625 C 297.476562 162.511719 298.398438 122.386719 298.917969 96.730469 C 298.480469 93.035156 301.039062 90.121094 303.933594 88.304688 C 309.25 87.230469 313.128906 92.210938 313.023438 97.089844 C 315.496094 129.109375 318.226562 161.136719 320.347656 193.1875 C 320.703125 221.136719 315.691406 251.867188 295.09375 272.46875 C 276.511719 292.015625 253.984375 310.882812 248.914062 338.910156 C 247.703125 343.839844 255.109375 346.871094 258.140625 343.125 C 262.878906 333.15625 265.164062 321.8125 272.40625 313.136719 C 287.277344 294.273438 308.121094 280.117188 318.945312 258.175781 C 329.957031 234.605469 332.984375 207.867188 330.726562 182.121094 C 328.359375 152.878906 326.238281 123.605469 323.871094 94.359375 C 323.347656 82.191406 308.808594 73.128906 297.847656 79.078125 C 290.414062 82.300781 287.855469 90.535156 287.25 97.964844 C 274.527344 97.277344 263.625 108.316406 265.988281 121.234375 C 256.765625 121.921875 247.046875 127.925781 246.578125 138.035156 C 246.359375 151.417969 247.148438 191.566406 249.179688 206.371094 C 243.632812 212.980469 238.054688 219.5625 231.929688 225.636719 C 218.742188 238.054688 200.316406 247.691406 196.046875 266.832031 C 191.363281 289.878906 188.222656 313.257812 183.296875 336.277344 C 181.589844 340.105469 183.792969 344.84375 188.28125 344.816406 Z M 277.257812 181.257812 C 277.058594 162.308594 277.808594 133.183594 277.273438 116.132812 C 276.257812 110.351562 283.773438 109.824219 287.65625 109.058594 C 288.03125 128.566406 285.800781 159.996094 285.941406 181.761719 C 283.101562 181.050781 280.125 180.855469 277.257812 181.257812 Z M 266.980469 186.195312 C 264.339844 188.875 261.796875 191.648438 259.308594 194.472656 C 258.28125 176.050781 257.050781 148.722656 257.644531 137.996094 C 258.527344 133.507812 263.398438 133.152344 267.03125 132.546875 C 268.710938 145.597656 264.972656 173.203125 266.980469 186.195312 Z M 266.980469 186.195312 " fill-opacity="1" fill-rule="nonzero"/></g><g clip-path="url(#12f65aa972)"><path fill="#ffcc00" d="M 233.175781 171.433594 L 169.980469 150 L 116.5 189.910156 L 117.351562 123.1875 L 62.871094 84.65625 L 126.59375 64.847656 L 146.402344 1.125 L 184.929688 55.609375 L 251.65625 54.753906 L 211.746094 108.234375 Z M 233.175781 171.433594 " fill-opacity="1" fill-rule="nonzero"/></g><path fill="#ffe680" d="M 130.464844 62.667969 L 146.910156 7.246094 L 149.0625 15.277344 Z M 130.464844 62.667969 " fill-opacity="1" fill-rule="nonzero"/><path fill="#ffe680" d="M 123.277344 68.898438 L 67.851562 85.347656 L 75.882812 87.496094 Z M 123.277344 68.898438 " fill-opacity="1" fill-rule="nonzero"/><path stroke-linecap="butt" transform="matrix(2.850239, 0, 0, 2.850239, -105.893705, -150.446083)" fill-opacity="1" fill="#000000" fill-rule="nonzero" stroke-linejoin="miter" d="M 80.437049 82.796238 L 80.413751 85.274101 L 78.118164 85.274101 L 78.118164 87.569687 L 80.345226 87.569687 L 80.345226 89.933798 L 82.709337 89.933798 L 82.709337 87.558723 L 84.741787 87.558723 L 84.766456 85.286436 L 82.617513 85.263137 L 82.640812 82.775681 Z M 80.437049 82.796238 " stroke="#000000" stroke-width="0.142" stroke-opacity="1" stroke-miterlimit="4"/><path stroke-linecap="butt" transform="matrix(2.850239, 0, 0, 2.850239, -105.893705, -150.446083)" fill-opacity="1" fill="#000000" fill-rule="nonzero" stroke-linejoin="miter" d="M 85.766921 82.061651 L 89.74548 86.236191 L 85.886154 90.1846 L 88.902623 93.199698 L 92.672866 89.341743 L 96.486965 93.111986 L 99.592516 90.006435 L 95.761971 86.221116 L 99.499323 82.217888 L 96.545897 79.20279 L 92.626269 83.325251 L 88.636746 79.139747 Z M 85.766921 82.061651 " stroke="#000000" stroke-width="0.265" stroke-opacity="1" stroke-miterlimit="4"/><path stroke-linecap="butt" transform="matrix(2.850239, 0, 0, 2.850239, -105.893705, -150.446083)" fill-opacity="1" fill="#000000" fill-rule="nonzero" stroke-linejoin="miter" d="M 105.178671 78.302372 C 103.534072 78.311965 101.855211 78.620327 101.855211 78.620327 L 101.855211 93.47928 L 106.317556 93.524506 L 106.317556 87.860233 C 106.317556 87.860233 109.501226 86.898143 110.260482 85.585204 C 110.958066 84.375054 110.794977 82.683858 110.260482 81.392847 C 109.76025 80.185437 108.695372 79.12056 107.487962 78.620327 C 106.891795 78.373638 106.039345 78.29689 105.178671 78.302372 Z M 104.738741 79.951082 C 104.738741 79.951082 106.269589 80.073057 106.846569 80.515728 C 107.524966 81.037888 108.160877 82.511175 108.160877 83.367737 C 108.160877 83.888526 107.777138 84.381906 107.381063 84.719049 C 106.672515 85.32618 104.768892 85.723625 104.768892 85.723625 Z M 104.738741 79.951082 " stroke="#000000" stroke-width="0.265" stroke-opacity="1" stroke-miterlimit="4"/></g></g></svg>