<svg xmlns="http://www.w3.org/2000/svg" xmlns:xlink="http://www.w3.org/1999/xlink" width="816" zoomAndPan="magnify" viewBox="0 0 612 791.999994" height="1056" preserveAspectRatio="xMidYMid meet" version="1.0"><defs><clipPath id="6baffb5a0f"><path d="M 62.542969 62.542969 L 291.457031 62.542969 L 291.457031 291.457031 L 62.542969 291.457031 Z M 62.542969 62.542969 " clip-rule="nonzero"/></clipPath><clipPath id="a05e4bc13f"><path d="M 177 62.542969 C 113.785156 62.542969 62.542969 113.785156 62.542969 177 C 62.542969 240.214844 113.785156 291.457031 177 291.457031 C 240.214844 291.457031 291.457031 240.214844 291.457031 177 C 291.457031 113.785156 240.214844 62.542969 177 62.542969 Z M 177 62.542969 " clip-rule="nonzero"/></clipPath><clipPath id="a1b4bfd727"><path d="M 0.542969 0.542969 L 229.457031 0.542969 L 229.457031 229.457031 L 0.542969 229.457031 Z M 0.542969 0.542969 " clip-rule="nonzero"/></clipPath><clipPath id="3536837415"><path d="M 115 0.542969 C 51.785156 0.542969 0.542969 51.785156 0.542969 115 C 0.542969 178.214844 51.785156 229.457031 115 229.457031 C 178.214844 229.457031 229.457031 178.214844 229.457031 115 C 229.457031 51.785156 178.214844 0.542969 115 0.542969 Z M 115 0.542969 " clip-rule="nonzero"/></clipPath><clipPath id="b95fa27ead"><rect x="0" width="230" y="0" height="230"/></clipPath><clipPath id="221be618b8"><path d="M 2.246094 2.246094 L 351.0625 2.246094 L 351.0625 351.0625 L 2.246094 351.0625 Z M 2.246094 2.246094 " clip-rule="nonzero"/></clipPath><clipPath id="3d7de19f27"><rect x="0" width="354" y="0" height="354"/></clipPath></defs><rect x="-61.2" width="734.4" fill="#ffffff" y="-79.199999" height="950.399992" fill-opacity="1"/><rect x="-61.2" width="734.4" fill="#fcfaff" y="-79.199999" height="950.399992" fill-opacity="1"/><g transform="matrix(1, 0, 0, 1, 129, 219)"><g clip-path="url(#3d7de19f27)"><g clip-path="url(#6baffb5a0f)"><g clip-path="url(#a05e4bc13f)"><g transform="matrix(1, 0, 0, 1, 62, 62)"><g clip-path="url(#b95fa27ead)"><g clip-path="url(#a1b4bfd727)"><g clip-path="url(#3536837415)"><path fill="#ffffff" d="M 0.542969 0.542969 L 229.457031 0.542969 L 229.457031 229.457031 L 0.542969 229.457031 Z M 0.542969 0.542969 " fill-opacity="1" fill-rule="nonzero"/></g></g></g></g></g></g><g clip-path="url(#221be618b8)"><path fill="#1900b7" d="M 176.988281 351.0625 C 272.84375 351.0625 351.0625 272.84375 351.0625 176.988281 C 351.0625 81.136719 272.84375 2.917969 176.988281 2.917969 C 81.136719 2.917969 2.917969 81.136719 2.917969 176.988281 C 2.917969 272.84375 81.136719 351.0625 176.988281 351.0625 Z M 127.144531 146.699219 L 191.558594 82.285156 L 221.851562 112.574219 L 157.820312 176.988281 L 221.851562 241.019531 L 191.558594 271.3125 L 127.144531 207.28125 L 96.855469 176.988281 Z M 127.144531 146.699219 " fill-opacity="1" fill-rule="nonzero"/></g></g></g></svg>