<svg xmlns="http://www.w3.org/2000/svg" xmlns:xlink="http://www.w3.org/1999/xlink" width="816" zoomAndPan="magnify" viewBox="0 0 612 791.999994" height="1056" preserveAspectRatio="xMidYMid meet" version="1.0"><defs><clipPath id="bc84b6ff06"><path d="M 61.199219 260 L 285 260 L 285 571.761719 L 61.199219 571.761719 Z M 61.199219 260 " clip-rule="nonzero"/></clipPath><clipPath id="7751d3e29e"><path d="M 319 260 L 542.699219 260 L 542.699219 571.761719 L 319 571.761719 Z M 319 260 " clip-rule="nonzero"/></clipPath><clipPath id="32ea335ebe"><path d="M 306 220.011719 L 509 220.011719 L 509 569 L 306 569 Z M 306 220.011719 " clip-rule="nonzero"/></clipPath><clipPath id="00d4c3cfb3"><path d="M 95 220.011719 L 298 220.011719 L 298 569 L 95 569 Z M 95 220.011719 " clip-rule="nonzero"/></clipPath></defs><rect x="-61.2" width="734.4" fill="#ffffff" y="-79.199999" height="950.399992" fill-opacity="1"/><rect x="-61.2" width="734.4" fill="#1900b7" y="-79.199999" height="950.399992" fill-opacity="1"/><g clip-path="url(#bc84b6ff06)"><path fill="#ffffff" d="M 93.503906 537.257812 C 92.296875 537.355469 91.101562 536.953125 90.207031 536.132812 C 89.308594 535.316406 88.796875 534.164062 88.789062 532.949219 L 86.734375 260.96875 L 61.261719 260.96875 L 61.261719 571.929688 L 284.011719 571.929688 C 224.949219 543.28125 160.953125 531.609375 93.503906 537.257812 Z M 93.503906 537.257812 " fill-opacity="1" fill-rule="nonzero"/></g><g clip-path="url(#7751d3e29e)"><path fill="#ffffff" d="M 516.992188 260.96875 L 514.9375 532.953125 C 514.925781 534.164062 514.414062 535.316406 513.515625 536.136719 C 512.625 536.953125 511.429688 537.351562 510.21875 537.257812 C 442.773438 531.613281 378.777344 543.28125 319.710938 571.929688 L 542.460938 571.929688 L 542.460938 260.96875 Z M 516.992188 260.96875 " fill-opacity="1" fill-rule="nonzero"/></g><g clip-path="url(#32ea335ebe)"><path fill="#ffffff" d="M 506.261719 528.214844 L 508.59375 219.957031 C 428.671875 221.179688 362.410156 239.195312 306.21875 274.976562 L 306.542969 568.78125 C 368.25 536.726562 435.378906 523.085938 506.261719 528.214844 Z M 333.625 299.042969 C 373.972656 275.464844 422.960938 264.511719 479.183594 266.476562 C 481.585938 266.558594 483.46875 268.578125 483.382812 270.980469 C 483.296875 273.382812 481.265625 275.253906 478.878906 275.179688 C 424.308594 273.265625 376.921875 283.832031 338.015625 306.5625 C 337.324219 306.964844 336.570312 307.160156 335.824219 307.160156 C 334.328125 307.160156 332.867188 306.386719 332.058594 305 C 330.847656 302.921875 331.546875 300.257812 333.625 299.042969 Z M 333.625 350.210938 C 373.988281 326.621094 422.964844 315.660156 479.183594 317.640625 C 481.589844 317.726562 483.46875 319.742188 483.382812 322.144531 C 483.296875 324.550781 481.265625 326.402344 478.878906 326.34375 C 424.339844 324.429688 376.9375 334.988281 338.015625 357.730469 C 337.324219 358.132812 336.570312 358.324219 335.824219 358.324219 C 334.328125 358.324219 332.867188 357.550781 332.058594 356.167969 C 330.847656 354.089844 331.546875 351.421875 333.625 350.210938 Z M 478.878906 377.511719 C 424.304688 375.59375 376.921875 386.152344 338.019531 408.894531 C 337.328125 409.300781 336.570312 409.492188 335.824219 409.492188 C 334.328125 409.492188 332.871094 408.71875 332.0625 407.332031 C 330.847656 405.257812 331.546875 402.589844 333.625 401.375 C 373.972656 377.789062 422.953125 366.832031 479.183594 368.808594 C 481.589844 368.890625 483.46875 370.910156 483.382812 373.3125 C 483.296875 375.714844 481.265625 377.574219 478.878906 377.511719 Z M 483.382812 424.476562 C 483.296875 426.882812 481.265625 428.769531 478.878906 428.675781 C 424.3125 426.761719 376.921875 437.316406 338.015625 460.058594 C 337.324219 460.464844 336.570312 460.65625 335.824219 460.65625 C 334.328125 460.65625 332.871094 459.882812 332.058594 458.5 C 330.847656 456.421875 331.546875 453.757812 333.621094 452.542969 C 373.972656 428.953125 422.933594 417.980469 479.183594 419.972656 C 481.589844 420.054688 483.46875 422.074219 483.382812 424.476562 Z M 338.015625 511.21875 C 337.328125 511.621094 336.570312 511.8125 335.824219 511.8125 C 334.328125 511.8125 332.871094 511.039062 332.058594 509.652344 C 330.847656 507.578125 331.546875 504.910156 333.625 503.695312 C 373.972656 480.121094 422.960938 469.164062 479.183594 471.128906 C 481.585938 471.214844 483.46875 473.230469 483.382812 475.632812 C 483.296875 478.039062 481.265625 479.917969 478.878906 479.832031 C 424.320312 477.925781 376.921875 488.484375 338.015625 511.21875 Z M 338.015625 511.21875 " fill-opacity="1" fill-rule="nonzero"/></g><g clip-path="url(#00d4c3cfb3)"><path fill="#ffffff" d="M 97.460938 528.214844 C 107.148438 527.511719 116.777344 527.164062 126.320312 527.164062 C 186.605469 527.164062 243.910156 541.109375 297.179688 568.78125 L 297.503906 274.976562 C 241.324219 239.195312 175.0625 221.179688 95.132812 219.957031 Z M 124.550781 266.476562 C 180.777344 264.503906 229.75 275.464844 270.109375 299.042969 C 272.1875 300.257812 272.886719 302.921875 271.675781 305 C 270.863281 306.386719 269.40625 307.160156 267.910156 307.160156 C 267.164062 307.160156 266.40625 306.964844 265.714844 306.5625 C 226.800781 283.832031 179.40625 273.269531 124.855469 275.179688 C 122.46875 275.246094 120.4375 273.382812 120.351562 270.980469 C 120.269531 268.578125 122.148438 266.558594 124.550781 266.476562 Z M 124.550781 317.640625 C 180.761719 315.660156 229.734375 326.621094 270.109375 350.207031 C 272.1875 351.421875 272.886719 354.089844 271.675781 356.164062 C 270.863281 357.550781 269.40625 358.324219 267.910156 358.324219 C 267.164062 358.324219 266.40625 358.132812 265.714844 357.730469 C 226.785156 334.984375 179.390625 324.425781 124.855469 326.34375 C 122.445312 326.417969 120.4375 324.550781 120.351562 322.144531 C 120.265625 319.742188 122.148438 317.726562 124.550781 317.640625 Z M 124.550781 368.804688 C 180.777344 366.828125 229.75 377.789062 270.109375 401.375 C 272.1875 402.589844 272.886719 405.253906 271.675781 407.332031 C 270.863281 408.71875 269.40625 409.492188 267.910156 409.492188 C 267.164062 409.492188 266.40625 409.296875 265.714844 408.894531 C 226.800781 386.152344 179.40625 375.589844 124.855469 377.511719 C 122.445312 377.5625 120.4375 375.714844 120.351562 373.3125 C 120.265625 370.910156 122.148438 368.890625 124.550781 368.804688 Z M 124.550781 419.972656 C 180.773438 417.980469 229.75 428.953125 270.113281 452.542969 C 272.1875 453.753906 272.886719 456.421875 271.675781 458.5 C 270.863281 459.882812 269.40625 460.65625 267.910156 460.65625 C 267.164062 460.65625 266.40625 460.464844 265.714844 460.058594 C 226.800781 437.316406 179.40625 426.761719 124.855469 428.675781 C 122.445312 428.757812 120.4375 426.882812 120.351562 424.476562 C 120.269531 422.074219 122.148438 420.054688 124.550781 419.972656 Z M 124.550781 471.128906 C 180.777344 469.15625 229.75 480.117188 270.109375 503.695312 C 272.1875 504.910156 272.886719 507.574219 271.675781 509.652344 C 270.863281 511.039062 269.40625 511.8125 267.910156 511.8125 C 267.164062 511.8125 266.40625 511.621094 265.714844 511.214844 C 226.800781 488.484375 179.40625 477.925781 124.855469 479.832031 C 122.46875 479.925781 120.4375 478.035156 120.351562 475.632812 C 120.269531 473.230469 122.148438 471.210938 124.550781 471.128906 Z M 124.550781 471.128906 " fill-opacity="1" fill-rule="nonzero"/></g></svg>