<svg xmlns="http://www.w3.org/2000/svg" xmlns:xlink="http://www.w3.org/1999/xlink" width="816" zoomAndPan="magnify" viewBox="0 0 612 791.999994" height="1056" preserveAspectRatio="xMidYMid meet" version="1.0"><rect x="-61.2" width="734.4" fill="#ffffff" y="-79.199999" height="950.399992" fill-opacity="1"/><rect x="-61.2" width="734.4" fill="#1900b7" y="-79.199999" height="950.399992" fill-opacity="1"/><path fill="#ffffff" d="M 282.324219 322.53125 L 331.300781 273.554688 C 331.300781 273.554688 380.28125 224.578125 429.257812 273.554688 C 478.234375 322.53125 429.257812 371.507812 429.257812 371.507812 L 363.953125 436.8125 C 363.953125 436.8125 314.976562 485.789062 266 436.8125 C 256.816406 427.628906 251.125 415.425781 251.125 415.425781 L 278.496094 388.097656 C 278.496094 388.097656 277.394531 399.230469 290.488281 412.324219 C 290.488281 412.324219 314.976562 436.8125 339.464844 412.324219 L 404.769531 347.019531 C 404.769531 347.019531 429.257812 322.53125 404.769531 298.042969 C 380.28125 273.554688 355.792969 298.042969 355.792969 298.042969 L 325.351562 328.484375 C 325.351562 328.484375 310.21875 316.066406 279.265625 325.59375 Z M 282.324219 322.53125 " fill-opacity="1" fill-rule="nonzero"/><path fill="#ffffff" d="M 330.039062 469.464844 L 281.058594 518.441406 C 281.058594 518.441406 232.082031 567.417969 183.105469 518.441406 C 134.128906 469.464844 183.105469 420.484375 183.105469 420.484375 L 248.410156 355.183594 C 248.410156 355.183594 297.386719 306.207031 346.363281 355.183594 C 355.546875 364.367188 361.234375 376.570312 361.234375 376.570312 L 333.859375 403.90625 C 333.859375 403.90625 334.960938 392.765625 321.867188 379.671875 C 321.867188 379.671875 297.378906 355.183594 272.890625 379.671875 L 207.585938 444.976562 C 207.585938 444.976562 183.097656 469.464844 207.585938 493.953125 C 232.074219 518.441406 256.5625 493.953125 256.5625 493.953125 L 287.003906 463.511719 C 287.003906 463.511719 302.136719 475.929688 333.089844 466.402344 Z M 330.039062 469.464844 " fill-opacity="1" fill-rule="nonzero"/></svg>