<svg xmlns="http://www.w3.org/2000/svg" xmlns:xlink="http://www.w3.org/1999/xlink" width="816" zoomAndPan="magnify" viewBox="0 0 612 791.999994" height="1056" preserveAspectRatio="xMidYMid meet" version="1.0"><defs><g/><clipPath id="def7568372"><path d="M 125.929688 350.101562 L 486.316406 350.101562 L 486.316406 441.898438 L 125.929688 441.898438 Z M 125.929688 350.101562 " clip-rule="nonzero"/></clipPath><clipPath id="cea50cff36"><path d="M 157.429688 350.101562 L 454.570312 350.101562 C 471.96875 350.101562 486.070312 364.203125 486.070312 381.601562 L 486.070312 410.398438 C 486.070312 427.796875 471.96875 441.898438 454.570312 441.898438 L 157.429688 441.898438 C 140.03125 441.898438 125.929688 427.796875 125.929688 410.398438 L 125.929688 381.601562 C 125.929688 364.203125 140.03125 350.101562 157.429688 350.101562 Z M 157.429688 350.101562 " clip-rule="nonzero"/></clipPath><clipPath id="f77063e882"><path d="M 0.929688 0.101562 L 361 0.101562 L 361 91.898438 L 0.929688 91.898438 Z M 0.929688 0.101562 " clip-rule="nonzero"/></clipPath><clipPath id="3aca9ec15b"><path d="M 32.429688 0.101562 L 329.570312 0.101562 C 346.96875 0.101562 361.070312 14.203125 361.070312 31.601562 L 361.070312 60.398438 C 361.070312 77.796875 346.96875 91.898438 329.570312 91.898438 L 32.429688 91.898438 C 15.03125 91.898438 0.929688 77.796875 0.929688 60.398438 L 0.929688 31.601562 C 0.929688 14.203125 15.03125 0.101562 32.429688 0.101562 Z M 32.429688 0.101562 " clip-rule="nonzero"/></clipPath><clipPath id="97a25d0215"><rect x="0" width="362" y="0" height="92"/></clipPath></defs><rect x="-61.2" width="734.4" fill="#ffffff" y="-79.199999" height="950.399992" fill-opacity="1"/><rect x="-61.2" width="734.4" fill="#fcfaff" y="-79.199999" height="950.399992" fill-opacity="1"/><g clip-path="url(#def7568372)"><g clip-path="url(#cea50cff36)"><g transform="matrix(1, 0, 0, 1, 125, 350)"><g clip-path="url(#97a25d0215)"><g clip-path="url(#f77063e882)"><g clip-path="url(#3aca9ec15b)"><path fill="#117bf4" d="M 0.929688 0.101562 L 360.957031 0.101562 L 360.957031 91.898438 L 0.929688 91.898438 Z M 0.929688 0.101562 " fill-opacity="1" fill-rule="nonzero"/></g></g></g></g></g></g><g fill="#fcfaff" fill-opacity="1"><g transform="translate(252.725306, 404.622187)"><g><path d="M 2.410156 -25.414062 L 2.410156 0 L 8.746094 0 L 8.746094 -10.261719 L 20.878906 -10.261719 L 20.878906 -15.191406 L 8.746094 -15.191406 L 8.746094 -20.519531 L 21.925781 -20.519531 L 21.925781 -25.414062 Z M 2.410156 -25.414062 "/></g></g></g><g fill="#fcfaff" fill-opacity="1"><g transform="translate(275.225351, 404.622187)"><g><path d="M 8.746094 0 L 8.746094 -25.414062 L 2.410156 -25.414062 L 2.410156 0 Z M 8.746094 0 "/></g></g></g><g fill="#fcfaff" fill-opacity="1"><g transform="translate(288.00538, 404.622187)"><g><path d="M 23.761719 0 L 23.761719 -25.414062 L 17.675781 -25.414062 L 17.675781 -9.9375 L 8.640625 -25.414062 L 2.410156 -25.414062 L 2.410156 0 L 8.53125 0 L 8.53125 -15.191406 L 17.53125 0 Z M 23.761719 0 "/></g></g></g><g fill="#fcfaff" fill-opacity="1"><g transform="translate(314.249427, 404.622187)"><g><path d="M 25.378906 0 L 16.019531 -25.414062 L 9.394531 -25.414062 L -0.0351562 0 L 6.730469 0 L 7.992188 -4.066406 L 17.351562 -4.066406 L 18.613281 0 Z M 15.910156 -8.640625 L 9.46875 -8.640625 L 12.601562 -19.367188 Z M 15.910156 -8.640625 "/></g></g></g><g fill="#fcfaff" fill-opacity="1"><g transform="translate(339.737478, 404.622187)"><g><path d="M 18.71875 0 L 18.71875 -5.363281 L 8.785156 -5.363281 L 8.785156 -25.414062 L 2.449219 -25.414062 L 2.449219 0 Z M 18.71875 0 "/></g></g></g></svg>