<svg xmlns="http://www.w3.org/2000/svg" xmlns:xlink="http://www.w3.org/1999/xlink" width="816" zoomAndPan="magnify" viewBox="0 0 612 791.999994" height="1056" preserveAspectRatio="xMidYMid meet" version="1.0"><defs><g/><clipPath id="1151cef159"><rect x="0" width="110" y="0" height="154"/></clipPath><clipPath id="558306ca83"><path d="M 149 84 L 185 84 L 185 119 L 149 119 Z M 149 84 " clip-rule="nonzero"/></clipPath><clipPath id="63a540b8e1"><path d="M 154.695312 78.75 L 199.945312 90.167969 L 190.429688 127.871094 L 145.183594 116.457031 Z M 154.695312 78.75 " clip-rule="nonzero"/></clipPath><clipPath id="568ba80f04"><path d="M 154.695312 78.75 L 199.945312 90.167969 L 190.429688 127.871094 L 145.183594 116.457031 Z M 154.695312 78.75 " clip-rule="nonzero"/></clipPath><clipPath id="0e0f5f232c"><path d="M 157 99 L 161 99 L 161 110 L 157 110 Z M 157 99 " clip-rule="nonzero"/></clipPath><clipPath id="722e090fd7"><path d="M 154.695312 78.75 L 199.945312 90.167969 L 190.429688 127.871094 L 145.183594 116.457031 Z M 154.695312 78.75 " clip-rule="nonzero"/></clipPath><clipPath id="00ea2f76ab"><path d="M 154.695312 78.75 L 199.945312 90.167969 L 190.429688 127.871094 L 145.183594 116.457031 Z M 154.695312 78.75 " clip-rule="nonzero"/></clipPath><clipPath id="cf7834000b"><path d="M 186 97 L 191 97 L 191 111 L 186 111 Z M 186 97 " clip-rule="nonzero"/></clipPath><clipPath id="420d647405"><path d="M 154.695312 78.75 L 199.945312 90.167969 L 190.429688 127.871094 L 145.183594 116.457031 Z M 154.695312 78.75 " clip-rule="nonzero"/></clipPath><clipPath id="7e4095b4a8"><path d="M 154.695312 78.75 L 199.945312 90.167969 L 190.429688 127.871094 L 145.183594 116.457031 Z M 154.695312 78.75 " clip-rule="nonzero"/></clipPath><clipPath id="bc2b40f158"><path d="M 192 99 L 196 99 L 196 111 L 192 111 Z M 192 99 " clip-rule="nonzero"/></clipPath><clipPath id="9fe693aaeb"><path d="M 154.695312 78.75 L 199.945312 90.167969 L 190.429688 127.871094 L 145.183594 116.457031 Z M 154.695312 78.75 " clip-rule="nonzero"/></clipPath><clipPath id="cfcf3cf5f7"><path d="M 154.695312 78.75 L 199.945312 90.167969 L 190.429688 127.871094 L 145.183594 116.457031 Z M 154.695312 78.75 " clip-rule="nonzero"/></clipPath><clipPath id="8ccca38426"><path d="M 4 29 L 85.878906 29 L 85.878906 121 L 4 121 Z M 4 29 " clip-rule="nonzero"/></clipPath><clipPath id="320a752d67"><rect x="0" width="86" y="0" height="154"/></clipPath><clipPath id="5795038675"><rect x="0" width="89" y="0" height="154"/></clipPath><clipPath id="b24e6956ef"><rect x="0" width="89" y="0" height="154"/></clipPath><clipPath id="6449440cc1"><path d="M 0.285156 161.828125 L 159.515625 161.828125 L 159.515625 321.0625 L 0.285156 321.0625 Z M 0.285156 161.828125 " clip-rule="nonzero"/></clipPath><clipPath id="67c7b6335d"><path d="M 0.285156 0.828125 L 159.515625 0.828125 L 159.515625 160.0625 L 0.285156 160.0625 Z M 0.285156 0.828125 " clip-rule="nonzero"/></clipPath><clipPath id="6683887671"><rect x="0" width="160" y="0" height="161"/></clipPath><clipPath id="baaac7a46b"><path d="M 250 60 L 333 60 L 333 144 L 250 144 Z M 250 60 " clip-rule="nonzero"/></clipPath><clipPath id="1434d4d22e"><path d="M 249.53125 95.6875 L 289.914062 59.171875 L 332.949219 106.765625 L 292.566406 143.28125 Z M 249.53125 95.6875 " clip-rule="nonzero"/></clipPath><clipPath id="68c873b51c"><path d="M 16 11 L 75 11 L 75 72 L 16 72 Z M 16 11 " clip-rule="nonzero"/></clipPath><clipPath id="dcbe188ed3"><path d="M -0.46875 35.6875 L 39.914062 -0.828125 L 82.949219 46.765625 L 42.566406 83.28125 Z M -0.46875 35.6875 " clip-rule="nonzero"/></clipPath><clipPath id="6ca86ade5e"><path d="M 83.476562 47.394531 L 43.09375 83.910156 L 0.0585938 36.316406 L 40.441406 -0.199219 Z M 83.476562 47.394531 " clip-rule="nonzero"/></clipPath><clipPath id="92666d93a5"><rect x="0" width="83" y="0" height="84"/></clipPath><clipPath id="09ea0b8d0f"><path d="M 316 0.121094 L 377 0.121094 L 377 222 L 316 222 Z M 316 0.121094 " clip-rule="nonzero"/></clipPath><clipPath id="a49044773b"><rect x="0" width="61" y="0" height="222"/></clipPath><clipPath id="65d3db2c6e"><path d="M 341 9 L 473.078125 9 L 473.078125 209 L 341 209 Z M 341 9 " clip-rule="nonzero"/></clipPath><clipPath id="40b7e830a5"><rect x="0" width="133" y="0" height="200"/></clipPath><clipPath id="71b303a154"><path d="M 254 72 L 312 72 L 312 130 L 254 130 Z M 254 72 " clip-rule="nonzero"/></clipPath><clipPath id="8425ead907"><path d="M 251.382812 78.640625 L 319.738281 63.566406 L 332.300781 120.527344 L 263.945312 135.605469 Z M 251.382812 78.640625 " clip-rule="nonzero"/></clipPath><clipPath id="78343a9ad7"><path d="M 251.382812 78.640625 L 319.738281 63.566406 L 332.300781 120.527344 L 263.945312 135.605469 Z M 251.382812 78.640625 " clip-rule="nonzero"/></clipPath><clipPath id="638d753f54"><path d="M 271 103 L 278 103 L 278 119 L 271 119 Z M 271 103 " clip-rule="nonzero"/></clipPath><clipPath id="56965f0f3d"><path d="M 251.382812 78.640625 L 319.738281 63.566406 L 332.300781 120.527344 L 263.945312 135.605469 Z M 251.382812 78.640625 " clip-rule="nonzero"/></clipPath><clipPath id="873b3c91cb"><path d="M 251.382812 78.640625 L 319.738281 63.566406 L 332.300781 120.527344 L 263.945312 135.605469 Z M 251.382812 78.640625 " clip-rule="nonzero"/></clipPath><clipPath id="7db08f5f9e"><path d="M 309 80 L 318 80 L 318 100 L 309 100 Z M 309 80 " clip-rule="nonzero"/></clipPath><clipPath id="2cff1035b0"><path d="M 251.382812 78.640625 L 319.738281 63.566406 L 332.300781 120.527344 L 263.945312 135.605469 Z M 251.382812 78.640625 " clip-rule="nonzero"/></clipPath><clipPath id="a31ad0dbe2"><path d="M 251.382812 78.640625 L 319.738281 63.566406 L 332.300781 120.527344 L 263.945312 135.605469 Z M 251.382812 78.640625 " clip-rule="nonzero"/></clipPath><clipPath id="4fc59e5d0a"><path d="M 317 79 L 325 79 L 325 96 L 317 96 Z M 317 79 " clip-rule="nonzero"/></clipPath><clipPath id="20478275e3"><path d="M 251.382812 78.640625 L 319.738281 63.566406 L 332.300781 120.527344 L 263.945312 135.605469 Z M 251.382812 78.640625 " clip-rule="nonzero"/></clipPath><clipPath id="5e7c12895e"><path d="M 251.382812 78.640625 L 319.738281 63.566406 L 332.300781 120.527344 L 263.945312 135.605469 Z M 251.382812 78.640625 " clip-rule="nonzero"/></clipPath><clipPath id="a6e6539b0e"><path d="M 349 154 L 387 154 L 387 192 L 349 192 Z M 349 154 " clip-rule="nonzero"/></clipPath><clipPath id="f6caca4976"><path d="M 347.179688 157.464844 L 383.671875 151.710938 L 389.425781 188.207031 L 352.933594 193.960938 Z M 347.179688 157.464844 " clip-rule="nonzero"/></clipPath><clipPath id="d0220a1284"><path d="M 347.878906 161.910156 L 352.214844 189.398438 C 352.601562 191.855469 354.90625 193.53125 357.359375 193.144531 L 384.847656 188.808594 C 387.300781 188.421875 388.980469 186.117188 388.589844 183.664062 L 384.257812 156.175781 C 383.871094 153.71875 381.566406 152.042969 379.113281 152.429688 L 351.625 156.765625 C 349.167969 157.152344 347.492188 159.457031 347.878906 161.910156 Z M 347.878906 161.910156 " clip-rule="nonzero"/></clipPath><clipPath id="190e62f699"><path d="M 347.179688 157.464844 L 383.671875 151.710938 L 389.425781 188.207031 L 352.933594 193.960938 Z M 347.179688 157.464844 " clip-rule="nonzero"/></clipPath><clipPath id="372c7b804c"><path d="M 347.179688 157.464844 L 383.671875 151.710938 L 389.425781 188.207031 L 352.933594 193.960938 Z M 347.179688 157.464844 " clip-rule="nonzero"/></clipPath><clipPath id="24e90c352a"><path d="M 356 165 L 370 165 L 370 181 L 356 181 Z M 356 165 " clip-rule="nonzero"/></clipPath><clipPath id="41092a593b"><path d="M 347.179688 157.464844 L 383.671875 151.710938 L 389.425781 188.207031 L 352.933594 193.960938 Z M 347.179688 157.464844 " clip-rule="nonzero"/></clipPath><clipPath id="f79c524b3a"><path d="M 347.878906 161.910156 L 352.214844 189.398438 C 352.601562 191.855469 354.90625 193.53125 357.359375 193.144531 L 384.847656 188.808594 C 387.300781 188.421875 388.980469 186.117188 388.589844 183.664062 L 384.257812 156.175781 C 383.871094 153.71875 381.566406 152.042969 379.113281 152.429688 L 351.625 156.765625 C 349.167969 157.152344 347.492188 159.457031 347.878906 161.910156 Z M 347.878906 161.910156 " clip-rule="nonzero"/></clipPath><clipPath id="19b8ab4872"><path d="M 347.179688 157.464844 L 383.671875 151.710938 L 389.425781 188.207031 L 352.933594 193.960938 Z M 347.179688 157.464844 " clip-rule="nonzero"/></clipPath><clipPath id="0faa5cfe40"><path d="M 347.179688 157.464844 L 383.671875 151.710938 L 389.425781 188.207031 L 352.933594 193.960938 Z M 347.179688 157.464844 " clip-rule="nonzero"/></clipPath><clipPath id="e3f3148db0"><path d="M 370 169 L 373 169 L 373 177 L 370 177 Z M 370 169 " clip-rule="nonzero"/></clipPath><clipPath id="d7df12d38c"><path d="M 347.179688 157.464844 L 383.671875 151.710938 L 389.425781 188.207031 L 352.933594 193.960938 Z M 347.179688 157.464844 " clip-rule="nonzero"/></clipPath><clipPath id="8ff1fd3f66"><path d="M 347.878906 161.910156 L 352.214844 189.398438 C 352.601562 191.855469 354.90625 193.53125 357.359375 193.144531 L 384.847656 188.808594 C 387.300781 188.421875 388.980469 186.117188 388.589844 183.664062 L 384.257812 156.175781 C 383.871094 153.71875 381.566406 152.042969 379.113281 152.429688 L 351.625 156.765625 C 349.167969 157.152344 347.492188 159.457031 347.878906 161.910156 Z M 347.878906 161.910156 " clip-rule="nonzero"/></clipPath><clipPath id="774de73b96"><path d="M 347.179688 157.464844 L 383.671875 151.710938 L 389.425781 188.207031 L 352.933594 193.960938 Z M 347.179688 157.464844 " clip-rule="nonzero"/></clipPath><clipPath id="de0ad3253c"><path d="M 347.179688 157.464844 L 383.671875 151.710938 L 389.425781 188.207031 L 352.933594 193.960938 Z M 347.179688 157.464844 " clip-rule="nonzero"/></clipPath><clipPath id="2ffd07b721"><path d="M 372 167 L 377 167 L 377 178 L 372 178 Z M 372 167 " clip-rule="nonzero"/></clipPath><clipPath id="d258777f30"><path d="M 347.179688 157.464844 L 383.671875 151.710938 L 389.425781 188.207031 L 352.933594 193.960938 Z M 347.179688 157.464844 " clip-rule="nonzero"/></clipPath><clipPath id="7d968aca8d"><path d="M 347.878906 161.910156 L 352.214844 189.398438 C 352.601562 191.855469 354.90625 193.53125 357.359375 193.144531 L 384.847656 188.808594 C 387.300781 188.421875 388.980469 186.117188 388.589844 183.664062 L 384.257812 156.175781 C 383.871094 153.71875 381.566406 152.042969 379.113281 152.429688 L 351.625 156.765625 C 349.167969 157.152344 347.492188 159.457031 347.878906 161.910156 Z M 347.878906 161.910156 " clip-rule="nonzero"/></clipPath><clipPath id="dcc1da62e6"><path d="M 347.179688 157.464844 L 383.671875 151.710938 L 389.425781 188.207031 L 352.933594 193.960938 Z M 347.179688 157.464844 " clip-rule="nonzero"/></clipPath><clipPath id="96fe905442"><path d="M 347.179688 157.464844 L 383.671875 151.710938 L 389.425781 188.207031 L 352.933594 193.960938 Z M 347.179688 157.464844 " clip-rule="nonzero"/></clipPath><clipPath id="f93dbbdb70"><path d="M 374 165 L 380 165 L 380 179 L 374 179 Z M 374 165 " clip-rule="nonzero"/></clipPath><clipPath id="648519774f"><path d="M 347.179688 157.464844 L 383.671875 151.710938 L 389.425781 188.207031 L 352.933594 193.960938 Z M 347.179688 157.464844 " clip-rule="nonzero"/></clipPath><clipPath id="52023a83e6"><path d="M 347.878906 161.910156 L 352.214844 189.398438 C 352.601562 191.855469 354.90625 193.53125 357.359375 193.144531 L 384.847656 188.808594 C 387.300781 188.421875 388.980469 186.117188 388.589844 183.664062 L 384.257812 156.175781 C 383.871094 153.71875 381.566406 152.042969 379.113281 152.429688 L 351.625 156.765625 C 349.167969 157.152344 347.492188 159.457031 347.878906 161.910156 Z M 347.878906 161.910156 " clip-rule="nonzero"/></clipPath><clipPath id="844daab862"><path d="M 347.179688 157.464844 L 383.671875 151.710938 L 389.425781 188.207031 L 352.933594 193.960938 Z M 347.179688 157.464844 " clip-rule="nonzero"/></clipPath><clipPath id="9645e561ca"><path d="M 347.179688 157.464844 L 383.671875 151.710938 L 389.425781 188.207031 L 352.933594 193.960938 Z M 347.179688 157.464844 " clip-rule="nonzero"/></clipPath><clipPath id="78caa12566"><path d="M 1 11 L 63.878906 11 L 63.878906 84 L 1 84 Z M 1 11 " clip-rule="nonzero"/></clipPath><clipPath id="fd68b4a559"><rect x="0" width="64" y="0" height="116"/></clipPath><clipPath id="042c3ccf5a"><path d="M 347 154 L 387 154 L 387 194 L 347 194 Z M 347 154 " clip-rule="nonzero"/></clipPath><clipPath id="9b4aa8a0e2"><path d="M 345.195312 158.011719 L 383.605469 151.953125 L 389.664062 190.367188 L 351.25 196.425781 Z M 345.195312 158.011719 " clip-rule="nonzero"/></clipPath><clipPath id="5506b848db"><path d="M 345.542969 160.234375 L 350.851562 193.882812 C 351.042969 195.109375 352.195312 195.949219 353.421875 195.753906 L 387.070312 190.449219 C 388.296875 190.253906 389.136719 189.101562 388.941406 187.875 L 383.636719 154.226562 C 383.441406 153 382.292969 152.164062 381.0625 152.355469 L 347.417969 157.660156 C 346.1875 157.855469 345.351562 159.007812 345.542969 160.234375 Z M 345.542969 160.234375 " clip-rule="nonzero"/></clipPath><clipPath id="742d4526ee"><path d="M 345.195312 158.011719 L 383.605469 151.953125 L 389.664062 190.367188 L 351.25 196.425781 Z M 345.195312 158.011719 " clip-rule="nonzero"/></clipPath><clipPath id="717d414e61"><path d="M 345.195312 158.011719 L 383.605469 151.953125 L 389.664062 190.367188 L 351.25 196.425781 Z M 345.195312 158.011719 " clip-rule="nonzero"/></clipPath><clipPath id="57012d91ed"><path d="M 355 166 L 369 166 L 369 183 L 355 183 Z M 355 166 " clip-rule="nonzero"/></clipPath><clipPath id="10dd374c9b"><path d="M 345.195312 158.011719 L 383.605469 151.953125 L 389.664062 190.367188 L 351.25 196.425781 Z M 345.195312 158.011719 " clip-rule="nonzero"/></clipPath><clipPath id="0ee5d119cb"><path d="M 345.542969 160.234375 L 350.851562 193.882812 C 351.042969 195.109375 352.195312 195.949219 353.421875 195.753906 L 387.070312 190.449219 C 388.296875 190.253906 389.136719 189.101562 388.941406 187.875 L 383.636719 154.226562 C 383.441406 153 382.292969 152.164062 381.0625 152.355469 L 347.417969 157.660156 C 346.1875 157.855469 345.351562 159.007812 345.542969 160.234375 Z M 345.542969 160.234375 " clip-rule="nonzero"/></clipPath><clipPath id="d8ea395e66"><path d="M 345.195312 158.011719 L 383.605469 151.953125 L 389.664062 190.367188 L 351.25 196.425781 Z M 345.195312 158.011719 " clip-rule="nonzero"/></clipPath><clipPath id="d2869e4be6"><path d="M 345.195312 158.011719 L 383.605469 151.953125 L 389.664062 190.367188 L 351.25 196.425781 Z M 345.195312 158.011719 " clip-rule="nonzero"/></clipPath><clipPath id="aa104b5aec"><path d="M 369 170 L 373 170 L 373 178 L 369 178 Z M 369 170 " clip-rule="nonzero"/></clipPath><clipPath id="b4735a0e9a"><path d="M 345.195312 158.011719 L 383.605469 151.953125 L 389.664062 190.367188 L 351.25 196.425781 Z M 345.195312 158.011719 " clip-rule="nonzero"/></clipPath><clipPath id="d8c3eafd7b"><path d="M 345.542969 160.234375 L 350.851562 193.882812 C 351.042969 195.109375 352.195312 195.949219 353.421875 195.753906 L 387.070312 190.449219 C 388.296875 190.253906 389.136719 189.101562 388.941406 187.875 L 383.636719 154.226562 C 383.441406 153 382.292969 152.164062 381.0625 152.355469 L 347.417969 157.660156 C 346.1875 157.855469 345.351562 159.007812 345.542969 160.234375 Z M 345.542969 160.234375 " clip-rule="nonzero"/></clipPath><clipPath id="9a1eb09bcc"><path d="M 345.195312 158.011719 L 383.605469 151.953125 L 389.664062 190.367188 L 351.25 196.425781 Z M 345.195312 158.011719 " clip-rule="nonzero"/></clipPath><clipPath id="f06755e728"><path d="M 345.195312 158.011719 L 383.605469 151.953125 L 389.664062 190.367188 L 351.25 196.425781 Z M 345.195312 158.011719 " clip-rule="nonzero"/></clipPath><clipPath id="cd5273ea45"><path d="M 371 168 L 376 168 L 376 180 L 371 180 Z M 371 168 " clip-rule="nonzero"/></clipPath><clipPath id="2a75dcc3ec"><path d="M 345.195312 158.011719 L 383.605469 151.953125 L 389.664062 190.367188 L 351.25 196.425781 Z M 345.195312 158.011719 " clip-rule="nonzero"/></clipPath><clipPath id="8e87072463"><path d="M 345.542969 160.234375 L 350.851562 193.882812 C 351.042969 195.109375 352.195312 195.949219 353.421875 195.753906 L 387.070312 190.449219 C 388.296875 190.253906 389.136719 189.101562 388.941406 187.875 L 383.636719 154.226562 C 383.441406 153 382.292969 152.164062 381.0625 152.355469 L 347.417969 157.660156 C 346.1875 157.855469 345.351562 159.007812 345.542969 160.234375 Z M 345.542969 160.234375 " clip-rule="nonzero"/></clipPath><clipPath id="75c707b81a"><path d="M 345.195312 158.011719 L 383.605469 151.953125 L 389.664062 190.367188 L 351.25 196.425781 Z M 345.195312 158.011719 " clip-rule="nonzero"/></clipPath><clipPath id="b1636696fc"><path d="M 345.195312 158.011719 L 383.605469 151.953125 L 389.664062 190.367188 L 351.25 196.425781 Z M 345.195312 158.011719 " clip-rule="nonzero"/></clipPath><clipPath id="1f27bfd850"><path d="M 374 165 L 380 165 L 380 181 L 374 181 Z M 374 165 " clip-rule="nonzero"/></clipPath><clipPath id="0c6f6facaf"><path d="M 345.195312 158.011719 L 383.605469 151.953125 L 389.664062 190.367188 L 351.25 196.425781 Z M 345.195312 158.011719 " clip-rule="nonzero"/></clipPath><clipPath id="acb6758a20"><path d="M 345.542969 160.234375 L 350.851562 193.882812 C 351.042969 195.109375 352.195312 195.949219 353.421875 195.753906 L 387.070312 190.449219 C 388.296875 190.253906 389.136719 189.101562 388.941406 187.875 L 383.636719 154.226562 C 383.441406 153 382.292969 152.164062 381.0625 152.355469 L 347.417969 157.660156 C 346.1875 157.855469 345.351562 159.007812 345.542969 160.234375 Z M 345.542969 160.234375 " clip-rule="nonzero"/></clipPath><clipPath id="79aaccce7b"><path d="M 345.195312 158.011719 L 383.605469 151.953125 L 389.664062 190.367188 L 351.25 196.425781 Z M 345.195312 158.011719 " clip-rule="nonzero"/></clipPath><clipPath id="57018e4851"><path d="M 345.195312 158.011719 L 383.605469 151.953125 L 389.664062 190.367188 L 351.25 196.425781 Z M 345.195312 158.011719 " clip-rule="nonzero"/></clipPath><clipPath id="60dd3e165d"><rect x="0" width="474" y="0" height="322"/></clipPath></defs><rect x="-61.2" width="734.4" fill="#ffffff" y="-79.199999" height="950.399992" fill-opacity="1"/><rect x="-61.2" width="734.4" fill="#fcfaff" y="-79.199999" height="950.399992" fill-opacity="1"/><g transform="matrix(1, 0, 0, 1, 59, 273)"><g clip-path="url(#60dd3e165d)"><g transform="matrix(1, 0, 0, 1, 15, 24)"><g clip-path="url(#1151cef159)"><g fill="#000000" fill-opacity="0"><g transform="translate(1.112096, 115.262508)"><g><path d="M 104.070312 0 L 104.070312 -107.890625 L 77.019531 -107.890625 L 77.019531 -68.921875 L 37.59375 -68.921875 L 37.59375 -107.890625 L 10.390625 -107.890625 L 10.390625 0 L 37.59375 0 L 37.59375 -46 L 77.019531 -46 L 77.019531 0 Z M 104.070312 0 "/></g></g></g><g fill="#ffffff" fill-opacity="1"><g transform="translate(1.112096, 115.262508)"><g><path d="M 100.628906 0 L 100.628906 -107.890625 L 104.070312 -107.890625 L 104.070312 -104.449219 L 77.019531 -104.449219 L 77.019531 -107.890625 L 80.457031 -107.890625 L 80.457031 -65.484375 L 34.15625 -65.484375 L 34.15625 -107.890625 L 37.59375 -107.890625 L 37.59375 -104.449219 L 10.390625 -104.449219 L 10.390625 -107.890625 L 13.828125 -107.890625 L 13.828125 0 L 10.390625 0 L 10.390625 -3.4375 L 37.59375 -3.4375 L 37.59375 0 L 34.15625 0 L 34.15625 -49.4375 L 80.457031 -49.4375 L 80.457031 0 L 77.019531 0 L 77.019531 -3.4375 L 104.070312 -3.4375 L 104.070312 0 Z M 107.507812 3.4375 L 73.582031 3.4375 L 73.582031 -46 L 77.019531 -46 L 77.019531 -42.558594 L 37.59375 -42.558594 L 37.59375 -46 L 41.03125 -46 L 41.03125 3.4375 L 6.953125 3.4375 L 6.953125 -111.328125 L 41.03125 -111.328125 L 41.03125 -68.921875 L 37.59375 -68.921875 L 37.59375 -72.359375 L 77.019531 -72.359375 L 77.019531 -68.921875 L 73.582031 -68.921875 L 73.582031 -111.328125 L 107.507812 -111.328125 Z M 107.507812 3.4375 "/></g></g></g><g fill="#1900b7" fill-opacity="1"><g transform="translate(1.112096, 115.262508)"><g><path d="M 104.070312 0 L 104.070312 -107.890625 L 77.019531 -107.890625 L 77.019531 -68.921875 L 37.59375 -68.921875 L 37.59375 -107.890625 L 10.390625 -107.890625 L 10.390625 0 L 37.59375 0 L 37.59375 -46 L 77.019531 -46 L 77.019531 0 Z M 104.070312 0 "/></g></g></g></g></g><g clip-path="url(#558306ca83)"><g clip-path="url(#63a540b8e1)"><g clip-path="url(#568ba80f04)"><path fill="#ffffff" d="M 184.332031 106.859375 C 183.925781 105.683594 182.640625 105.0625 181.464844 105.472656 L 173.507812 108.238281 C 173.226562 108.335938 172.917969 108.214844 172.78125 107.953125 C 172.757812 107.90625 172.730469 107.863281 172.707031 107.816406 C 172.5625 107.542969 172.652344 107.203125 172.910156 107.035156 L 183.808594 99.855469 C 184.808594 99.195312 185.1875 97.863281 184.59375 96.820312 C 183.941406 95.679688 182.476562 95.339844 181.394531 96.050781 L 170.671875 103.113281 C 170.390625 103.296875 170.015625 103.21875 169.835938 102.941406 C 169.835938 102.9375 169.832031 102.933594 169.832031 102.929688 C 169.667969 102.675781 169.714844 102.34375 169.945312 102.148438 L 181.496094 92.3125 C 182.410156 91.535156 182.621094 90.167969 181.902344 89.203125 C 181.117188 88.152344 179.621094 87.992188 178.636719 88.832031 L 167.433594 98.367188 C 167.175781 98.589844 166.78125 98.546875 166.570312 98.277344 C 166.523438 98.214844 166.476562 98.152344 166.429688 98.09375 C 166.242188 97.855469 166.261719 97.519531 166.476562 97.304688 L 175.6875 87.972656 C 176.527344 87.121094 176.621094 85.738281 175.824219 84.84375 C 174.949219 83.863281 173.441406 83.835938 172.535156 84.753906 L 162.566406 94.851562 C 162.566406 94.851562 162.5625 94.855469 162.5625 94.855469 L 162.03125 95.394531 C 161.09375 96.324219 160.269531 97.007812 159.4375 97.277344 C 157.875 97.785156 156.582031 96.90625 156.574219 95.582031 C 156.5625 93.921875 156.734375 92.171875 156.832031 89.367188 C 156.9375 86.304688 153.160156 85.753906 152.640625 87.507812 C 152.152344 89.160156 151.144531 94.753906 149.601562 101.90625 C 148.058594 109.054688 152.566406 115.335938 158.09375 118.1875 C 163.617188 121.039062 172.078125 113.507812 174.175781 112.777344 C 176.273438 112.046875 182.945312 109.726562 182.945312 109.726562 C 184.121094 109.316406 184.742188 108.03125 184.332031 106.859375 Z M 184.332031 106.859375 " fill-opacity="1" fill-rule="nonzero"/></g></g></g><g clip-path="url(#0e0f5f232c)"><g clip-path="url(#722e090fd7)"><g clip-path="url(#00ea2f76ab)"><path fill="#ffffff" d="M 157.5 109.886719 C 157.410156 109.863281 157.324219 109.820312 157.25 109.757812 C 156.996094 109.539062 156.96875 109.15625 157.191406 108.902344 C 158.578125 107.300781 159.824219 103.34375 158.625 100.789062 C 158.480469 100.484375 158.609375 100.125 158.914062 99.980469 C 159.21875 99.839844 159.578125 99.96875 159.71875 100.273438 C 161.148438 103.308594 159.742188 107.808594 158.105469 109.695312 C 157.949219 109.875 157.714844 109.941406 157.5 109.886719 Z M 157.5 109.886719 " fill-opacity="1" fill-rule="nonzero"/></g></g></g><g clip-path="url(#cf7834000b)"><g clip-path="url(#420d647405)"><g clip-path="url(#7e4095b4a8)"><path fill="#ffffff" d="M 186.917969 110.738281 C 186.828125 110.714844 186.742188 110.671875 186.667969 110.605469 C 186.414062 110.386719 186.386719 110.003906 186.605469 109.753906 C 188.539062 107.523438 190.273438 102.003906 188.597656 98.429688 C 188.457031 98.128906 188.585938 97.769531 188.886719 97.625 C 189.191406 97.484375 189.550781 97.613281 189.695312 97.917969 C 191.605469 101.984375 189.714844 108.011719 187.523438 110.546875 C 187.367188 110.726562 187.128906 110.789062 186.914062 110.738281 Z M 186.917969 110.738281 " fill-opacity="1" fill-rule="nonzero"/></g></g></g><g clip-path="url(#bc2b40f158)"><g clip-path="url(#9fe693aaeb)"><g clip-path="url(#cfcf3cf5f7)"><path fill="#ffffff" d="M 192.546875 110.140625 C 192.457031 110.117188 192.375 110.074219 192.300781 110.011719 C 192.046875 109.792969 192.019531 109.410156 192.238281 109.15625 C 193.5 107.699219 194.71875 103.453125 193.671875 100.371094 C 193.566406 100.054688 193.734375 99.710938 194.050781 99.605469 C 194.367188 99.496094 194.714844 99.664062 194.820312 99.984375 C 196.035156 103.5625 194.667969 108.203125 193.152344 109.949219 C 193 110.128906 192.761719 110.195312 192.546875 110.140625 Z M 192.546875 110.140625 " fill-opacity="1" fill-rule="nonzero"/></g></g></g><g transform="matrix(1, 0, 0, 1, 104, 22)"><g clip-path="url(#320a752d67)"><g fill="#000000" fill-opacity="0"><g transform="translate(0.964657, 115.170711)"><g><path d="M 80.382812 0 C 78.394531 -2.902344 78.089844 -5.5 78.089844 -12.378906 L 78.089844 -58.988281 C 78.089844 -78.242188 57.460938 -81.910156 43.707031 -81.910156 C 26.285156 -81.910156 10.085938 -74.726562 10.085938 -57.152344 L 33.621094 -57.152344 C 34.230469 -60.667969 36.066406 -66.476562 46 -66.476562 C 54.554688 -66.476562 55.015625 -59.597656 55.015625 -56.847656 L 55.015625 -52.417969 C 37.441406 -49.054688 29.035156 -47.375 23.535156 -45.082031 C 13.601562 -40.957031 6.722656 -32.089844 6.722656 -22.160156 C 6.722656 -10.695312 14.671875 2.140625 32.855469 2.140625 C 45.082031 2.140625 51.042969 -3.054688 57.308594 -7.183594 L 57.308594 0 Z M 55.015625 -38.203125 L 55.015625 -34.691406 C 55.015625 -23.382812 47.984375 -15.128906 38.816406 -15.128906 C 32.089844 -15.128906 29.800781 -20.476562 29.800781 -23.226562 C 29.800781 -26.742188 31.785156 -30.5625 39.886719 -33.160156 Z M 55.015625 -38.203125 "/></g></g></g><g clip-path="url(#8ccca38426)"><g fill="#ffffff" fill-opacity="1"><g transform="translate(0.964657, 115.170711)"><g><path d="M 77.542969 1.941406 C 76.300781 0.125 75.488281 -1.890625 75.101562 -4.113281 C 74.800781 -5.847656 74.652344 -8.601562 74.652344 -12.378906 L 74.652344 -58.988281 C 74.652344 -66.125 71.289062 -71.320312 64.558594 -74.574219 C 59.183594 -77.171875 52.230469 -78.472656 43.707031 -78.472656 C 39.472656 -78.472656 35.539062 -78.039062 31.902344 -77.167969 C 28.144531 -76.273438 24.917969 -74.957031 22.21875 -73.226562 C 16.421875 -69.511719 13.523438 -64.152344 13.523438 -57.152344 L 10.085938 -57.152344 L 10.085938 -60.59375 L 33.621094 -60.59375 L 33.621094 -57.152344 L 30.230469 -57.742188 C 30.792969 -60.964844 31.984375 -63.546875 33.808594 -65.488281 C 36.578125 -68.4375 40.644531 -69.914062 46 -69.914062 C 48.585938 -69.914062 50.8125 -69.398438 52.679688 -68.367188 C 54.378906 -67.429688 55.71875 -66.109375 56.699219 -64.40625 C 57.867188 -62.367188 58.453125 -59.847656 58.453125 -56.847656 L 58.453125 -49.574219 L 55.660156 -49.039062 C 45.859375 -47.164062 39.140625 -45.816406 35.503906 -44.992188 C 30.78125 -43.925781 27.234375 -42.898438 24.855469 -41.90625 C 20.402344 -40.058594 16.839844 -37.335938 14.160156 -33.742188 C 11.496094 -30.164062 10.164062 -26.304688 10.164062 -22.160156 C 10.164062 -19.59375 10.601562 -17.109375 11.480469 -14.707031 C 12.40625 -12.175781 13.746094 -9.953125 15.503906 -8.035156 C 19.625 -3.542969 25.410156 -1.300781 32.855469 -1.300781 C 37.167969 -1.300781 41.078125 -2.039062 44.59375 -3.519531 C 46 -4.109375 47.464844 -4.871094 48.996094 -5.800781 C 49.945312 -6.375 51.324219 -7.28125 53.136719 -8.515625 C 54.144531 -9.203125 54.902344 -9.714844 55.414062 -10.054688 L 60.746094 -13.5625 L 60.746094 0 L 57.308594 0 L 57.308594 -3.4375 L 80.382812 -3.4375 L 80.382812 0 Z M 86.902344 3.4375 L 53.867188 3.4375 L 53.867188 -7.183594 L 57.308594 -7.183594 L 59.199219 -4.3125 C 58.71875 -3.996094 57.988281 -3.503906 57.011719 -2.835938 C 55.101562 -1.53125 53.617188 -0.558594 52.5625 0.0820312 C 50.746094 1.183594 48.976562 2.097656 47.261719 2.820312 C 42.894531 4.65625 38.09375 5.578125 32.855469 5.578125 C 28.039062 5.578125 23.675781 4.761719 19.773438 3.125 C 16.136719 1.605469 13.023438 -0.566406 10.4375 -3.386719 C 8.0625 -5.972656 6.257812 -8.957031 5.019531 -12.347656 C 3.863281 -15.511719 3.285156 -18.78125 3.285156 -22.160156 C 3.285156 -27.824219 5.074219 -33.054688 8.648438 -37.851562 C 12.078125 -42.457031 16.597656 -45.925781 22.210938 -48.253906 C 24.953125 -49.398438 28.878906 -50.546875 33.988281 -51.703125 C 37.699219 -52.539062 44.492188 -53.90625 54.367188 -55.792969 L 55.015625 -52.417969 L 51.574219 -52.417969 L 51.574219 -56.847656 C 51.574219 -58.625 51.296875 -60.003906 50.734375 -60.980469 C 49.945312 -62.351562 48.367188 -63.039062 46 -63.039062 C 42.625 -63.039062 40.234375 -62.285156 38.820312 -60.777344 C 37.9375 -59.839844 37.332031 -58.433594 37.007812 -56.566406 L 36.511719 -53.714844 L 6.648438 -53.714844 L 6.648438 -57.152344 C 6.648438 -62 7.730469 -66.328125 9.902344 -70.136719 C 11.910156 -73.667969 14.78125 -76.628906 18.507812 -79.015625 C 21.859375 -81.167969 25.792969 -82.78125 30.304688 -83.859375 C 34.464844 -84.851562 38.933594 -85.347656 43.707031 -85.347656 C 53.28125 -85.347656 61.230469 -83.820312 67.550781 -80.765625 C 71.808594 -78.707031 75.113281 -76.011719 77.460938 -72.671875 C 80.171875 -68.824219 81.527344 -64.261719 81.527344 -58.988281 L 81.527344 -12.378906 C 81.527344 -8.996094 81.644531 -6.632812 81.878906 -5.285156 C 82.09375 -4.050781 82.539062 -2.933594 83.21875 -1.941406 Z M 58.453125 -38.203125 L 58.453125 -34.691406 C 58.453125 -31.53125 57.976562 -28.554688 57.027344 -25.757812 C 56.089844 -22.996094 54.746094 -20.5625 52.992188 -18.464844 C 51.207031 -16.324219 49.117188 -14.671875 46.722656 -13.503906 C 44.242188 -12.296875 41.605469 -11.691406 38.816406 -11.691406 C 34.753906 -11.691406 31.535156 -13.105469 29.15625 -15.933594 C 28.230469 -17.035156 27.519531 -18.269531 27.027344 -19.636719 C 26.582031 -20.871094 26.359375 -22.066406 26.359375 -23.226562 C 26.359375 -29.367188 30.519531 -33.769531 38.835938 -36.4375 L 58.453125 -42.976562 Z M 51.574219 -38.203125 L 55.015625 -38.203125 L 56.101562 -34.941406 L 40.9375 -29.886719 C 37.808594 -28.882812 35.625 -27.679688 34.390625 -26.269531 C 33.621094 -25.394531 33.238281 -24.382812 33.238281 -23.226562 C 33.238281 -22.867188 33.324219 -22.449219 33.496094 -21.96875 C 33.714844 -21.367188 34.019531 -20.832031 34.417969 -20.359375 C 35.421875 -19.164062 36.890625 -18.566406 38.816406 -18.566406 C 42.351562 -18.566406 45.316406 -20.003906 47.714844 -22.871094 C 50.289062 -25.957031 51.574219 -29.894531 51.574219 -34.691406 Z M 51.574219 -38.203125 "/></g></g></g></g><g fill="#1900b7" fill-opacity="1"><g transform="translate(0.964657, 115.170711)"><g><path d="M 80.382812 0 C 78.394531 -2.902344 78.089844 -5.5 78.089844 -12.378906 L 78.089844 -58.988281 C 78.089844 -78.242188 57.460938 -81.910156 43.707031 -81.910156 C 26.285156 -81.910156 10.085938 -74.726562 10.085938 -57.152344 L 33.621094 -57.152344 C 34.230469 -60.667969 36.066406 -66.476562 46 -66.476562 C 54.554688 -66.476562 55.015625 -59.597656 55.015625 -56.847656 L 55.015625 -52.417969 C 37.441406 -49.054688 29.035156 -47.375 23.535156 -45.082031 C 13.601562 -40.957031 6.722656 -32.089844 6.722656 -22.160156 C 6.722656 -10.695312 14.671875 2.140625 32.855469 2.140625 C 45.082031 2.140625 51.042969 -3.054688 57.308594 -7.183594 L 57.308594 0 Z M 55.015625 -38.203125 L 55.015625 -34.691406 C 55.015625 -23.382812 47.984375 -15.128906 38.816406 -15.128906 C 32.089844 -15.128906 29.800781 -20.476562 29.800781 -23.226562 C 29.800781 -26.742188 31.785156 -30.5625 39.886719 -33.160156 Z M 55.015625 -38.203125 "/></g></g></g></g></g><g transform="matrix(1, 0, 0, 1, 170, 22)"><g clip-path="url(#5795038675)"><g fill="#000000" fill-opacity="0"><g transform="translate(1.161237, 115.170711)"><g><path d="M 81.757812 0 L 81.757812 -57.308594 C 81.757812 -73.503906 73.199219 -81.757812 57 -81.757812 C 45.84375 -81.757812 38.355469 -77.324219 34.535156 -72.742188 L 34.535156 -79.769531 L 10.695312 -79.769531 L 10.695312 0 L 34.230469 0 L 34.230469 -44.621094 C 34.230469 -55.320312 35.757812 -62.960938 46.609375 -62.960938 C 56.085938 -62.960938 58.222656 -56.695312 58.222656 -49.207031 L 58.222656 0 Z M 81.757812 0 "/></g></g></g><g fill="#ffffff" fill-opacity="1"><g transform="translate(1.161237, 115.170711)"><g><path d="M 78.320312 0 L 78.320312 -57.308594 C 78.320312 -64.417969 76.5625 -69.703125 73.046875 -73.152344 C 69.535156 -76.597656 64.1875 -78.320312 57 -78.320312 C 52.3125 -78.320312 48.121094 -77.488281 44.425781 -75.832031 C 41.402344 -74.472656 38.988281 -72.710938 37.179688 -70.539062 L 31.097656 -63.246094 L 31.097656 -79.769531 L 34.535156 -79.769531 L 34.535156 -76.332031 L 10.695312 -76.332031 L 10.695312 -79.769531 L 14.136719 -79.769531 L 14.136719 0 L 10.695312 0 L 10.695312 -3.4375 L 34.230469 -3.4375 L 34.230469 0 L 30.792969 0 L 30.792969 -44.621094 C 30.792969 -47.769531 30.941406 -50.390625 31.234375 -52.480469 C 31.625 -55.238281 32.320312 -57.554688 33.320312 -59.425781 C 35.808594 -64.074219 40.238281 -66.398438 46.609375 -66.398438 C 52.191406 -66.398438 56.257812 -64.546875 58.804688 -60.839844 C 60.710938 -58.066406 61.660156 -54.1875 61.660156 -49.207031 L 61.660156 0 L 58.222656 0 L 58.222656 -3.4375 L 81.757812 -3.4375 L 81.757812 0 Z M 85.195312 3.4375 L 54.785156 3.4375 L 54.785156 -49.207031 C 54.785156 -52.765625 54.234375 -55.34375 53.136719 -56.945312 C 51.953125 -58.664062 49.78125 -59.523438 46.609375 -59.523438 C 44.550781 -59.523438 42.917969 -59.203125 41.707031 -58.5625 C 40.730469 -58.042969 39.957031 -57.25 39.382812 -56.179688 C 38.242188 -54.046875 37.667969 -50.195312 37.667969 -44.621094 L 37.667969 3.4375 L 7.257812 3.4375 L 7.257812 -83.210938 L 37.976562 -83.210938 L 37.976562 -72.742188 L 34.535156 -72.742188 L 31.894531 -74.941406 C 34.382812 -77.925781 37.621094 -80.3125 41.609375 -82.105469 C 46.199219 -84.164062 51.328125 -85.195312 57 -85.195312 C 66.0625 -85.195312 73.015625 -82.816406 77.863281 -78.058594 C 82.75 -73.261719 85.195312 -66.34375 85.195312 -57.308594 Z M 85.195312 3.4375 "/></g></g></g><g fill="#1900b7" fill-opacity="1"><g transform="translate(1.161237, 115.170711)"><g><path d="M 81.757812 0 L 81.757812 -57.308594 C 81.757812 -73.503906 73.199219 -81.757812 57 -81.757812 C 45.84375 -81.757812 38.355469 -77.324219 34.535156 -72.742188 L 34.535156 -79.769531 L 10.695312 -79.769531 L 10.695312 0 L 34.230469 0 L 34.230469 -44.621094 C 34.230469 -55.320312 35.757812 -62.960938 46.609375 -62.960938 C 56.085938 -62.960938 58.222656 -56.695312 58.222656 -49.207031 L 58.222656 0 Z M 81.757812 0 "/></g></g></g></g></g><g transform="matrix(1, 0, 0, 1, 238, 22)"><g clip-path="url(#b24e6956ef)"><g fill="#000000" fill-opacity="0"><g transform="translate(1.695267, 115.170711)"><g><path d="M 81.910156 0 L 81.910156 -107.890625 L 59.140625 -107.890625 L 59.140625 -73.8125 C 56.085938 -76.257812 49.207031 -81.910156 38.050781 -81.910156 C 16.351562 -81.910156 4.738281 -62.960938 4.738281 -39.273438 C 4.738281 -12.378906 20.476562 2.140625 39.273438 2.140625 C 43.554688 2.140625 51.804688 1.375 60.515625 -7.488281 L 60.515625 0 Z M 28.578125 -39.425781 C 28.578125 -50.734375 32.398438 -64.335938 44.929688 -64.335938 C 57.765625 -64.335938 59.597656 -49.207031 59.597656 -39.273438 C 59.597656 -35.453125 58.988281 -15.28125 43.707031 -15.28125 C 30.105469 -15.28125 28.578125 -32.398438 28.578125 -39.425781 Z M 28.578125 -39.425781 "/></g></g></g><g fill="#ffffff" fill-opacity="1"><g transform="translate(1.695267, 115.170711)"><g><path d="M 78.472656 0 L 78.472656 -107.890625 L 81.910156 -107.890625 L 81.910156 -104.449219 L 59.140625 -104.449219 L 59.140625 -107.890625 L 62.578125 -107.890625 L 62.578125 -66.65625 L 56.992188 -71.125 C 56.960938 -71.152344 56.910156 -71.191406 56.839844 -71.25 C 54.335938 -73.253906 52.046875 -74.757812 49.964844 -75.765625 C 46.238281 -77.570312 42.269531 -78.472656 38.050781 -78.472656 C 33.320312 -78.472656 29.0625 -77.492188 25.273438 -75.527344 C 21.6875 -73.667969 18.605469 -70.972656 16.035156 -67.449219 C 13.492188 -63.960938 11.546875 -59.8125 10.203125 -55.003906 C 8.851562 -50.171875 8.175781 -44.925781 8.175781 -39.273438 C 8.175781 -33.113281 9.03125 -27.546875 10.742188 -22.574219 C 12.324219 -17.972656 14.582031 -14.042969 17.515625 -10.78125 C 20.296875 -7.683594 23.5625 -5.328125 27.3125 -3.707031 C 31.023438 -2.101562 35.007812 -1.300781 39.273438 -1.300781 C 46.167969 -1.300781 52.429688 -4.164062 58.0625 -9.898438 L 63.953125 -15.890625 L 63.953125 0 L 60.515625 0 L 60.515625 -3.4375 L 81.910156 -3.4375 L 81.910156 0 Z M 85.347656 3.4375 L 57.078125 3.4375 L 57.078125 -7.488281 L 60.515625 -7.488281 L 62.96875 -5.078125 C 55.988281 2.027344 48.089844 5.578125 39.273438 5.578125 C 34.058594 5.578125 29.164062 4.585938 24.582031 2.605469 C 19.914062 0.585938 15.851562 -2.34375 12.398438 -6.183594 C 8.84375 -10.136719 6.125 -14.855469 4.238281 -20.339844 C 2.277344 -26.035156 1.300781 -32.347656 1.300781 -39.273438 C 1.300781 -45.554688 2.058594 -51.417969 3.578125 -56.855469 C 5.148438 -62.464844 7.449219 -67.347656 10.480469 -71.5 C 13.6875 -75.898438 17.5625 -79.277344 22.109375 -81.632812 C 26.886719 -84.109375 32.203125 -85.347656 38.050781 -85.347656 C 43.320312 -85.347656 48.289062 -84.21875 52.960938 -81.957031 C 55.507812 -80.722656 58.234375 -78.941406 61.136719 -76.617188 C 61.210938 -76.558594 61.257812 -76.519531 61.289062 -76.496094 L 59.140625 -73.8125 L 55.703125 -73.8125 L 55.703125 -111.328125 L 85.347656 -111.328125 Z M 25.136719 -39.425781 C 25.136719 -46.695312 26.429688 -52.792969 29.007812 -57.71875 C 30.613281 -60.785156 32.660156 -63.171875 35.144531 -64.871094 C 37.972656 -66.808594 41.234375 -67.773438 44.929688 -67.773438 C 48.757812 -67.773438 52.039062 -66.6875 54.777344 -64.507812 C 57.085938 -62.671875 58.914062 -60.113281 60.257812 -56.835938 C 62.109375 -52.324219 63.039062 -46.46875 63.039062 -39.273438 C 63.039062 -33.859375 62.226562 -28.984375 60.605469 -24.640625 C 59.230469 -20.964844 57.332031 -18.058594 54.914062 -15.917969 C 51.84375 -13.203125 48.105469 -11.84375 43.707031 -11.84375 C 39.699219 -11.84375 36.265625 -13.039062 33.402344 -15.425781 C 31.074219 -17.367188 29.222656 -20.035156 27.851562 -23.429688 C 26.042969 -27.914062 25.136719 -33.246094 25.136719 -39.425781 Z M 32.015625 -39.425781 C 32.015625 -34.136719 32.753906 -29.660156 34.230469 -26.003906 C 36.191406 -21.148438 39.347656 -18.71875 43.707031 -18.71875 C 48.601562 -18.71875 52.085938 -21.496094 54.164062 -27.050781 C 55.496094 -30.613281 56.160156 -34.6875 56.160156 -39.273438 C 56.160156 -45.566406 55.40625 -50.550781 53.898438 -54.222656 C 53.003906 -56.398438 51.871094 -58.03125 50.496094 -59.125 C 49.011719 -60.308594 47.15625 -60.898438 44.929688 -60.898438 C 40.601562 -60.898438 37.324219 -58.773438 35.097656 -54.527344 C 33.042969 -50.601562 32.015625 -45.570312 32.015625 -39.425781 Z M 32.015625 -39.425781 "/></g></g></g><g fill="#1900b7" fill-opacity="1"><g transform="translate(1.695267, 115.170711)"><g><path d="M 81.910156 0 L 81.910156 -107.890625 L 59.140625 -107.890625 L 59.140625 -73.8125 C 56.085938 -76.257812 49.207031 -81.910156 38.050781 -81.910156 C 16.351562 -81.910156 4.738281 -62.960938 4.738281 -39.273438 C 4.738281 -12.378906 20.476562 2.140625 39.273438 2.140625 C 43.554688 2.140625 51.804688 1.375 60.515625 -7.488281 L 60.515625 0 Z M 28.578125 -39.425781 C 28.578125 -50.734375 32.398438 -64.335938 44.929688 -64.335938 C 57.765625 -64.335938 59.597656 -49.207031 59.597656 -39.273438 C 59.597656 -35.453125 58.988281 -15.28125 43.707031 -15.28125 C 30.105469 -15.28125 28.578125 -32.398438 28.578125 -39.425781 Z M 28.578125 -39.425781 "/></g></g></g></g></g><g clip-path="url(#6449440cc1)"><g transform="matrix(1, 0, 0, 1, 0.000000000000007105, 161)"><g clip-path="url(#6683887671)"><g clip-path="url(#67c7b6335d)"><path fill="#ffffff" d="M 0.285156 0.828125 L 159.515625 0.828125 L 159.515625 160.0625 L 0.285156 160.0625 Z M 0.285156 0.828125 " fill-opacity="1" fill-rule="nonzero"/></g></g></g></g><g clip-path="url(#baaac7a46b)"><g clip-path="url(#1434d4d22e)"><g transform="matrix(1, 0, 0, 1, 250, 60)"><g clip-path="url(#92666d93a5)"><g clip-path="url(#68c873b51c)"><g clip-path="url(#dcbe188ed3)"><g clip-path="url(#6ca86ade5e)"><path fill="#1900b7" d="M 27.421875 43.28125 C 27.429688 44.246094 27.445312 45.222656 27.460938 46.195312 C 27.523438 51.160156 27.679688 48.652344 27.851562 53.601562 C 27.886719 54.945312 27.847656 56.007812 26.96875 57.15625 C 25.5 59.039062 22.882812 59.632812 20.960938 58.542969 C 19.503906 57.707031 18.945312 56.265625 18.765625 54.625 C 18.574219 52.878906 18.421875 51.109375 18.246094 49.34375 C 17.453125 40.710938 17.585938 41.414062 16.871094 32.75 C 16.507812 28.367188 17.535156 24.148438 20.242188 20.144531 C 25.929688 11.78125 36.296875 9.945312 42.421875 13.285156 C 43.941406 14.117188 45.253906 15.21875 46.597656 16.261719 C 50.285156 19.128906 52.535156 20.339844 56.222656 23.21875 C 60.695312 26.714844 65.152344 30.195312 69.625 33.6875 C 70.8125 34.605469 72.015625 35.523438 73.1875 36.464844 C 74.359375 37.417969 74.523438 38.789062 74.023438 40.296875 C 73.542969 41.800781 72.402344 42.683594 70.882812 43.027344 C 69.746094 43.3125 68.722656 43.128906 67.839844 42.488281 C 65.003906 40.414062 59.765625 36.136719 56.933594 34.066406 C 56.804688 33.980469 56.675781 33.894531 56.558594 33.800781 C 56.308594 33.589844 56.105469 33.664062 55.886719 33.957031 C 55.539062 34.4375 55.179688 34.925781 54.8125 35.390625 C 54.519531 35.734375 54.539062 35.960938 54.828125 36.203125 C 55.726562 36.972656 59.007812 39.949219 59.890625 40.734375 C 62.550781 43.078125 65.214844 45.417969 67.875 47.765625 C 69.09375 48.855469 70.292969 49.949219 71.527344 51.027344 C 72.574219 51.933594 72.863281 53.582031 72.214844 55.125 C 71.613281 56.523438 70.214844 57.550781 68.679688 57.695312 C 67.558594 57.789062 66.589844 57.570312 65.820312 56.832031 C 64.695312 55.742188 63.539062 54.664062 62.414062 53.554688 C 59.207031 50.40625 53.621094 45.0625 50.414062 41.925781 C 49.890625 41.410156 49.847656 41.4375 49.285156 42.011719 C 49.042969 42.269531 48.792969 42.507812 48.550781 42.757812 C 48.089844 43.1875 48.089844 43.21875 48.433594 43.597656 C 49.359375 44.625 52.679688 47.875 53.640625 48.875 C 55.8125 51.148438 57.890625 53.503906 60.035156 55.816406 C 61.296875 57.179688 62.566406 58.53125 63.828125 59.917969 C 65.109375 61.335938 64.933594 63.714844 63.46875 65.269531 C 62.078125 66.730469 59.683594 67.042969 58.171875 65.953125 C 57.652344 65.582031 57.304688 65.0625 56.90625 64.597656 C 55.578125 63.054688 54.242188 61.488281 52.933594 59.9375 C 50.347656 56.859375 45.378906 51.59375 42.8125 48.515625 C 42.554688 48.207031 42.328125 48.113281 41.9375 48.441406 C 41.628906 48.691406 41.3125 48.925781 40.996094 49.15625 C 40.730469 49.355469 40.660156 49.539062 40.835938 49.789062 C 42.515625 52.167969 46.578125 56.738281 48.25 59.109375 C 49.632812 61.09375 51.0625 63.074219 52.433594 65.085938 C 53.394531 66.460938 52.882812 68.890625 51.429688 70.167969 C 49.945312 71.464844 47.53125 71.628906 46.304688 70.453125 C 45.652344 69.824219 45.226562 69 44.710938 68.25 C 41.851562 64.125 39.011719 59.992188 36.160156 55.855469 C 34.09375 52.851562 32.042969 49.835938 29.980469 46.828125 C 29.167969 45.640625 28.332031 44.433594 27.515625 43.25 C 27.480469 43.253906 27.449219 43.269531 27.421875 43.28125 Z M 27.421875 43.28125 " fill-opacity="1" fill-rule="evenodd"/></g></g></g></g></g></g></g><g clip-path="url(#09ea0b8d0f)"><g transform="matrix(1, 0, 0, 1, 316, -0.000000000000113687)"><g clip-path="url(#a49044773b)"><g fill="#ffffff" fill-opacity="1"><g transform="translate(6.792183, 140.658295)"><g><path d="M 12.988281 3.4375 C 6.40625 3.4375 1.703125 1.453125 -1.121094 -2.515625 C -3.683594 -6.117188 -4.964844 -10.523438 -4.964844 -15.742188 C -4.964844 -19.851562 -4.457031 -24.316406 -3.441406 -29.132812 C -2.441406 -33.863281 -1.15625 -38.484375 0.421875 -43.003906 L 13.644531 -80.457031 C 17.355469 -90.808594 20.964844 -98.667969 24.476562 -104.039062 C 28.515625 -110.222656 33.195312 -113.316406 38.511719 -113.316406 C 40.726562 -113.316406 42.605469 -112.851562 44.144531 -111.921875 C 45.855469 -110.894531 47.046875 -109.382812 47.726562 -107.394531 C 48.84375 -104.101562 48.027344 -99.636719 45.265625 -94 C 41.117188 -85.601562 37.554688 -77.84375 34.574219 -70.726562 C 31.628906 -63.683594 29.308594 -57.027344 27.617188 -50.757812 C 26.839844 -47.941406 26.285156 -45.265625 25.949219 -42.722656 C 25.699219 -40.820312 25.875 -39.375 26.472656 -38.382812 C 26.824219 -37.804688 27.882812 -37.515625 29.648438 -37.515625 C 31.578125 -37.515625 33.246094 -38 34.644531 -38.96875 C 36.269531 -40.09375 37.777344 -41.699219 39.164062 -43.78125 C 39.964844 -44.980469 40.957031 -45.820312 42.148438 -46.300781 C 43.394531 -46.804688 44.722656 -46.871094 46.128906 -46.492188 C 48.140625 -45.949219 49.8125 -44.898438 51.140625 -43.335938 C 52.015625 -42.304688 52.527344 -41.195312 52.675781 -40.007812 C 52.839844 -38.710938 52.5625 -37.46875 51.851562 -36.28125 C 50.886719 -34.742188 49.722656 -32.484375 48.359375 -29.511719 C 46.890625 -26.316406 45.140625 -22.917969 43.109375 -19.320312 C 41.023438 -15.628906 38.589844 -12.101562 35.8125 -8.738281 C 32.921875 -5.234375 29.660156 -2.363281 26.023438 -0.128906 C 22.160156 2.25 17.816406 3.4375 12.988281 3.4375 Z M 12.988281 -3.4375 C 16.519531 -3.4375 19.660156 -4.289062 22.417969 -5.984375 C 25.40625 -7.824219 28.101562 -10.199219 30.507812 -13.117188 C 33.03125 -16.167969 35.234375 -19.363281 37.121094 -22.703125 C 39.058594 -26.136719 40.722656 -29.359375 42.109375 -32.378906 C 43.597656 -35.621094 44.878906 -38.101562 45.953125 -39.820312 C 45.851562 -39.652344 45.820312 -39.429688 45.851562 -39.152344 C 45.867188 -39.03125 45.898438 -38.925781 45.941406 -38.835938 C 45.945312 -38.824219 45.949219 -38.816406 45.953125 -38.816406 C 45.941406 -38.832031 45.921875 -38.855469 45.898438 -38.882812 C 45.496094 -39.355469 44.976562 -39.679688 44.339844 -39.851562 C 44.421875 -39.828125 44.550781 -39.855469 44.730469 -39.925781 C 44.820312 -39.964844 44.898438 -40.007812 44.953125 -40.058594 C 44.945312 -40.050781 44.921875 -40.019531 44.886719 -39.964844 C 43.011719 -37.15625 40.902344 -34.9375 38.558594 -33.3125 C 35.980469 -31.53125 33.011719 -30.640625 29.648438 -30.640625 C 25.300781 -30.640625 22.28125 -32.03125 20.59375 -34.816406 C 19.15625 -37.1875 18.667969 -40.121094 19.132812 -43.621094 C 19.507812 -46.476562 20.125 -49.453125 20.976562 -52.546875 C 22.75 -59.113281 25.167969 -66.058594 28.230469 -73.382812 C 31.265625 -80.628906 34.882812 -88.511719 39.089844 -97.023438 C 40.136719 -99.164062 40.820312 -100.992188 41.144531 -102.511719 C 41.394531 -103.6875 41.417969 -104.578125 41.214844 -105.175781 C 41.078125 -105.582031 40.871094 -105.867188 40.59375 -106.035156 C 40.148438 -106.304688 39.453125 -106.4375 38.511719 -106.4375 C 35.675781 -106.4375 32.917969 -104.382812 30.234375 -100.277344 C 27.019531 -95.359375 23.652344 -87.988281 20.128906 -78.167969 L 6.914062 -40.738281 C 5.433594 -36.496094 4.226562 -32.15625 3.289062 -27.714844 C 2.371094 -23.363281 1.910156 -19.371094 1.910156 -15.742188 C 1.910156 -11.988281 2.765625 -8.910156 4.480469 -6.503906 C 5.9375 -4.460938 8.773438 -3.4375 12.988281 -3.4375 Z M 12.988281 -3.4375 "/></g></g></g><g fill="#1900b7" fill-opacity="1"><g transform="translate(6.792183, 140.658295)"><g><path d="M 12.984375 0 C 7.585938 0 3.816406 -1.5 1.671875 -4.5 C -0.460938 -7.507812 -1.53125 -11.253906 -1.53125 -15.734375 C -1.53125 -19.609375 -1.046875 -23.835938 -0.078125 -28.421875 C 0.890625 -33.003906 2.140625 -37.488281 3.671875 -41.875 C 8.859375 -56.75 13.257812 -69.226562 16.875 -79.3125 C 20.5 -89.394531 23.988281 -97.007812 27.34375 -102.15625 C 30.707031 -107.300781 34.429688 -109.875 38.515625 -109.875 C 41.671875 -109.875 43.65625 -108.675781 44.46875 -106.28125 C 45.28125 -103.882812 44.515625 -100.289062 42.171875 -95.5 C 37.992188 -87.050781 34.398438 -79.234375 31.390625 -72.046875 C 28.390625 -64.867188 26.023438 -58.070312 24.296875 -51.65625 C 23.484375 -48.695312 22.894531 -45.867188 22.53125 -43.171875 C 22.175781 -40.472656 22.507812 -38.28125 23.53125 -36.59375 C 24.550781 -34.914062 26.585938 -34.078125 29.640625 -34.078125 C 32.296875 -34.078125 34.613281 -34.765625 36.59375 -36.140625 C 38.582031 -37.515625 40.390625 -39.425781 42.015625 -41.875 C 42.835938 -43.09375 43.910156 -43.523438 45.234375 -43.171875 C 46.554688 -42.816406 47.648438 -42.128906 48.515625 -41.109375 C 49.378906 -40.085938 49.507812 -39.066406 48.90625 -38.046875 C 47.882812 -36.421875 46.660156 -34.050781 45.234375 -30.9375 C 43.804688 -27.832031 42.097656 -24.519531 40.109375 -21 C 38.128906 -17.488281 35.8125 -14.128906 33.15625 -10.921875 C 30.507812 -7.710938 27.53125 -5.085938 24.21875 -3.046875 C 20.90625 -1.015625 17.160156 0 12.984375 0 Z M 12.984375 0 "/></g></g></g></g></g></g><g clip-path="url(#65d3db2c6e)"><g transform="matrix(1, 0, 0, 1, 341, 9)"><g clip-path="url(#40b7e830a5)"><g fill="#ffffff" fill-opacity="1"><g transform="translate(6.213376, 127.132833)"><g><path d="M 43.910156 34.753906 C 35.179688 34.753906 27.917969 33.253906 22.125 30.253906 C 16.230469 27.199219 11.75 23.179688 8.679688 18.191406 C 5.667969 13.292969 3.972656 8.105469 3.589844 2.628906 C 3.21875 -2.765625 3.96875 -7.910156 5.851562 -12.796875 C 7.78125 -17.8125 10.675781 -21.917969 14.539062 -25.109375 C 18.65625 -28.511719 23.539062 -30.214844 29.179688 -30.214844 C 30.625 -30.214844 31.859375 -30.09375 32.890625 -29.859375 C 34.664062 -29.457031 36.050781 -28.664062 37.042969 -27.492188 C 38.363281 -25.933594 39.023438 -24.109375 39.023438 -22.023438 L 39.023438 -21.871094 L 39.011719 -21.71875 C 38.882812 -19.472656 39.339844 -17.230469 40.390625 -14.996094 C 41.382812 -12.886719 43.097656 -11.066406 45.542969 -9.539062 C 48.007812 -7.996094 51.457031 -7.226562 55.882812 -7.226562 C 60.328125 -7.226562 64.011719 -7.929688 66.929688 -9.332031 C 69.894531 -10.757812 72.3125 -12.570312 74.179688 -14.765625 C 76.179688 -17.121094 77.71875 -19.566406 78.796875 -22.113281 C 79.945312 -24.8125 80.734375 -27.269531 81.167969 -29.488281 C 81.609375 -31.726562 81.828125 -33.324219 81.828125 -34.273438 C 81.828125 -33.761719 82.050781 -33.195312 82.492188 -32.582031 C 82.949219 -31.945312 83.542969 -31.472656 84.273438 -31.164062 C 84.855469 -30.914062 85.445312 -30.808594 86.039062 -30.839844 C 86.898438 -30.886719 87.640625 -31.210938 88.261719 -31.808594 C 88.578125 -32.109375 88.773438 -32.386719 88.859375 -32.640625 L 83.964844 -34.273438 L 88.917969 -32.824219 C 86.421875 -24.296875 82.386719 -17.703125 76.8125 -13.039062 C 71.085938 -8.246094 64.796875 -5.851562 57.949219 -5.851562 C 50.0625 -5.851562 43.996094 -8.730469 39.753906 -14.488281 C 35.871094 -19.757812 33.929688 -26.304688 33.929688 -34.136719 C 33.929688 -39.007812 34.867188 -44.253906 36.742188 -49.875 C 38.554688 -55.320312 41.023438 -60.675781 44.148438 -65.949219 C 47.265625 -71.210938 50.738281 -75.925781 54.558594 -80.089844 C 58.566406 -84.457031 62.6875 -87.699219 66.925781 -89.820312 L 69.234375 -85.203125 L 69.027344 -80.042969 C 58.375 -80.46875 50.097656 -79.339844 44.1875 -76.648438 C 41.671875 -75.503906 39.847656 -74.167969 38.714844 -72.632812 C 37.726562 -71.296875 37.234375 -69.707031 37.234375 -67.859375 C 37.234375 -66.996094 37.386719 -66.363281 37.699219 -65.953125 C 37.746094 -65.890625 37.785156 -65.847656 37.8125 -65.820312 C 37.792969 -65.839844 37.757812 -65.859375 37.714844 -65.886719 C 37.570312 -65.960938 37.433594 -66 37.300781 -66 L 40.675781 -66 L 42.03125 -62.90625 C 43.15625 -60.335938 43.289062 -57.4375 42.425781 -54.210938 C 41.675781 -51.390625 40.242188 -48.746094 38.128906 -46.269531 C 36.078125 -43.867188 33.488281 -41.867188 30.351562 -40.273438 C 27.09375 -38.613281 23.398438 -37.785156 19.269531 -37.785156 C 14.472656 -37.785156 10.359375 -38.917969 6.925781 -41.183594 C 3.558594 -43.410156 1.023438 -46.3125 -0.671875 -49.886719 C -2.289062 -53.292969 -3.097656 -56.945312 -3.097656 -60.839844 C -3.097656 -67.359375 -1.421875 -73.519531 1.929688 -79.320312 C 5.195312 -84.96875 9.839844 -89.9375 15.863281 -94.222656 C 21.753906 -98.417969 28.789062 -101.699219 36.96875 -104.0625 C 45.054688 -106.398438 54.113281 -107.570312 64.140625 -107.570312 C 70.023438 -107.570312 75.085938 -106.863281 79.332031 -105.445312 C 84.28125 -103.796875 87.816406 -101.148438 89.9375 -97.5 C 92.246094 -93.535156 92.3125 -88.800781 90.140625 -83.304688 L 89.316406 -81.222656 L 87.230469 -80.398438 C 84.855469 -79.464844 82.519531 -77.863281 80.21875 -75.601562 C 77.734375 -73.160156 75.550781 -70.363281 73.667969 -67.207031 C 71.742188 -63.984375 70.21875 -60.730469 69.09375 -57.449219 C 68.042969 -54.367188 67.515625 -51.640625 67.515625 -49.277344 C 67.515625 -47.449219 67.789062 -46.117188 68.335938 -45.273438 C 68.367188 -45.222656 68.394531 -45.1875 68.417969 -45.167969 C 68.414062 -45.167969 68.414062 -45.167969 68.414062 -45.171875 C 68.535156 -45.109375 68.761719 -45.078125 69.097656 -45.078125 C 71.417969 -45.078125 73.378906 -45.894531 74.980469 -47.527344 C 77.136719 -49.71875 79.117188 -52.964844 80.925781 -57.265625 C 82.914062 -61.996094 84.890625 -67.707031 86.855469 -74.40625 C 88.667969 -80.703125 90.460938 -85.742188 92.226562 -89.523438 C 94.101562 -93.535156 96 -96.585938 97.917969 -98.671875 C 100.03125 -100.972656 102.132812 -102.515625 104.222656 -103.3125 C 106.144531 -104.039062 107.972656 -104.402344 109.703125 -104.402344 C 113.917969 -104.402344 117.371094 -103.128906 120.0625 -100.582031 C 122.878906 -97.917969 124.21875 -94.210938 124.085938 -89.460938 L 118.925781 -89.605469 L 124.085938 -89.761719 C 124.203125 -85.859375 123.191406 -81.792969 121.050781 -77.570312 C 119.269531 -74.054688 117.234375 -70.285156 114.945312 -66.265625 C 112.886719 -62.660156 111.183594 -58.609375 109.828125 -54.117188 C 109.082031 -51.785156 108.320312 -49.363281 107.546875 -46.859375 C 106.804688 -44.457031 106.082031 -41.714844 105.375 -38.628906 C 104.667969 -35.535156 103.957031 -31.703125 103.238281 -27.140625 C 101.414062 -14.851562 98.121094 -4.136719 93.359375 5 C 88.433594 14.449219 81.886719 21.757812 73.71875 26.933594 C 65.488281 32.148438 55.550781 34.753906 43.910156 34.753906 Z M 43.910156 24.433594 C 53.554688 24.433594 61.648438 22.359375 68.195312 18.214844 C 74.796875 14.027344 80.136719 8.035156 84.203125 0.230469 C 88.433594 -7.882812 91.378906 -17.539062 93.042969 -28.742188 C 93.792969 -33.539062 94.550781 -37.601562 95.3125 -40.929688 C 96.074219 -44.265625 96.863281 -47.257812 97.683594 -49.90625 C 98.46875 -52.445312 99.222656 -54.84375 99.945312 -57.101562 C 101.523438 -62.335938 103.535156 -67.09375 105.976562 -71.378906 C 108.179688 -75.25 110.136719 -78.871094 111.84375 -82.234375 C 113.191406 -84.894531 113.832031 -87.300781 113.765625 -89.449219 L 113.761719 -89.601562 L 113.765625 -89.753906 C 113.8125 -91.425781 113.546875 -92.535156 112.96875 -93.082031 C 112.265625 -93.746094 111.175781 -94.078125 109.703125 -94.078125 C 109.230469 -94.078125 108.625 -93.941406 107.886719 -93.660156 C 107.316406 -93.441406 106.527344 -92.785156 105.519531 -91.6875 C 104.320312 -90.382812 103.003906 -88.203125 101.578125 -85.148438 C 100.039062 -81.863281 98.433594 -77.3125 96.761719 -71.5 C 94.6875 -64.429688 92.582031 -58.351562 90.441406 -53.261719 C 88.121094 -47.746094 85.421875 -43.421875 82.34375 -40.289062 C 78.71875 -36.601562 74.304688 -34.753906 69.097656 -34.753906 C 67.136719 -34.753906 65.371094 -35.148438 63.796875 -35.9375 C 62.109375 -36.78125 60.734375 -38.019531 59.675781 -39.65625 C 58.019531 -42.207031 57.191406 -45.414062 57.191406 -49.277344 C 57.191406 -52.785156 57.902344 -56.621094 59.328125 -60.789062 C 60.683594 -64.753906 62.507812 -68.660156 64.804688 -72.5 C 67.140625 -76.414062 69.867188 -79.902344 72.980469 -82.964844 C 76.277344 -86.207031 79.765625 -88.554688 83.449219 -90.003906 L 85.339844 -85.203125 L 80.539062 -87.101562 C 81.484375 -89.492188 81.644531 -91.230469 81.015625 -92.308594 C 80.199219 -93.710938 78.550781 -94.824219 76.066406 -95.652344 C 72.882812 -96.714844 68.90625 -97.246094 64.140625 -97.246094 C 55.085938 -97.246094 46.984375 -96.210938 39.835938 -94.144531 C 32.78125 -92.105469 26.789062 -89.328125 21.851562 -85.816406 C 17.046875 -82.394531 13.386719 -78.507812 10.871094 -74.152344 C 8.441406 -69.953125 7.226562 -65.511719 7.226562 -60.839844 C 7.226562 -58.492188 7.703125 -56.316406 8.65625 -54.3125 C 9.527344 -52.472656 10.847656 -50.96875 12.617188 -49.796875 C 14.324219 -48.671875 16.542969 -48.105469 19.269531 -48.105469 C 21.75 -48.105469 23.882812 -48.5625 25.667969 -49.472656 C 27.582031 -50.445312 29.117188 -51.613281 30.277344 -52.972656 C 31.378906 -54.261719 32.101562 -55.558594 32.453125 -56.871094 C 32.691406 -57.769531 32.734375 -58.40625 32.574219 -58.769531 L 37.300781 -60.839844 L 37.300781 -55.675781 C 34.125 -55.675781 31.515625 -57.023438 29.472656 -59.714844 C 27.765625 -61.96875 26.910156 -64.683594 26.910156 -67.859375 C 26.910156 -71.976562 28.078125 -75.613281 30.417969 -78.773438 C 32.609375 -81.738281 35.773438 -84.164062 39.910156 -86.046875 C 47.308594 -89.414062 57.152344 -90.851562 69.441406 -90.359375 L 71.542969 -80.585938 C 68.441406 -79.035156 65.3125 -76.542969 62.164062 -73.109375 C 58.828125 -69.472656 55.78125 -65.332031 53.027344 -60.683594 C 50.28125 -56.046875 48.117188 -51.355469 46.535156 -46.613281 C 45.011719 -42.050781 44.253906 -37.890625 44.253906 -34.136719 C 44.253906 -28.566406 45.523438 -24.058594 48.0625 -20.613281 C 50.246094 -17.652344 53.539062 -16.171875 57.949219 -16.171875 C 62.296875 -16.171875 66.378906 -17.769531 70.191406 -20.957031 C 74.160156 -24.28125 77.101562 -29.203125 79.007812 -35.722656 L 79.035156 -35.816406 L 79.066406 -35.90625 C 79.519531 -37.261719 80.199219 -38.375 81.109375 -39.25 C 82.328125 -40.421875 83.777344 -41.054688 85.464844 -41.148438 C 86.472656 -41.203125 87.425781 -41.042969 88.316406 -40.660156 C 89.355469 -40.21875 90.207031 -39.535156 90.871094 -38.613281 C 91.726562 -37.425781 92.152344 -35.980469 92.152344 -34.273438 C 92.152344 -32.652344 91.867188 -30.394531 91.300781 -27.496094 C 90.726562 -24.578125 89.726562 -21.4375 88.300781 -18.082031 C 86.8125 -14.566406 84.726562 -11.234375 82.046875 -8.082031 C 79.234375 -4.773438 75.6875 -2.089844 71.402344 -0.0273438 C 67.070312 2.054688 61.898438 3.097656 55.882812 3.097656 C 49.484375 3.097656 44.210938 1.804688 40.070312 -0.785156 C 35.910156 -3.386719 32.898438 -6.660156 31.046875 -10.605469 C 29.253906 -14.425781 28.472656 -18.332031 28.707031 -22.328125 L 33.859375 -22.023438 L 28.699219 -22.023438 C 28.699219 -21.589844 28.855469 -21.1875 29.164062 -20.824219 C 29.5 -20.425781 29.875 -20.125 30.289062 -19.917969 C 30.425781 -19.851562 30.527344 -19.8125 30.597656 -19.796875 C 30.320312 -19.859375 29.847656 -19.890625 29.179688 -19.890625 C 26.011719 -19.890625 23.324219 -18.976562 21.113281 -17.148438 C 18.644531 -15.109375 16.765625 -12.421875 15.484375 -9.089844 C 14.152344 -5.625 13.621094 -1.957031 13.890625 1.914062 C 14.152344 5.703125 15.347656 9.324219 17.472656 12.78125 C 19.542969 16.140625 22.675781 18.910156 26.875 21.085938 C 31.179688 23.316406 36.855469 24.433594 43.910156 24.433594 Z M 43.910156 24.433594 "/></g></g></g><g fill="#1900b7" fill-opacity="1"><g transform="translate(6.213376, 127.132833)"><g><path d="M 43.90625 29.59375 C 36.007812 29.59375 29.539062 28.285156 24.5 25.671875 C 19.457031 23.054688 15.648438 19.660156 13.078125 15.484375 C 10.503906 11.304688 9.054688 6.898438 8.734375 2.265625 C 8.421875 -2.367188 9.066406 -6.769531 10.671875 -10.9375 C 12.273438 -15.113281 14.660156 -18.507812 17.828125 -21.125 C 20.992188 -23.738281 24.78125 -25.046875 29.1875 -25.046875 C 31.289062 -25.046875 32.59375 -24.75 33.09375 -24.15625 C 33.601562 -23.5625 33.859375 -22.847656 33.859375 -22.015625 C 33.671875 -18.898438 34.285156 -15.828125 35.703125 -12.796875 C 37.128906 -9.773438 39.492188 -7.226562 42.796875 -5.15625 C 46.109375 -3.09375 50.46875 -2.0625 55.875 -2.0625 C 61.113281 -2.0625 65.539062 -2.929688 69.15625 -4.671875 C 72.78125 -6.421875 75.765625 -8.671875 78.109375 -11.421875 C 80.453125 -14.171875 82.265625 -17.0625 83.546875 -20.09375 C 84.828125 -23.125 85.71875 -25.921875 86.21875 -28.484375 C 86.726562 -31.054688 86.984375 -32.984375 86.984375 -34.265625 C 86.984375 -35.460938 86.570312 -36.035156 85.75 -35.984375 C 84.925781 -35.941406 84.328125 -35.367188 83.953125 -34.265625 C 81.753906 -26.742188 78.269531 -20.988281 73.5 -17 C 68.726562 -13.007812 63.546875 -11.015625 57.953125 -11.015625 C 51.796875 -11.015625 47.113281 -13.191406 43.90625 -17.546875 C 40.695312 -21.910156 39.09375 -27.441406 39.09375 -34.140625 C 39.09375 -38.453125 39.941406 -43.148438 41.640625 -48.234375 C 43.335938 -53.328125 45.648438 -58.351562 48.578125 -63.3125 C 51.515625 -68.269531 54.773438 -72.695312 58.359375 -76.59375 C 61.941406 -80.5 65.566406 -83.367188 69.234375 -85.203125 C 57.765625 -85.660156 48.703125 -84.375 42.046875 -81.34375 C 35.390625 -78.3125 32.0625 -73.816406 32.0625 -67.859375 C 32.0625 -65.835938 32.566406 -64.160156 33.578125 -62.828125 C 34.585938 -61.503906 35.828125 -60.84375 37.296875 -60.84375 C 37.941406 -59.375 37.988281 -57.601562 37.4375 -55.53125 C 36.882812 -53.46875 35.804688 -51.492188 34.203125 -49.609375 C 32.597656 -47.734375 30.53125 -46.148438 28 -44.859375 C 25.476562 -43.578125 22.566406 -42.9375 19.265625 -42.9375 C 15.503906 -42.9375 12.335938 -43.785156 9.765625 -45.484375 C 7.203125 -47.179688 5.273438 -49.382812 3.984375 -52.09375 C 2.703125 -54.800781 2.0625 -57.71875 2.0625 -60.84375 C 2.0625 -66.4375 3.503906 -71.734375 6.390625 -76.734375 C 9.285156 -81.734375 13.441406 -86.160156 18.859375 -90.015625 C 24.273438 -93.867188 30.789062 -96.894531 38.40625 -99.09375 C 46.019531 -101.300781 54.597656 -102.40625 64.140625 -102.40625 C 69.460938 -102.40625 73.976562 -101.785156 77.6875 -100.546875 C 81.40625 -99.304688 84 -97.425781 85.46875 -94.90625 C 86.9375 -92.382812 86.894531 -89.148438 85.34375 -85.203125 C 82.3125 -84.003906 79.394531 -82.03125 76.59375 -79.28125 C 73.800781 -76.53125 71.347656 -73.382812 69.234375 -69.84375 C 67.117188 -66.3125 65.441406 -62.734375 64.203125 -59.109375 C 62.960938 -55.492188 62.34375 -52.21875 62.34375 -49.28125 C 62.34375 -46.4375 62.894531 -44.164062 64 -42.46875 C 65.101562 -40.769531 66.800781 -39.921875 69.09375 -39.921875 C 72.851562 -39.921875 76.039062 -41.25 78.65625 -43.90625 C 81.269531 -46.570312 83.609375 -50.359375 85.671875 -55.265625 C 87.742188 -60.171875 89.789062 -66.066406 91.8125 -72.953125 C 93.550781 -79.003906 95.242188 -83.796875 96.890625 -87.328125 C 98.546875 -90.859375 100.15625 -93.472656 101.71875 -95.171875 C 103.28125 -96.867188 104.722656 -97.96875 106.046875 -98.46875 C 107.378906 -98.976562 108.597656 -99.234375 109.703125 -99.234375 C 112.546875 -99.234375 114.816406 -98.429688 116.515625 -96.828125 C 118.210938 -95.222656 119.015625 -92.816406 118.921875 -89.609375 C 119.015625 -86.578125 118.1875 -83.335938 116.4375 -79.890625 C 114.695312 -76.453125 112.703125 -72.757812 110.453125 -68.8125 C 108.203125 -64.875 106.34375 -60.472656 104.875 -55.609375 C 104.144531 -53.316406 103.390625 -50.90625 102.609375 -48.375 C 101.828125 -45.851562 101.066406 -42.984375 100.328125 -39.765625 C 99.597656 -36.554688 98.867188 -32.613281 98.140625 -27.9375 C 96.390625 -16.195312 93.265625 -6.015625 88.765625 2.609375 C 84.273438 11.234375 78.335938 17.882812 70.953125 22.5625 C 63.566406 27.25 54.550781 29.59375 43.90625 29.59375 Z M 43.90625 29.59375 "/></g></g></g></g></g></g><g clip-path="url(#71b303a154)"><g clip-path="url(#8425ead907)"><g clip-path="url(#78343a9ad7)"><path fill="#ffffff" d="M 309.996094 96.441406 C 308.660156 95.140625 306.519531 95.167969 305.21875 96.507812 L 296.40625 105.566406 C 296.09375 105.886719 295.597656 105.929688 295.234375 105.671875 C 295.171875 105.625 295.109375 105.578125 295.046875 105.535156 C 294.671875 105.265625 294.558594 104.753906 294.792969 104.351562 L 304.589844 87.402344 C 305.488281 85.84375 305.097656 83.804688 303.601562 82.804688 C 301.960938 81.710938 299.765625 82.238281 298.796875 83.921875 L 289.15625 100.597656 C 288.90625 101.03125 288.351562 101.175781 287.921875 100.921875 C 287.917969 100.917969 287.910156 100.917969 287.90625 100.914062 C 287.515625 100.683594 287.359375 100.203125 287.535156 99.785156 L 296.421875 78.835938 C 297.125 77.179688 296.488281 75.203125 294.882812 74.394531 C 293.121094 73.511719 291.007812 74.304688 290.25 76.089844 L 281.628906 96.402344 C 281.429688 96.875 280.875 97.085938 280.410156 96.863281 C 280.304688 96.8125 280.199219 96.761719 280.09375 96.710938 C 279.683594 96.519531 279.488281 96.050781 279.625 95.621094 L 285.714844 76.921875 C 286.273438 75.210938 285.46875 73.296875 283.796875 72.628906 C 281.964844 71.898438 279.925781 72.875 279.328125 74.71875 L 272.738281 94.960938 C 272.738281 94.960938 272.734375 94.960938 272.734375 94.960938 L 272.382812 96.046875 C 271.753906 97.917969 271.105469 99.390625 270.171875 100.3125 C 268.417969 102.039062 266.09375 101.730469 265.191406 99.960938 C 264.058594 97.738281 263.117188 95.28125 261.363281 91.457031 C 259.445312 87.273438 254.007812 89.070312 254.492188 91.773438 C 254.945312 94.320312 257.351562 102.5 260.085938 113.125 C 262.820312 123.75 273.085938 129.148438 282.410156 129.261719 C 291.738281 129.375 298.027344 113.589844 300.347656 111.203125 C 302.671875 108.816406 310.0625 101.21875 310.0625 101.21875 C 311.363281 99.882812 311.335938 97.742188 309.996094 96.441406 Z M 309.996094 96.441406 " fill-opacity="1" fill-rule="nonzero"/></g></g></g><g clip-path="url(#638d753f54)"><g clip-path="url(#56965f0f3d)"><g clip-path="url(#873b3c91cb)"><path fill="#ffffff" d="M 276.039062 118.527344 C 275.90625 118.554688 275.761719 118.554688 275.621094 118.519531 C 275.132812 118.394531 274.839844 117.902344 274.964844 117.414062 C 275.75 114.335938 274.765625 108.191406 271.4375 105.566406 C 271.042969 105.257812 270.972656 104.683594 271.285156 104.289062 C 271.59375 103.894531 272.167969 103.828125 272.5625 104.140625 C 276.515625 107.253906 277.652344 114.234375 276.726562 117.863281 C 276.636719 118.207031 276.363281 118.457031 276.039062 118.527344 Z M 276.039062 118.527344 " fill-opacity="1" fill-rule="nonzero"/></g></g></g><g clip-path="url(#7db08f5f9e)"><g clip-path="url(#2cff1035b0)"><g clip-path="url(#a31ad0dbe2)"><path fill="#ffffff" d="M 316.066406 99.910156 C 315.929688 99.9375 315.789062 99.9375 315.644531 99.902344 C 315.160156 99.777344 314.867188 99.28125 314.988281 98.796875 C 316.082031 94.507812 314.703125 85.941406 310.054688 82.277344 C 309.660156 81.964844 309.59375 81.394531 309.90625 81 C 310.214844 80.605469 310.785156 80.539062 311.179688 80.847656 C 316.472656 85.019531 317.992188 94.375 316.75 99.246094 C 316.664062 99.589844 316.390625 99.835938 316.066406 99.910156 Z M 316.066406 99.910156 " fill-opacity="1" fill-rule="nonzero"/></g></g></g><g clip-path="url(#4fc59e5d0a)"><g clip-path="url(#20478275e3)"><g clip-path="url(#5e7c12895e)"><path fill="#ffffff" d="M 323.21875 95.328125 C 323.085938 95.359375 322.941406 95.359375 322.796875 95.320312 C 322.3125 95.199219 322.019531 94.703125 322.140625 94.214844 C 322.855469 91.414062 321.636719 84.898438 318.167969 81.46875 C 317.808594 81.117188 317.804688 80.542969 318.160156 80.183594 C 318.511719 79.828125 319.085938 79.824219 319.445312 80.175781 C 323.480469 84.164062 324.761719 91.304688 323.902344 94.664062 C 323.816406 95.007812 323.542969 95.257812 323.21875 95.328125 Z M 323.21875 95.328125 " fill-opacity="1" fill-rule="nonzero"/></g></g></g><g clip-path="url(#a6e6539b0e)"><g clip-path="url(#f6caca4976)"><g clip-path="url(#d0220a1284)"><g clip-path="url(#190e62f699)"><g clip-path="url(#372c7b804c)"><path fill="#1900b7" d="M 386.417969 169.917969 C 386.511719 170.511719 386.578125 171.113281 386.613281 171.714844 C 386.648438 172.316406 386.652344 172.917969 386.628906 173.519531 C 386.605469 174.125 386.550781 174.722656 386.46875 175.320312 C 386.386719 175.917969 386.273438 176.507812 386.132812 177.09375 C 385.992188 177.683594 385.820312 178.257812 385.625 178.828125 C 385.425781 179.398438 385.199219 179.957031 384.949219 180.503906 C 384.695312 181.050781 384.414062 181.585938 384.109375 182.105469 C 383.804688 182.625 383.476562 183.128906 383.121094 183.617188 C 382.765625 184.105469 382.386719 184.574219 381.988281 185.023438 C 381.585938 185.476562 381.164062 185.90625 380.722656 186.3125 C 380.277344 186.722656 379.816406 187.109375 379.335938 187.472656 C 378.855469 187.835938 378.355469 188.175781 377.84375 188.488281 C 377.328125 188.804688 376.800781 189.09375 376.257812 189.355469 C 375.714844 189.617188 375.160156 189.855469 374.59375 190.0625 C 374.027344 190.269531 373.453125 190.453125 372.871094 190.601562 C 372.285156 190.753906 371.695312 190.878906 371.101562 190.972656 C 370.503906 191.066406 369.90625 191.128906 369.304688 191.164062 C 368.703125 191.199219 368.101562 191.207031 367.496094 191.183594 C 366.894531 191.15625 366.296875 191.105469 365.699219 191.019531 C 365.101562 190.9375 364.507812 190.824219 363.921875 190.683594 C 363.335938 190.542969 362.757812 190.375 362.1875 190.175781 C 361.621094 189.976562 361.0625 189.753906 360.515625 189.5 C 359.964844 189.246094 359.433594 188.96875 358.914062 188.664062 C 358.394531 188.359375 357.890625 188.027344 357.402344 187.671875 C 356.914062 187.316406 356.445312 186.941406 355.992188 186.539062 C 355.542969 186.136719 355.113281 185.714844 354.703125 185.273438 C 354.296875 184.832031 353.910156 184.367188 353.546875 183.886719 C 353.183594 183.40625 352.84375 182.910156 352.527344 182.394531 C 352.214844 181.878906 351.925781 181.351562 351.664062 180.808594 C 351.398438 180.265625 351.164062 179.710938 350.957031 179.144531 C 350.746094 178.578125 350.566406 178.003906 350.414062 177.421875 C 350.261719 176.839844 350.140625 176.25 350.046875 175.652344 C 349.953125 175.058594 349.886719 174.457031 349.851562 173.855469 C 349.816406 173.253906 349.8125 172.652344 349.835938 172.050781 C 349.859375 171.449219 349.914062 170.847656 349.996094 170.25 C 350.082031 169.652344 350.191406 169.0625 350.332031 168.476562 C 350.476562 167.890625 350.644531 167.3125 350.84375 166.742188 C 351.039062 166.171875 351.265625 165.613281 351.519531 165.066406 C 351.769531 164.519531 352.050781 163.984375 352.355469 163.464844 C 352.660156 162.945312 352.992188 162.441406 353.34375 161.953125 C 353.699219 161.464844 354.078125 160.996094 354.480469 160.546875 C 354.878906 160.097656 355.300781 159.667969 355.746094 159.257812 C 356.1875 158.847656 356.648438 158.460938 357.132812 158.097656 C 357.613281 157.734375 358.109375 157.394531 358.625 157.082031 C 359.136719 156.765625 359.667969 156.476562 360.210938 156.214844 C 360.753906 155.953125 361.308594 155.714844 361.871094 155.507812 C 362.4375 155.300781 363.011719 155.121094 363.597656 154.96875 C 364.179688 154.816406 364.769531 154.691406 365.367188 154.597656 C 365.960938 154.503906 366.558594 154.441406 367.160156 154.40625 C 367.765625 154.371094 368.367188 154.363281 368.96875 154.390625 C 369.570312 154.414062 370.171875 154.464844 370.769531 154.550781 C 371.367188 154.632812 371.957031 154.746094 372.542969 154.886719 C 373.128906 155.027344 373.707031 155.195312 374.277344 155.394531 C 374.847656 155.59375 375.40625 155.816406 375.953125 156.070312 C 376.5 156.324219 377.035156 156.601562 377.554688 156.90625 C 378.074219 157.214844 378.578125 157.542969 379.066406 157.898438 C 379.554688 158.253906 380.023438 158.628906 380.472656 159.03125 C 380.921875 159.433594 381.351562 159.855469 381.761719 160.296875 C 382.171875 160.738281 382.558594 161.203125 382.921875 161.683594 C 383.285156 162.164062 383.625 162.660156 383.9375 163.175781 C 384.253906 163.691406 384.542969 164.21875 384.804688 164.761719 C 385.066406 165.304688 385.300781 165.859375 385.511719 166.425781 C 385.71875 166.992188 385.898438 167.566406 386.050781 168.148438 C 386.203125 168.734375 386.324219 169.320312 386.417969 169.917969 Z M 386.417969 169.917969 " fill-opacity="1" fill-rule="nonzero"/></g></g></g></g></g><g clip-path="url(#24e90c352a)"><g clip-path="url(#41092a593b)"><g clip-path="url(#f79c524b3a)"><g clip-path="url(#19b8ab4872)"><g clip-path="url(#0faa5cfe40)"><path fill="#ffffff" d="M 356.710938 172.050781 L 357.621094 177.8125 C 357.664062 178.085938 357.910156 178.253906 358.167969 178.210938 L 361.859375 177.628906 C 361.949219 177.617188 362.042969 177.621094 362.125 177.664062 L 368.585938 180.578125 C 368.945312 180.726562 369.328125 180.441406 369.269531 180.058594 L 367.046875 165.984375 C 366.988281 165.601562 366.515625 165.433594 366.226562 165.722656 L 361.0625 170.804688 C 360.996094 170.871094 360.894531 170.921875 360.804688 170.9375 L 357.128906 171.515625 C 356.855469 171.542969 356.671875 171.792969 356.710938 172.050781 Z M 356.710938 172.050781 " fill-opacity="1" fill-rule="nonzero"/></g></g></g></g></g><g clip-path="url(#e3f3148db0)"><g clip-path="url(#d7df12d38c)"><g clip-path="url(#8ff1fd3f66)"><g clip-path="url(#774de73b96)"><g clip-path="url(#de0ad3253c)"><path fill="#ffffff" d="M 371.785156 176.289062 C 371.660156 176.308594 371.527344 176.292969 371.410156 176.253906 C 371.050781 176.105469 370.871094 175.6875 371 175.332031 C 372.09375 172.566406 370.328125 170.589844 370.261719 170.507812 C 369.988281 170.214844 370.011719 169.765625 370.304688 169.496094 C 370.597656 169.226562 371.050781 169.246094 371.320312 169.539062 C 371.429688 169.652344 373.777344 172.246094 372.335938 175.867188 C 372.238281 176.085938 372.023438 176.25 371.785156 176.289062 Z M 371.785156 176.289062 " fill-opacity="1" fill-rule="nonzero"/></g></g></g></g></g><g clip-path="url(#2ffd07b721)"><g clip-path="url(#d258777f30)"><g clip-path="url(#7d968aca8d)"><g clip-path="url(#dcc1da62e6)"><g clip-path="url(#96fe905442)"><path fill="#ffffff" d="M 374.796875 177.527344 C 374.652344 177.550781 374.5 177.539062 374.359375 177.46875 C 374.015625 177.296875 373.851562 176.855469 374.039062 176.511719 C 376.4375 171.734375 372.871094 168.625 372.828125 168.59375 C 372.527344 168.34375 372.492188 167.882812 372.742188 167.582031 C 372.996094 167.28125 373.453125 167.246094 373.753906 167.496094 C 373.796875 167.527344 378.207031 171.378906 375.3125 177.148438 C 375.214844 177.351562 375.015625 177.492188 374.796875 177.527344 Z M 374.796875 177.527344 " fill-opacity="1" fill-rule="nonzero"/></g></g></g></g></g><g clip-path="url(#f93dbbdb70)"><g clip-path="url(#648519774f)"><g clip-path="url(#52023a83e6)"><g clip-path="url(#844daab862)"><g clip-path="url(#9645e561ca)"><path fill="#ffffff" d="M 377.617188 178.742188 C 377.46875 178.765625 377.296875 178.738281 377.15625 178.667969 C 376.808594 178.476562 376.683594 178.03125 376.871094 177.6875 C 380.578125 171.042969 375.324219 166.464844 375.089844 166.28125 C 374.792969 166.027344 374.753906 165.570312 375.007812 165.269531 C 375.257812 164.96875 375.71875 164.933594 376.019531 165.183594 C 376.082031 165.230469 382.40625 170.71875 378.117188 178.382812 C 378.019531 178.585938 377.835938 178.707031 377.617188 178.742188 Z M 377.617188 178.742188 " fill-opacity="1" fill-rule="nonzero"/></g></g></g></g></g><g transform="matrix(1, 0, 0, 1, 300, 125)"><g clip-path="url(#fd68b4a559)"><g clip-path="url(#78caa12566)"><g fill="#ffffff" fill-opacity="1"><g transform="translate(9.957458, 73.471285)"><g><path d="M 12.515625 10.335938 C 8.453125 10.335938 4.878906 9.558594 1.789062 8 C -1.363281 6.40625 -3.800781 4.257812 -5.515625 1.554688 C -7.253906 -1.175781 -8.121094 -4.203125 -8.121094 -7.527344 C -8.121094 -9.992188 -7.667969 -12.273438 -6.769531 -14.363281 C -5.828125 -16.546875 -4.496094 -18.308594 -2.777344 -19.652344 C -0.921875 -21.097656 1.21875 -21.824219 3.644531 -21.824219 C 4.734375 -21.824219 5.648438 -21.527344 6.390625 -20.933594 C 7.332031 -20.183594 7.800781 -19.171875 7.800781 -17.902344 C 7.800781 -16.527344 8.171875 -15.320312 8.914062 -14.277344 C 9.710938 -13.160156 10.8125 -12.289062 12.21875 -11.664062 C 13.734375 -10.992188 15.445312 -10.65625 17.347656 -10.65625 C 19.632812 -10.65625 21.511719 -11.164062 22.984375 -12.183594 C 24.53125 -13.257812 25.773438 -14.773438 26.710938 -16.730469 C 26.617188 -16.546875 26.582031 -16.300781 26.601562 -15.988281 C 26.632812 -15.503906 26.804688 -15.085938 27.125 -14.738281 C 27.316406 -14.535156 27.546875 -14.367188 27.824219 -14.242188 C 28.246094 -14.046875 28.691406 -13.976562 29.15625 -14.03125 C 29.742188 -14.097656 30.195312 -14.316406 30.515625 -14.679688 L 28.28125 -16.636719 L 30.65625 -14.851562 C 29.292969 -13.035156 27.6875 -11.613281 25.835938 -10.589844 C 23.910156 -9.523438 21.769531 -8.992188 19.40625 -8.992188 C 15.328125 -8.992188 11.945312 -10.703125 9.265625 -14.132812 C 6.757812 -17.335938 5.503906 -21.789062 5.503906 -27.488281 C 5.503906 -32.050781 6.359375 -36.402344 8.066406 -40.542969 C 9.757812 -44.644531 12.085938 -48.304688 15.042969 -51.519531 C 18.015625 -54.753906 21.425781 -57.308594 25.273438 -59.1875 C 29.195312 -61.105469 33.3125 -62.066406 37.628906 -62.066406 C 42.664062 -62.066406 46.542969 -60.722656 49.261719 -58.039062 C 51.988281 -55.34375 53.351562 -51.949219 53.351562 -47.847656 C 53.351562 -44.820312 52.621094 -42.203125 51.15625 -39.988281 C 49.726562 -37.832031 47.90625 -36.199219 45.6875 -35.089844 C 43.527344 -34.007812 41.238281 -33.46875 38.816406 -33.46875 C 37.460938 -33.46875 36.203125 -33.828125 35.039062 -34.542969 C 34.085938 -35.132812 33.445312 -35.90625 33.125 -36.867188 C 32.785156 -37.886719 32.859375 -38.925781 33.347656 -39.980469 C 33.757812 -40.890625 33.835938 -41.714844 33.585938 -42.457031 C 33.578125 -42.476562 33.574219 -42.492188 33.566406 -42.5 C 33.570312 -42.496094 33.574219 -42.492188 33.578125 -42.488281 L 33.582031 -42.476562 C 33.363281 -42.597656 32.96875 -42.65625 32.398438 -42.65625 C 31.15625 -42.65625 30.058594 -42.335938 29.105469 -41.699219 C 28.050781 -40.988281 27.21875 -40.078125 26.601562 -38.964844 C 26.003906 -37.878906 25.707031 -36.746094 25.707031 -35.566406 C 25.707031 -34.0625 26.132812 -32.84375 26.988281 -31.90625 C 27.773438 -31.046875 28.96875 -30.617188 30.578125 -30.617188 C 31.609375 -30.617188 32.640625 -30.796875 33.667969 -31.160156 C 34.523438 -31.460938 35.304688 -32.023438 36.019531 -32.84375 L 36.050781 -32.878906 L 36.085938 -32.914062 C 37.414062 -34.347656 38.933594 -35.003906 40.644531 -34.886719 C 42.148438 -34.785156 43.429688 -34.207031 44.480469 -33.152344 C 45.101562 -32.53125 45.53125 -31.816406 45.765625 -31.011719 C 46 -30.214844 46.023438 -29.386719 45.839844 -28.527344 C 45.070312 -25.285156 44.25 -22.355469 43.375 -19.734375 L 40.601562 -11.488281 C 39.222656 -7.292969 37.1875 -3.5625 34.496094 -0.289062 C 31.773438 3.015625 28.550781 5.605469 24.824219 7.484375 C 21.050781 9.386719 16.949219 10.335938 12.515625 10.335938 Z M 12.515625 4.394531 C 16.007812 4.394531 19.21875 3.65625 22.152344 2.179688 C 25.132812 0.675781 27.71875 -1.40625 29.90625 -4.066406 C 32.125 -6.761719 33.816406 -9.867188 34.96875 -13.382812 L 37.738281 -21.613281 C 38.558594 -24.066406 39.320312 -26.785156 40.03125 -29.773438 C 40.003906 -29.652344 40.015625 -29.511719 40.0625 -29.347656 C 40.113281 -29.179688 40.183594 -29.046875 40.28125 -28.953125 C 40.277344 -28.957031 40.261719 -28.957031 40.234375 -28.960938 C 40.367188 -28.949219 40.484375 -28.972656 40.589844 -29.019531 L 40.589844 -29.015625 C 40.546875 -28.984375 40.496094 -28.933594 40.4375 -28.871094 L 38.261719 -30.894531 L 40.503906 -28.945312 C 39.105469 -27.335938 37.484375 -26.207031 35.644531 -25.558594 C 33.980469 -24.96875 32.289062 -24.675781 30.578125 -24.675781 C 27.222656 -24.675781 24.5625 -25.75 22.601562 -27.902344 C 20.710938 -29.972656 19.765625 -32.527344 19.765625 -35.566406 C 19.765625 -37.769531 20.308594 -39.855469 21.402344 -41.835938 C 22.476562 -43.785156 23.941406 -45.382812 25.789062 -46.628906 C 27.742188 -47.941406 29.945312 -48.597656 32.398438 -48.597656 C 33.992188 -48.597656 35.347656 -48.289062 36.464844 -47.671875 C 37.800781 -46.929688 38.714844 -45.828125 39.210938 -44.363281 C 39.964844 -42.144531 39.808594 -39.855469 38.738281 -37.492188 C 38.910156 -37.859375 38.917969 -38.277344 38.761719 -38.746094 C 38.625 -39.152344 38.425781 -39.4375 38.152344 -39.601562 C 38.363281 -39.472656 38.582031 -39.410156 38.816406 -39.410156 C 40.300781 -39.410156 41.707031 -39.742188 43.03125 -40.402344 C 44.300781 -41.039062 45.355469 -41.992188 46.199219 -43.265625 C 47.007812 -44.484375 47.410156 -46.011719 47.410156 -47.847656 C 47.410156 -50.292969 46.636719 -52.28125 45.085938 -53.8125 C 43.523438 -55.351562 41.039062 -56.125 37.628906 -56.125 C 34.230469 -56.125 30.980469 -55.367188 27.882812 -53.851562 C 24.703125 -52.296875 21.882812 -50.179688 19.414062 -47.5 C 16.933594 -44.800781 14.980469 -41.726562 13.558594 -38.277344 C 12.152344 -34.863281 11.445312 -31.265625 11.445312 -27.488281 C 11.445312 -23.152344 12.28125 -19.921875 13.945312 -17.792969 C 15.4375 -15.886719 17.257812 -14.933594 19.40625 -14.933594 C 20.746094 -14.933594 21.929688 -15.21875 22.960938 -15.789062 C 24.066406 -16.402344 25.046875 -17.277344 25.902344 -18.417969 L 25.96875 -18.507812 L 26.042969 -18.589844 C 26.734375 -19.378906 27.542969 -19.824219 28.472656 -19.933594 C 29.109375 -20.007812 29.722656 -19.90625 30.308594 -19.636719 C 30.75 -19.433594 31.144531 -19.144531 31.492188 -18.769531 C 32.128906 -18.078125 32.476562 -17.273438 32.53125 -16.347656 C 32.578125 -15.601562 32.421875 -14.875 32.070312 -14.164062 C 30.679688 -11.261719 28.78125 -8.972656 26.367188 -7.300781 C 23.878906 -5.578125 20.871094 -4.714844 17.347656 -4.714844 C 14.605469 -4.714844 12.089844 -5.222656 9.804688 -6.238281 C 7.410156 -7.300781 5.5 -8.832031 4.074219 -10.832031 C 2.597656 -12.90625 1.863281 -15.261719 1.863281 -17.902344 C 1.863281 -17.664062 1.914062 -17.421875 2.015625 -17.175781 C 2.160156 -16.828125 2.382812 -16.535156 2.679688 -16.296875 C 2.90625 -16.117188 3.144531 -15.992188 3.398438 -15.921875 C 3.5 -15.894531 3.582031 -15.882812 3.644531 -15.882812 C 2.582031 -15.882812 1.660156 -15.578125 0.875 -14.964844 C -0.0429688 -14.25 -0.773438 -13.265625 -1.3125 -12.015625 C -1.890625 -10.671875 -2.179688 -9.175781 -2.179688 -7.527344 C -2.179688 -5.355469 -1.621094 -3.390625 -0.503906 -1.632812 C 0.628906 0.152344 2.289062 1.59375 4.46875 2.695312 C 6.714844 3.828125 9.398438 4.394531 12.515625 4.394531 Z M 12.515625 4.394531 "/></g></g></g></g><g fill="#1900b7" fill-opacity="1"><g transform="translate(9.957458, 73.471285)"><g><path d="M 12.515625 7.375 C 8.921875 7.375 5.789062 6.695312 3.125 5.34375 C 0.457031 4 -1.585938 2.207031 -3.015625 -0.03125 C -4.441406 -2.28125 -5.15625 -4.78125 -5.15625 -7.53125 C -5.15625 -9.582031 -4.785156 -11.46875 -4.046875 -13.1875 C -3.304688 -14.90625 -2.273438 -16.28125 -0.953125 -17.3125 C 0.367188 -18.34375 1.898438 -18.859375 3.640625 -18.859375 C 4.429688 -18.859375 4.828125 -18.539062 4.828125 -17.90625 C 4.828125 -15.894531 5.378906 -14.109375 6.484375 -12.546875 C 7.597656 -10.992188 9.101562 -9.796875 11 -8.953125 C 12.90625 -8.109375 15.019531 -7.6875 17.34375 -7.6875 C 20.25 -7.6875 22.691406 -8.367188 24.671875 -9.734375 C 26.648438 -11.109375 28.222656 -13.015625 29.390625 -15.453125 C 29.648438 -15.972656 29.617188 -16.40625 29.296875 -16.75 C 28.984375 -17.09375 28.644531 -17.054688 28.28125 -16.640625 C 27.175781 -15.160156 25.882812 -14.007812 24.40625 -13.1875 C 22.925781 -12.375 21.257812 -11.96875 19.40625 -11.96875 C 16.289062 -11.96875 13.6875 -13.300781 11.59375 -15.96875 C 9.507812 -18.632812 8.46875 -22.472656 8.46875 -27.484375 C 8.46875 -31.660156 9.25 -35.632812 10.8125 -39.40625 C 12.375 -43.1875 14.515625 -46.554688 17.234375 -49.515625 C 19.953125 -52.472656 23.066406 -54.804688 26.578125 -56.515625 C 30.085938 -58.234375 33.769531 -59.09375 37.625 -59.09375 C 41.851562 -59.09375 45.035156 -58.035156 47.171875 -55.921875 C 49.316406 -53.816406 50.390625 -51.125 50.390625 -47.84375 C 50.390625 -45.414062 49.820312 -43.34375 48.6875 -41.625 C 47.550781 -39.914062 46.109375 -38.625 44.359375 -37.75 C 42.617188 -36.875 40.769531 -36.4375 38.8125 -36.4375 C 38.019531 -36.4375 37.28125 -36.644531 36.59375 -37.0625 C 35.90625 -37.488281 35.722656 -38.046875 36.046875 -38.734375 C 36.785156 -40.367188 36.90625 -41.925781 36.40625 -43.40625 C 35.90625 -44.882812 34.570312 -45.625 32.40625 -45.625 C 30.550781 -45.625 28.894531 -45.132812 27.4375 -44.15625 C 25.988281 -43.1875 24.84375 -41.9375 24 -40.40625 C 23.15625 -38.875 22.734375 -37.257812 22.734375 -35.5625 C 22.734375 -33.289062 23.421875 -31.398438 24.796875 -29.890625 C 26.171875 -28.390625 28.097656 -27.640625 30.578125 -27.640625 C 31.953125 -27.640625 33.3125 -27.878906 34.65625 -28.359375 C 36 -28.835938 37.203125 -29.679688 38.265625 -30.890625 C 38.953125 -31.628906 39.675781 -31.972656 40.4375 -31.921875 C 41.207031 -31.867188 41.851562 -31.578125 42.375 -31.046875 C 42.90625 -30.523438 43.09375 -29.894531 42.9375 -29.15625 C 42.195312 -26.039062 41.40625 -23.210938 40.5625 -20.671875 C 39.71875 -18.140625 38.789062 -15.394531 37.78125 -12.4375 C 36.519531 -8.582031 34.660156 -5.160156 32.203125 -2.171875 C 29.742188 0.804688 26.835938 3.140625 23.484375 4.828125 C 20.128906 6.523438 16.472656 7.375 12.515625 7.375 Z M 12.515625 7.375 "/></g></g></g></g></g><g clip-path="url(#042c3ccf5a)"><g clip-path="url(#9b4aa8a0e2)"><g clip-path="url(#5506b848db)"><g clip-path="url(#742d4526ee)"><g clip-path="url(#717d414e61)"><path fill="#1900b7" d="M 386.28125 171.046875 C 386.378906 171.671875 386.445312 172.300781 386.480469 172.929688 C 386.519531 173.558594 386.523438 174.191406 386.5 174.820312 C 386.472656 175.453125 386.417969 176.082031 386.332031 176.707031 C 386.246094 177.332031 386.128906 177.949219 385.980469 178.5625 C 385.832031 179.179688 385.652344 179.78125 385.445312 180.378906 C 385.238281 180.976562 385.003906 181.5625 384.738281 182.132812 C 384.472656 182.707031 384.183594 183.265625 383.863281 183.808594 C 383.542969 184.355469 383.195312 184.882812 382.824219 185.394531 C 382.453125 185.902344 382.058594 186.394531 381.640625 186.867188 C 381.21875 187.335938 380.777344 187.789062 380.3125 188.214844 C 379.847656 188.644531 379.367188 189.046875 378.863281 189.429688 C 378.359375 189.808594 377.835938 190.164062 377.300781 190.496094 C 376.761719 190.824219 376.207031 191.125 375.640625 191.402344 C 375.070312 191.675781 374.488281 191.921875 373.898438 192.140625 C 373.304688 192.359375 372.703125 192.546875 372.09375 192.707031 C 371.480469 192.867188 370.863281 192.996094 370.242188 193.09375 C 369.617188 193.191406 368.988281 193.257812 368.359375 193.296875 C 367.730469 193.332031 367.097656 193.339844 366.46875 193.3125 C 365.835938 193.289062 365.207031 193.230469 364.582031 193.144531 C 363.957031 193.058594 363.339844 192.941406 362.726562 192.792969 C 362.109375 192.644531 361.507812 192.46875 360.910156 192.261719 C 360.3125 192.054688 359.730469 191.816406 359.15625 191.550781 C 358.582031 191.289062 358.023438 190.996094 357.480469 190.675781 C 356.933594 190.355469 356.40625 190.011719 355.898438 189.640625 C 355.386719 189.265625 354.894531 188.871094 354.421875 188.453125 C 353.953125 188.03125 353.5 187.589844 353.074219 187.125 C 352.644531 186.664062 352.242188 186.179688 351.859375 185.675781 C 351.480469 185.171875 351.125 184.652344 350.792969 184.113281 C 350.464844 183.574219 350.164062 183.019531 349.886719 182.453125 C 349.613281 181.882812 349.367188 181.304688 349.148438 180.710938 C 348.929688 180.117188 348.742188 179.515625 348.582031 178.90625 C 348.421875 178.292969 348.292969 177.675781 348.195312 177.054688 C 348.097656 176.429688 348.03125 175.804688 347.992188 175.171875 C 347.957031 174.542969 347.949219 173.914062 347.976562 173.28125 C 348 172.652344 348.058594 172.023438 348.144531 171.398438 C 348.230469 170.773438 348.347656 170.152344 348.496094 169.539062 C 348.644531 168.925781 348.820312 168.320312 349.027344 167.722656 C 349.238281 167.125 349.472656 166.542969 349.738281 165.96875 C 350 165.394531 350.292969 164.835938 350.613281 164.292969 C 350.933594 163.746094 351.277344 163.21875 351.648438 162.710938 C 352.023438 162.199219 352.417969 161.707031 352.835938 161.238281 C 353.257812 160.765625 353.699219 160.316406 354.164062 159.886719 C 354.625 159.457031 355.109375 159.054688 355.613281 158.671875 C 356.117188 158.292969 356.636719 157.9375 357.175781 157.609375 C 357.714844 157.277344 358.269531 156.976562 358.835938 156.699219 C 359.40625 156.425781 359.984375 156.179688 360.578125 155.960938 C 361.171875 155.742188 361.773438 155.554688 362.382812 155.394531 C 362.996094 155.238281 363.613281 155.109375 364.234375 155.007812 C 364.859375 154.910156 365.484375 154.84375 366.117188 154.808594 C 366.746094 154.769531 367.378906 154.765625 368.007812 154.789062 C 368.640625 154.816406 369.265625 154.871094 369.890625 154.957031 C 370.515625 155.042969 371.136719 155.164062 371.75 155.308594 C 372.363281 155.457031 372.96875 155.636719 373.566406 155.84375 C 374.164062 156.050781 374.746094 156.285156 375.320312 156.550781 C 375.894531 156.816406 376.453125 157.109375 376.996094 157.425781 C 377.542969 157.746094 378.070312 158.09375 378.578125 158.464844 C 379.089844 158.835938 379.582031 159.230469 380.050781 159.648438 C 380.523438 160.070312 380.972656 160.511719 381.402344 160.976562 C 381.832031 161.441406 382.234375 161.921875 382.617188 162.425781 C 382.996094 162.929688 383.351562 163.453125 383.679688 163.992188 C 384.011719 164.527344 384.3125 165.082031 384.589844 165.652344 C 384.863281 166.21875 385.109375 166.800781 385.328125 167.390625 C 385.546875 167.984375 385.734375 168.585938 385.894531 169.195312 C 386.050781 169.808594 386.179688 170.425781 386.28125 171.046875 Z M 386.28125 171.046875 " fill-opacity="1" fill-rule="nonzero"/></g></g></g></g></g><g clip-path="url(#57012d91ed)"><g clip-path="url(#10dd374c9b)"><g clip-path="url(#0ee5d119cb)"><g clip-path="url(#d8ea395e66)"><g clip-path="url(#d2869e4be6)"><path fill="#ffffff" d="M 355.171875 173.28125 L 356.125 179.316406 C 356.167969 179.601562 356.429688 179.777344 356.699219 179.734375 L 360.5625 179.125 C 360.660156 179.109375 360.757812 179.113281 360.84375 179.15625 L 367.605469 182.210938 C 367.984375 182.363281 368.382812 182.066406 368.320312 181.667969 L 365.996094 166.929688 C 365.933594 166.527344 365.4375 166.351562 365.136719 166.65625 L 359.730469 171.976562 C 359.660156 172.046875 359.554688 172.101562 359.457031 172.117188 L 355.613281 172.722656 C 355.324219 172.75 355.132812 173.011719 355.171875 173.28125 Z M 355.171875 173.28125 " fill-opacity="1" fill-rule="nonzero"/></g></g></g></g></g><g clip-path="url(#aa104b5aec)"><g clip-path="url(#b4735a0e9a)"><g clip-path="url(#d8c3eafd7b)"><g clip-path="url(#9a1eb09bcc)"><g clip-path="url(#f06755e728)"><path fill="#ffffff" d="M 370.957031 177.71875 C 370.824219 177.738281 370.6875 177.722656 370.5625 177.683594 C 370.1875 177.527344 370 177.089844 370.136719 176.714844 C 371.28125 173.824219 369.433594 171.753906 369.359375 171.667969 C 369.078125 171.359375 369.101562 170.890625 369.40625 170.605469 C 369.714844 170.324219 370.1875 170.347656 370.46875 170.652344 C 370.585938 170.773438 373.042969 173.488281 371.53125 177.277344 C 371.433594 177.507812 371.207031 177.679688 370.957031 177.71875 Z M 370.957031 177.71875 " fill-opacity="1" fill-rule="nonzero"/></g></g></g></g></g><g clip-path="url(#cd5273ea45)"><g clip-path="url(#2a75dcc3ec)"><g clip-path="url(#8e87072463)"><g clip-path="url(#75c707b81a)"><g clip-path="url(#b1636696fc)"><path fill="#ffffff" d="M 374.109375 179.015625 C 373.957031 179.042969 373.800781 179.027344 373.652344 178.953125 C 373.289062 178.777344 373.121094 178.316406 373.316406 177.953125 C 375.828125 172.949219 372.09375 169.695312 372.050781 169.664062 C 371.734375 169.398438 371.699219 168.917969 371.960938 168.605469 C 372.222656 168.289062 372.703125 168.25 373.019531 168.515625 C 373.0625 168.546875 377.679688 172.582031 374.652344 178.621094 C 374.546875 178.832031 374.339844 178.980469 374.109375 179.015625 Z M 374.109375 179.015625 " fill-opacity="1" fill-rule="nonzero"/></g></g></g></g></g><g clip-path="url(#1f27bfd850)"><g clip-path="url(#0c6f6facaf)"><g clip-path="url(#acb6758a20)"><g clip-path="url(#79aaccce7b)"><g clip-path="url(#57018e4851)"><path fill="#ffffff" d="M 377.0625 180.289062 C 376.910156 180.3125 376.730469 180.28125 376.582031 180.207031 C 376.21875 180.011719 376.085938 179.546875 376.28125 179.183594 C 380.164062 172.226562 374.664062 167.4375 374.417969 167.238281 C 374.105469 166.976562 374.066406 166.496094 374.328125 166.179688 C 374.59375 165.867188 375.074219 165.828125 375.390625 166.09375 C 375.457031 166.140625 382.078125 171.886719 377.589844 179.914062 C 377.484375 180.125 377.289062 180.253906 377.0625 180.289062 Z M 377.0625 180.289062 " fill-opacity="1" fill-rule="nonzero"/></g></g></g></g></g></g></g></svg>