<svg xmlns="http://www.w3.org/2000/svg" xmlns:xlink="http://www.w3.org/1999/xlink" width="816" zoomAndPan="magnify" viewBox="0 0 612 791.999994" height="1056" preserveAspectRatio="xMidYMid meet" version="1.0"><defs><clipPath id="4e2d7cb0c0"><path d="M 128 226 L 483 226 L 483 567.625 L 128 567.625 Z M 128 226 " clip-rule="nonzero"/></clipPath></defs><rect x="-61.2" width="734.4" fill="#ffffff" y="-79.199999" height="950.399992" fill-opacity="1"/><rect x="-61.2" width="734.4" fill="#1900b7" y="-79.199999" height="950.399992" fill-opacity="1"/><g clip-path="url(#4e2d7cb0c0)"><path fill="#fcfaff" d="M 463.851562 403.855469 L 449.328125 403.855469 L 449.328125 552.78125 C 449.265625 553.785156 449.109375 554.773438 448.851562 555.746094 C 448.597656 556.722656 448.25 557.660156 447.808594 558.566406 C 447.371094 559.46875 446.847656 560.324219 446.242188 561.125 C 445.636719 561.929688 444.957031 562.667969 444.207031 563.335938 C 443.457031 564.007812 442.648438 564.597656 441.785156 565.109375 C 440.917969 565.621094 440.011719 566.046875 439.0625 566.382812 C 438.113281 566.714844 437.140625 566.957031 436.144531 567.101562 C 435.148438 567.246094 434.148438 567.292969 433.144531 567.242188 L 347.347656 567.242188 L 347.347656 465.699219 C 347.347656 465 347.28125 464.3125 347.144531 463.628906 C 347.007812 462.945312 346.808594 462.28125 346.539062 461.636719 C 346.273438 460.996094 345.949219 460.382812 345.5625 459.804688 C 345.175781 459.226562 344.734375 458.691406 344.242188 458.195312 C 343.75 457.703125 343.214844 457.265625 342.636719 456.878906 C 342.054688 456.492188 341.445312 456.164062 340.800781 455.898438 C 340.160156 455.628906 339.496094 455.429688 338.8125 455.292969 C 338.128906 455.15625 337.441406 455.085938 336.742188 455.085938 L 274.496094 455.085938 C 273.796875 455.085938 273.109375 455.15625 272.425781 455.289062 C 271.742188 455.425781 271.078125 455.628906 270.433594 455.894531 C 269.792969 456.160156 269.179688 456.488281 268.601562 456.875 C 268.023438 457.261719 267.488281 457.703125 266.996094 458.195312 C 266.503906 458.6875 266.0625 459.222656 265.675781 459.804688 C 265.289062 460.382812 264.960938 460.992188 264.695312 461.636719 C 264.429688 462.28125 264.230469 462.945312 264.09375 463.628906 C 263.957031 464.3125 263.890625 465 263.890625 465.699219 L 263.890625 567.234375 L 178.085938 567.234375 C 177.085938 567.289062 176.089844 567.246094 175.097656 567.101562 C 174.105469 566.960938 173.132812 566.722656 172.1875 566.390625 C 171.242188 566.058594 170.335938 565.636719 169.472656 565.125 C 168.609375 564.617188 167.804688 564.027344 167.058594 563.359375 C 166.308594 562.691406 165.632812 561.957031 165.03125 561.15625 C 164.425781 560.355469 163.90625 559.503906 163.46875 558.601562 C 163.03125 557.695312 162.6875 556.761719 162.433594 555.789062 C 162.179688 554.820312 162.023438 553.832031 161.964844 552.832031 L 161.964844 403.855469 L 147.378906 403.855469 C 131.210938 403.855469 122.453125 388.632812 133.046875 378.867188 L 292.679688 231.289062 C 293.675781 230.445312 294.742188 229.695312 295.871094 229.035156 C 297.003906 228.378906 298.183594 227.824219 299.414062 227.375 C 300.640625 226.929688 301.902344 226.589844 303.191406 226.363281 C 304.476562 226.136719 305.777344 226.023438 307.085938 226.027344 C 308.394531 226.03125 309.691406 226.148438 310.980469 226.378906 C 312.265625 226.609375 313.523438 226.953125 314.75 227.40625 C 315.980469 227.859375 317.15625 228.417969 318.285156 229.082031 C 319.414062 229.742188 320.476562 230.5 321.472656 231.347656 C 373.730469 280.539062 426.015625 329.726562 478.320312 378.917969 C 488.714844 388.78125 479.960938 403.855469 463.851562 403.855469 Z M 463.851562 403.855469 " fill-opacity="1" fill-rule="nonzero"/></g></svg>