<svg xmlns="http://www.w3.org/2000/svg" xmlns:xlink="http://www.w3.org/1999/xlink" width="816" zoomAndPan="magnify" viewBox="0 0 612 791.999994" height="1056" preserveAspectRatio="xMidYMid meet" version="1.0"><defs><g/><clipPath id="6508860b17"><path d="M 142.082031 232.082031 L 469.917969 232.082031 L 469.917969 559.917969 L 142.082031 559.917969 Z M 142.082031 232.082031 " clip-rule="nonzero"/></clipPath><clipPath id="521959845c"><path d="M 306 232.082031 C 215.46875 232.082031 142.082031 305.46875 142.082031 396 C 142.082031 486.53125 215.46875 559.917969 306 559.917969 C 396.53125 559.917969 469.917969 486.53125 469.917969 396 C 469.917969 305.46875 396.53125 232.082031 306 232.082031 Z M 306 232.082031 " clip-rule="nonzero"/></clipPath><clipPath id="1c6733d089"><path d="M 0.0820312 0.0820312 L 327.917969 0.0820312 L 327.917969 327.917969 L 0.0820312 327.917969 Z M 0.0820312 0.0820312 " clip-rule="nonzero"/></clipPath><clipPath id="1aafd7224f"><path d="M 164 0.0820312 C 73.46875 0.0820312 0.0820312 73.46875 0.0820312 164 C 0.0820312 254.53125 73.46875 327.917969 164 327.917969 C 254.53125 327.917969 327.917969 254.53125 327.917969 164 C 327.917969 73.46875 254.53125 0.0820312 164 0.0820312 Z M 164 0.0820312 " clip-rule="nonzero"/></clipPath><clipPath id="56ccf089e6"><rect x="0" width="328" y="0" height="328"/></clipPath><clipPath id="260409d9ea"><rect x="0" width="84" y="0" height="148"/></clipPath></defs><rect x="-61.2" width="734.4" fill="#ffffff" y="-79.199999" height="950.399992" fill-opacity="1"/><rect x="-61.2" width="734.4" fill="#fcfaff" y="-79.199999" height="950.399992" fill-opacity="1"/><g clip-path="url(#6508860b17)"><g clip-path="url(#521959845c)"><g transform="matrix(1, 0, 0, 1, 142, 232)"><g clip-path="url(#56ccf089e6)"><g clip-path="url(#1c6733d089)"><g clip-path="url(#1aafd7224f)"><path fill="#117bf4" d="M 0.0820312 0.0820312 L 327.917969 0.0820312 L 327.917969 327.917969 L 0.0820312 327.917969 Z M 0.0820312 0.0820312 " fill-opacity="1" fill-rule="nonzero"/></g></g></g></g></g></g><g transform="matrix(1, 0, 0, 1, 264, 320)"><g clip-path="url(#260409d9ea)"><g fill="#fcfaff" fill-opacity="1"><g transform="translate(0.778495, 111.133188)"><g><path d="M 78.332031 -23.03125 L 78.332031 -39.167969 L 65.132812 -39.167969 L 65.132812 -99.457031 L 42.980469 -99.457031 L 1.90625 -40.78125 C 1.90625 -40.78125 1.613281 -26.257812 1.613281 -22.882812 L 41.953125 -22.882812 L 41.953125 0 L 65.132812 0 L 65.132812 -23.03125 Z M 42.101562 -39.167969 L 18.484375 -39.167969 L 42.101562 -74.226562 Z M 42.101562 -39.167969 "/></g></g></g></g></g></svg>