<svg xmlns="http://www.w3.org/2000/svg" xmlns:xlink="http://www.w3.org/1999/xlink" width="816" zoomAndPan="magnify" viewBox="0 0 612 791.999994" height="1056" preserveAspectRatio="xMidYMid meet" version="1.0"><defs><g/><clipPath id="e515ee04f1"><path d="M 142.082031 232.082031 L 469.917969 232.082031 L 469.917969 559.921875 L 142.082031 559.921875 Z M 142.082031 232.082031 " clip-rule="nonzero"/></clipPath><clipPath id="48ffd324dd"><path d="M 306 232.082031 C 215.46875 232.082031 142.082031 305.46875 142.082031 396 C 142.082031 486.53125 215.46875 559.921875 306 559.921875 C 396.53125 559.921875 469.917969 486.53125 469.917969 396 C 469.917969 305.46875 396.53125 232.082031 306 232.082031 Z M 306 232.082031 " clip-rule="nonzero"/></clipPath><clipPath id="8bc8d8577f"><path d="M 0.0820312 0.0820312 L 327.917969 0.0820312 L 327.917969 327.921875 L 0.0820312 327.921875 Z M 0.0820312 0.0820312 " clip-rule="nonzero"/></clipPath><clipPath id="4d5a968fec"><path d="M 164 0.0820312 C 73.46875 0.0820312 0.0820312 73.46875 0.0820312 164 C 0.0820312 254.53125 73.46875 327.921875 164 327.921875 C 254.53125 327.921875 327.917969 254.53125 327.917969 164 C 327.917969 73.46875 254.53125 0.0820312 164 0.0820312 Z M 164 0.0820312 " clip-rule="nonzero"/></clipPath><clipPath id="5b99eb42e7"><rect x="0" width="328" y="0" height="328"/></clipPath><clipPath id="1386f90c38"><rect x="0" width="84" y="0" height="148"/></clipPath></defs><rect x="-61.2" width="734.4" fill="#ffffff" y="-79.199999" height="950.399992" fill-opacity="1"/><rect x="-61.2" width="734.4" fill="#fcfaff" y="-79.199999" height="950.399992" fill-opacity="1"/><g clip-path="url(#e515ee04f1)"><g clip-path="url(#48ffd324dd)"><g transform="matrix(1, 0, 0, 1, 142, 232)"><g clip-path="url(#5b99eb42e7)"><g clip-path="url(#8bc8d8577f)"><g clip-path="url(#4d5a968fec)"><path fill="#117bf4" d="M 0.0820312 0.0820312 L 327.917969 0.0820312 L 327.917969 327.921875 L 0.0820312 327.921875 Z M 0.0820312 0.0820312 " fill-opacity="1" fill-rule="nonzero"/></g></g></g></g></g></g><g transform="matrix(1, 0, 0, 1, 264, 320)"><g clip-path="url(#1386f90c38)"><g fill="#fcfaff" fill-opacity="1"><g transform="translate(0.778495, 111.133247)"><g><path d="M 57.945312 -52.371094 C 62.785156 -54.714844 72.027344 -59.117188 72.027344 -73.933594 C 72.027344 -91.828125 58.53125 -101.21875 41.21875 -101.21875 C 18.191406 -101.21875 9.828125 -86.84375 9.828125 -74.667969 C 9.828125 -60.4375 19.511719 -54.570312 23.472656 -52.222656 C 17.75 -50.023438 5.722656 -45.179688 5.722656 -28.457031 C 5.722656 -10.855469 18.628906 1.613281 40.925781 1.613281 C 56.183594 1.613281 76.132812 -5.574219 76.132812 -28.3125 C 76.132812 -44.59375 64.25 -50.023438 57.945312 -52.371094 Z M 50.460938 -71 C 50.460938 -64.984375 47.820312 -59.703125 41.21875 -59.703125 C 34.914062 -59.703125 31.6875 -64.839844 31.6875 -72.320312 C 31.6875 -78.480469 34.621094 -83.910156 41.367188 -83.910156 C 47.089844 -83.910156 50.460938 -78.773438 50.460938 -71 Z M 52.371094 -30.367188 C 52.371094 -20.390625 47.820312 -15.988281 40.78125 -15.988281 C 35.207031 -15.988281 29.484375 -19.949219 29.484375 -30.367188 C 29.484375 -39.902344 35.207031 -44.59375 41.074219 -44.59375 C 49.289062 -44.59375 52.371094 -36.964844 52.371094 -30.367188 Z M 52.371094 -30.367188 "/></g></g></g></g></g></svg>