<svg xmlns="http://www.w3.org/2000/svg" xmlns:xlink="http://www.w3.org/1999/xlink" width="816" zoomAndPan="magnify" viewBox="0 0 612 791.999994" height="1056" preserveAspectRatio="xMidYMid meet" version="1.0"><defs><g/><clipPath id="2319f57d46"><path d="M 142.082031 232.082031 L 469.917969 232.082031 L 469.917969 559.921875 L 142.082031 559.921875 Z M 142.082031 232.082031 " clip-rule="nonzero"/></clipPath><clipPath id="3073c8e6a9"><path d="M 306 232.082031 C 215.46875 232.082031 142.082031 305.46875 142.082031 396 C 142.082031 486.53125 215.46875 559.921875 306 559.921875 C 396.53125 559.921875 469.917969 486.53125 469.917969 396 C 469.917969 305.46875 396.53125 232.082031 306 232.082031 Z M 306 232.082031 " clip-rule="nonzero"/></clipPath><clipPath id="29664733fe"><path d="M 0.0820312 0.0820312 L 327.917969 0.0820312 L 327.917969 327.921875 L 0.0820312 327.921875 Z M 0.0820312 0.0820312 " clip-rule="nonzero"/></clipPath><clipPath id="9aab81e237"><path d="M 164 0.0820312 C 73.46875 0.0820312 0.0820312 73.46875 0.0820312 164 C 0.0820312 254.53125 73.46875 327.921875 164 327.921875 C 254.53125 327.921875 327.917969 254.53125 327.917969 164 C 327.917969 73.46875 254.53125 0.0820312 164 0.0820312 Z M 164 0.0820312 " clip-rule="nonzero"/></clipPath><clipPath id="3455142f35"><rect x="0" width="328" y="0" height="328"/></clipPath><clipPath id="4f5325b094"><rect x="0" width="84" y="0" height="148"/></clipPath></defs><rect x="-61.2" width="734.4" fill="#ffffff" y="-79.199999" height="950.399992" fill-opacity="1"/><rect x="-61.2" width="734.4" fill="#fcfaff" y="-79.199999" height="950.399992" fill-opacity="1"/><g clip-path="url(#2319f57d46)"><g clip-path="url(#3073c8e6a9)"><g transform="matrix(1, 0, 0, 1, 142, 232)"><g clip-path="url(#3455142f35)"><g clip-path="url(#29664733fe)"><g clip-path="url(#9aab81e237)"><path fill="#117bf4" d="M 0.0820312 0.0820312 L 327.917969 0.0820312 L 327.917969 327.921875 L 0.0820312 327.921875 Z M 0.0820312 0.0820312 " fill-opacity="1" fill-rule="nonzero"/></g></g></g></g></g></g><g transform="matrix(1, 0, 0, 1, 264, 320)"><g clip-path="url(#4f5325b094)"><g fill="#fcfaff" fill-opacity="1"><g transform="translate(0.778495, 111.133247)"><g><path d="M 29.632812 -69.09375 C 29.632812 -73.347656 29.632812 -83.46875 39.753906 -83.46875 C 44.59375 -83.46875 50.460938 -80.242188 50.460938 -72.171875 C 50.460938 -71.144531 50.460938 -60.4375 37.992188 -60.4375 C 36.820312 -60.4375 34.621094 -60.585938 34.621094 -60.585938 L 34.621094 -43.714844 C 34.621094 -43.714844 36.671875 -43.859375 37.847656 -43.859375 C 44.007812 -43.859375 52.515625 -42.394531 52.515625 -31.097656 C 52.515625 -21.855469 47.234375 -16.429688 39.460938 -16.429688 C 32.710938 -16.429688 27.285156 -21.855469 27.285156 -31.097656 C 27.285156 -32.566406 27.429688 -35.351562 27.429688 -35.351562 L 4.546875 -33.445312 L 4.546875 -31.246094 C 4.546875 -11.441406 16.429688 1.761719 38.433594 1.761719 C 69.972656 1.761719 76.132812 -20.242188 76.132812 -29.632812 C 76.132812 -41.074219 69.679688 -50.167969 57.210938 -52.371094 C 66.453125 -55.597656 73.640625 -62.050781 73.640625 -74.519531 C 73.640625 -84.054688 68.066406 -101.21875 41.21875 -101.21875 C 25.230469 -101.21875 8.800781 -95.058594 6.453125 -71.144531 Z M 29.632812 -69.09375 "/></g></g></g></g></g></svg>