<svg xmlns="http://www.w3.org/2000/svg" xmlns:xlink="http://www.w3.org/1999/xlink" width="816" zoomAndPan="magnify" viewBox="0 0 612 791.999994" height="1056" preserveAspectRatio="xMidYMid meet" version="1.0"><defs><g/><clipPath id="3a1f49a25e"><path d="M 142.082031 232.082031 L 469.917969 232.082031 L 469.917969 559.921875 L 142.082031 559.921875 Z M 142.082031 232.082031 " clip-rule="nonzero"/></clipPath><clipPath id="2a1341696c"><path d="M 306 232.082031 C 215.46875 232.082031 142.082031 305.46875 142.082031 396 C 142.082031 486.53125 215.46875 559.921875 306 559.921875 C 396.53125 559.921875 469.917969 486.53125 469.917969 396 C 469.917969 305.46875 396.53125 232.082031 306 232.082031 Z M 306 232.082031 " clip-rule="nonzero"/></clipPath><clipPath id="88e68396cf"><path d="M 0.0820312 0.0820312 L 327.917969 0.0820312 L 327.917969 327.921875 L 0.0820312 327.921875 Z M 0.0820312 0.0820312 " clip-rule="nonzero"/></clipPath><clipPath id="ad510649c1"><path d="M 164 0.0820312 C 73.46875 0.0820312 0.0820312 73.46875 0.0820312 164 C 0.0820312 254.53125 73.46875 327.921875 164 327.921875 C 254.53125 327.921875 327.917969 254.53125 327.917969 164 C 327.917969 73.46875 254.53125 0.0820312 164 0.0820312 Z M 164 0.0820312 " clip-rule="nonzero"/></clipPath><clipPath id="6a412a137a"><rect x="0" width="328" y="0" height="328"/></clipPath><clipPath id="67ae0e685d"><rect x="0" width="84" y="0" height="148"/></clipPath></defs><rect x="-61.2" width="734.4" fill="#ffffff" y="-79.199999" height="950.399992" fill-opacity="1"/><rect x="-61.2" width="734.4" fill="#fcfaff" y="-79.199999" height="950.399992" fill-opacity="1"/><g clip-path="url(#3a1f49a25e)"><g clip-path="url(#2a1341696c)"><g transform="matrix(1, 0, 0, 1, 142, 232)"><g clip-path="url(#6a412a137a)"><g clip-path="url(#88e68396cf)"><g clip-path="url(#ad510649c1)"><path fill="#117bf4" d="M 0.0820312 0.0820312 L 327.917969 0.0820312 L 327.917969 327.921875 L 0.0820312 327.921875 Z M 0.0820312 0.0820312 " fill-opacity="1" fill-rule="nonzero"/></g></g></g></g></g></g><g transform="matrix(1, 0, 0, 1, 264, 320)"><g clip-path="url(#67ae0e685d)"><g fill="#fcfaff" fill-opacity="1"><g transform="translate(0.778495, 111.133247)"><g><path d="M 4.988281 -80.242188 L 52.371094 -80.242188 C 24.203125 -48.261719 16.578125 -13.789062 13.496094 0 L 40.78125 0 C 41.953125 -10.121094 42.980469 -17.601562 47.675781 -32.273438 C 53.691406 -50.902344 61.023438 -64.398438 75.253906 -81.5625 L 75.253906 -99.457031 L 4.988281 -99.457031 Z M 4.988281 -80.242188 "/></g></g></g></g></g></svg>