<svg xmlns="http://www.w3.org/2000/svg" xmlns:xlink="http://www.w3.org/1999/xlink" width="816" zoomAndPan="magnify" viewBox="0 0 612 791.999994" height="1056" preserveAspectRatio="xMidYMid meet" version="1.0"><defs><g/><clipPath id="01836f64e2"><path d="M 142.082031 232.082031 L 469.917969 232.082031 L 469.917969 559.917969 L 142.082031 559.917969 Z M 142.082031 232.082031 " clip-rule="nonzero"/></clipPath><clipPath id="5119f866fc"><path d="M 306 232.082031 C 215.46875 232.082031 142.082031 305.46875 142.082031 396 C 142.082031 486.53125 215.46875 559.917969 306 559.917969 C 396.53125 559.917969 469.917969 486.53125 469.917969 396 C 469.917969 305.46875 396.53125 232.082031 306 232.082031 Z M 306 232.082031 " clip-rule="nonzero"/></clipPath><clipPath id="f5463af917"><path d="M 0.0820312 0.0820312 L 327.917969 0.0820312 L 327.917969 327.917969 L 0.0820312 327.917969 Z M 0.0820312 0.0820312 " clip-rule="nonzero"/></clipPath><clipPath id="ac9a829c57"><path d="M 164 0.0820312 C 73.46875 0.0820312 0.0820312 73.46875 0.0820312 164 C 0.0820312 254.53125 73.46875 327.917969 164 327.917969 C 254.53125 327.917969 327.917969 254.53125 327.917969 164 C 327.917969 73.46875 254.53125 0.0820312 164 0.0820312 Z M 164 0.0820312 " clip-rule="nonzero"/></clipPath><clipPath id="2f7114e789"><rect x="0" width="328" y="0" height="328"/></clipPath><clipPath id="a97899d82f"><rect x="0" width="84" y="0" height="148"/></clipPath></defs><rect x="-61.2" width="734.4" fill="#ffffff" y="-79.199999" height="950.399992" fill-opacity="1"/><rect x="-61.2" width="734.4" fill="#fcfaff" y="-79.199999" height="950.399992" fill-opacity="1"/><g clip-path="url(#01836f64e2)"><g clip-path="url(#5119f866fc)"><g transform="matrix(1, 0, 0, 1, 142, 232)"><g clip-path="url(#2f7114e789)"><g clip-path="url(#f5463af917)"><g clip-path="url(#ac9a829c57)"><path fill="#117bf4" d="M 0.0820312 0.0820312 L 327.917969 0.0820312 L 327.917969 327.917969 L 0.0820312 327.917969 Z M 0.0820312 0.0820312 " fill-opacity="1" fill-rule="nonzero"/></g></g></g></g></g></g><g transform="matrix(1, 0, 0, 1, 264, 320)"><g clip-path="url(#a97899d82f)"><g fill="#fcfaff" fill-opacity="1"><g transform="translate(0.778495, 111.13313)"><g><path d="M 8.066406 -47.089844 L 28.457031 -43.714844 C 29.484375 -46.648438 31.539062 -51.488281 38.875 -51.488281 C 45.621094 -51.488281 51.488281 -46.5 51.488281 -34.324219 C 51.488281 -28.898438 50.753906 -15.84375 39.167969 -15.84375 C 30.511719 -15.84375 27.429688 -22.296875 27.429688 -32.125 L 4.105469 -31.246094 C 4.105469 -14.230469 13.789062 1.90625 38.140625 1.90625 C 64.691406 1.90625 75.546875 -17.164062 75.546875 -34.472656 C 75.546875 -52.515625 64.839844 -67.332031 45.621094 -67.332031 C 36.671875 -67.332031 32.125 -63.8125 29.925781 -62.199219 L 32.273438 -80.386719 L 69.824219 -80.386719 L 71.292969 -99.164062 L 14.082031 -99.164062 Z M 8.066406 -47.089844 "/></g></g></g></g></g></svg>