<svg xmlns="http://www.w3.org/2000/svg" xmlns:xlink="http://www.w3.org/1999/xlink" width="816" zoomAndPan="magnify" viewBox="0 0 612 791.999994" height="1056" preserveAspectRatio="xMidYMid meet" version="1.0"><defs><clipPath id="4ca55178a0"><path d="M 141.296875 224.757812 L 470.546875 224.757812 L 470.546875 567.507812 L 141.296875 567.507812 Z M 141.296875 224.757812 " clip-rule="nonzero"/></clipPath></defs><rect x="-61.2" width="734.4" fill="#ffffff" y="-79.199999" height="950.399992" fill-opacity="1"/><rect x="-61.2" width="734.4" fill="#1900b7" y="-79.199999" height="950.399992" fill-opacity="1"/><g clip-path="url(#4ca55178a0)"><path fill="#ffffff" d="M 470.777344 461.410156 C 447.410156 477.699219 418.992188 487.253906 388.347656 487.253906 C 308.644531 487.253906 244.03125 422.640625 244.03125 342.933594 C 244.03125 294.125 268.261719 250.972656 305.351562 224.855469 C 214.113281 228.613281 141.296875 303.769531 141.296875 395.933594 C 141.296875 490.496094 217.957031 567.15625 312.519531 567.15625 C 383.894531 567.15625 445.066406 523.488281 470.777344 461.410156 Z M 470.777344 461.410156 " fill-opacity="1" fill-rule="evenodd"/></g></svg>