<svg xmlns="http://www.w3.org/2000/svg" xmlns:xlink="http://www.w3.org/1999/xlink" width="794" zoomAndPan="magnify" viewBox="0 0 595.5 842.249979" height="1123" preserveAspectRatio="xMidYMid meet" version="1.0"><defs><clipPath id="fad6803b5a"><path d="M 0.015625 172 L 588 172 L 588 418 L 0.015625 418 Z M 0.015625 172 " clip-rule="nonzero"/></clipPath><clipPath id="a877a042f3"><path d="M 0.015625 0.644531 L 587.730469 0.644531 L 587.730469 245.949219 L 0.015625 245.949219 Z M 0.015625 0.644531 " clip-rule="nonzero"/></clipPath><clipPath id="f2d0988984"><path d="M 19.246094 11 L 571 11 L 571 141.0625 L 19.246094 141.0625 Z M 19.246094 11 " clip-rule="nonzero"/></clipPath><clipPath id="90b1e2217c"><path d="M 22 32 L 573.703125 32 L 573.703125 141.0625 L 22 141.0625 Z M 22 32 " clip-rule="nonzero"/></clipPath><clipPath id="81522d425a"><path d="M 14.105469 126.421875 L 559.992188 126.421875 L 559.992188 236 L 14.105469 236 Z M 14.105469 126.421875 " clip-rule="nonzero"/></clipPath><clipPath id="7f7fd33e4a"><path d="M 14.105469 126.421875 L 557 126.421875 L 557 215 L 14.105469 215 Z M 14.105469 126.421875 " clip-rule="nonzero"/></clipPath><clipPath id="91efeb577b"><rect x="0" width="588" y="0" height="246"/></clipPath><clipPath id="cb48e04330"><rect x="0" width="588" y="0" height="246"/></clipPath></defs><g clip-path="url(#fad6803b5a)"><g transform="matrix(1, 0, 0, 1, -0.000000000000000002, 172)"><g clip-path="url(#cb48e04330)"><g clip-path="url(#a877a042f3)"><g transform="matrix(1, 0, 0, 1, -0.000000000000000002, 0)"><g clip-path="url(#91efeb577b)"><g clip-path="url(#f2d0988984)"><path fill="#1900b7" d="M 19.246094 57.285156 C 19.246094 57.285156 120.175781 -43.128906 294.820312 52.460938 C 469.460938 148.050781 570.390625 66.757812 570.390625 66.757812 L 570.390625 224.691406 L 19.246094 224.691406 Z M 19.246094 57.285156 " fill-opacity="1" fill-rule="nonzero"/></g><g clip-path="url(#90b1e2217c)"><path fill="#2607e0" d="M 573.664062 224.691406 L 573.664062 87.769531 C 573.664062 87.769531 472.734375 168.546875 298.089844 73.472656 C 123.449219 -21.597656 22.519531 78.640625 22.519531 78.640625 L 22.519531 224.691406 Z M 573.664062 224.691406 " fill-opacity="1" fill-rule="nonzero"/></g><g clip-path="url(#81522d425a)"><path fill="#1900b7" d="M 559.992188 189.390625 C 559.992188 189.390625 459.0625 289.804688 284.421875 194.214844 C 109.777344 98.625 8.847656 179.917969 8.847656 179.917969 L 8.847656 21.980469 L 559.992188 21.980469 Z M 559.992188 189.390625 " fill-opacity="1" fill-rule="nonzero"/></g><g clip-path="url(#7f7fd33e4a)"><path fill="#2607e0" d="M 5.578125 21.980469 L 5.578125 158.90625 C 5.578125 158.90625 106.503906 78.128906 281.148438 173.203125 C 455.792969 268.273438 556.71875 168.035156 556.71875 168.035156 L 556.71875 21.980469 Z M 5.578125 21.980469 " fill-opacity="1" fill-rule="nonzero"/></g></g></g></g></g></g></g></svg>