<svg xmlns="http://www.w3.org/2000/svg" xmlns:xlink="http://www.w3.org/1999/xlink" width="816" zoomAndPan="magnify" viewBox="0 0 612 791.999994" height="1056" preserveAspectRatio="xMidYMid meet" version="1.0"><defs><clipPath id="e93b0b6e93"><path d="M 142.082031 232.082031 L 469.917969 232.082031 L 469.917969 559.921875 L 142.082031 559.921875 Z M 142.082031 232.082031 " clip-rule="nonzero"/></clipPath><clipPath id="17b374b820"><path d="M 306 232.082031 C 215.46875 232.082031 142.082031 305.46875 142.082031 396 C 142.082031 486.53125 215.46875 559.921875 306 559.921875 C 396.53125 559.921875 469.917969 486.53125 469.917969 396 C 469.917969 305.46875 396.53125 232.082031 306 232.082031 Z M 306 232.082031 " clip-rule="nonzero"/></clipPath><clipPath id="b2a59d305d"><path d="M 0.0820312 0.0820312 L 327.917969 0.0820312 L 327.917969 327.921875 L 0.0820312 327.921875 Z M 0.0820312 0.0820312 " clip-rule="nonzero"/></clipPath><clipPath id="a79b8449da"><path d="M 164 0.0820312 C 73.46875 0.0820312 0.0820312 73.46875 0.0820312 164 C 0.0820312 254.53125 73.46875 327.921875 164 327.921875 C 254.53125 327.921875 327.917969 254.53125 327.917969 164 C 327.917969 73.46875 254.53125 0.0820312 164 0.0820312 Z M 164 0.0820312 " clip-rule="nonzero"/></clipPath><clipPath id="749a36170f"><rect x="0" width="328" y="0" height="328"/></clipPath><clipPath id="986148832c"><path d="M 183.601562 303 L 428.101562 303 L 428.101562 489 L 183.601562 489 Z M 183.601562 303 " clip-rule="nonzero"/></clipPath></defs><rect x="-61.2" width="734.4" fill="#ffffff" y="-79.199999" height="950.399992" fill-opacity="1"/><rect x="-61.2" width="734.4" fill="#fcfaff" y="-79.199999" height="950.399992" fill-opacity="1"/><g clip-path="url(#e93b0b6e93)"><g clip-path="url(#17b374b820)"><g transform="matrix(1, 0, 0, 1, 142, 232)"><g clip-path="url(#749a36170f)"><g clip-path="url(#b2a59d305d)"><g clip-path="url(#a79b8449da)"><path fill="#8ecd34" d="M 0.0820312 0.0820312 L 327.917969 0.0820312 L 327.917969 327.921875 L 0.0820312 327.921875 Z M 0.0820312 0.0820312 " fill-opacity="1" fill-rule="nonzero"/></g></g></g></g></g></g><g clip-path="url(#986148832c)"><path fill="#fcfaff" d="M 428.394531 330.136719 L 296.691406 461.855469 L 269.753906 488.777344 L 242.816406 461.855469 L 183.601562 402.621094 L 210.539062 375.683594 L 269.753906 434.914062 L 401.453125 303.214844 Z M 428.394531 330.136719 " fill-opacity="1" fill-rule="nonzero"/></g></svg>