<svg xmlns="http://www.w3.org/2000/svg" xmlns:xlink="http://www.w3.org/1999/xlink" width="816" zoomAndPan="magnify" viewBox="0 0 612 791.999994" height="1056" preserveAspectRatio="xMidYMid meet" version="1.0"><defs><clipPath id="8db9743fd9"><path d="M 50.277344 250 L 372 250 L 372 570.945312 L 50.277344 570.945312 Z M 50.277344 250 " clip-rule="nonzero"/></clipPath><clipPath id="c9ba45774e"><path d="M 339 220.695312 L 561.777344 220.695312 L 561.777344 443 L 339 443 Z M 339 220.695312 " clip-rule="nonzero"/></clipPath></defs><rect x="-61.2" width="734.4" fill="#ffffff" y="-79.199999" height="950.399992" fill-opacity="1"/><rect x="-61.2" width="734.4" fill="#1900b7" y="-79.199999" height="950.399992" fill-opacity="1"/><g clip-path="url(#8db9743fd9)"><path fill="#ffffff" d="M 239.914062 298.125 C 250.644531 300.839844 260.695312 305.050781 269.933594 310.484375 L 300.089844 280.464844 C 302.125 278.429688 304.980469 277.882812 306.472656 279.242188 L 342.335938 315.242188 C 343.828125 316.597656 343.285156 319.453125 341.113281 321.625 L 311.09375 351.644531 C 316.527344 360.882812 320.738281 371.070312 323.453125 381.664062 L 365.972656 381.664062 C 368.960938 381.664062 371.40625 383.296875 371.40625 385.332031 L 371.40625 436.136719 C 371.40625 438.175781 368.960938 439.804688 365.972656 439.804688 L 323.453125 439.804688 C 320.738281 450.535156 316.527344 460.589844 311.09375 469.824219 L 341.113281 499.980469 C 343.285156 502.019531 343.828125 504.871094 342.335938 506.367188 L 306.472656 542.226562 C 304.980469 543.722656 302.125 543.179688 300.089844 541.003906 L 269.933594 510.984375 C 260.695312 516.417969 250.644531 520.628906 239.914062 523.480469 L 239.914062 566 C 239.914062 568.851562 238.28125 571.296875 236.246094 571.296875 L 185.441406 571.296875 C 183.402344 571.296875 181.773438 568.851562 181.773438 566 L 181.773438 523.480469 C 171.042969 520.628906 160.988281 516.417969 151.753906 510.984375 L 121.730469 541.003906 C 119.558594 543.179688 116.707031 543.722656 115.347656 542.226562 L 79.351562 506.367188 C 77.855469 504.871094 78.398438 502.019531 80.574219 499.980469 L 110.59375 469.824219 C 105.160156 460.589844 100.949219 450.535156 98.230469 439.804688 L 55.714844 439.804688 C 52.726562 439.804688 50.28125 438.175781 50.28125 436.136719 L 50.28125 385.332031 C 50.28125 383.296875 52.726562 381.664062 55.714844 381.664062 L 98.230469 381.664062 C 100.949219 371.070312 105.160156 360.882812 110.59375 351.644531 L 80.574219 321.625 C 78.398438 319.453125 77.855469 316.597656 79.351562 315.242188 L 115.347656 279.242188 C 116.707031 277.882812 119.558594 278.429688 121.730469 280.464844 L 151.753906 310.484375 C 160.988281 305.050781 171.042969 300.839844 181.773438 298.125 L 181.773438 255.605469 C 181.773438 252.617188 183.402344 250.171875 185.441406 250.171875 L 236.246094 250.171875 C 238.28125 250.171875 239.914062 252.617188 239.914062 255.605469 Z M 210.84375 350.015625 C 227.550781 350.015625 242.765625 356.808594 253.769531 367.808594 C 264.769531 378.8125 271.5625 394.027344 271.5625 410.734375 C 271.5625 427.578125 264.769531 442.65625 253.769531 453.660156 C 242.765625 464.664062 227.550781 471.457031 210.84375 471.457031 C 194.132812 471.457031 178.921875 464.664062 167.917969 453.660156 C 156.914062 442.65625 150.121094 427.578125 150.121094 410.734375 C 150.121094 394.027344 156.914062 378.8125 167.917969 367.808594 C 178.921875 356.808594 194.132812 350.015625 210.84375 350.015625 Z M 210.84375 350.015625 " fill-opacity="1" fill-rule="evenodd"/></g><g clip-path="url(#c9ba45774e)"><path fill="#ffffff" d="M 452.910156 252.484375 C 460.378906 252.617188 467.851562 253.976562 474.777344 256.148438 L 490.398438 231.5625 C 491.351562 229.933594 493.253906 229.117188 494.476562 229.796875 L 523.816406 248.40625 C 525.039062 249.085938 525.039062 251.125 523.953125 252.890625 L 508.46875 277.476562 C 513.492188 282.773438 517.839844 288.886719 521.234375 295.542969 L 549.625 289.160156 C 551.664062 288.75 553.429688 289.429688 553.835938 290.789062 L 561.445312 324.75 C 561.714844 326.109375 560.359375 327.464844 558.457031 328.007812 L 530.066406 334.394531 C 529.792969 341.863281 528.570312 349.335938 526.261719 356.265625 L 550.847656 371.75 C 552.613281 372.835938 553.429688 374.738281 552.613281 375.960938 L 534.140625 405.300781 C 533.324219 406.523438 531.289062 406.523438 529.65625 405.4375 L 505.070312 389.953125 C 499.636719 394.976562 493.660156 399.324219 486.867188 402.722656 L 493.253906 431.113281 C 493.796875 433.148438 492.980469 434.914062 491.621094 435.324219 L 457.800781 442.929688 C 456.441406 443.199219 454.945312 441.84375 454.539062 439.941406 L 448.152344 411.550781 C 440.546875 411.277344 433.210938 410.054688 426.148438 407.746094 L 410.664062 432.335938 C 409.574219 434.101562 407.675781 434.914062 406.585938 434.101562 L 377.109375 415.625 C 376.023438 414.8125 375.886719 412.773438 376.972656 411.144531 L 392.597656 386.554688 C 387.570312 381.121094 383.222656 375.007812 379.691406 368.355469 L 351.300781 374.738281 C 349.398438 375.28125 347.496094 374.464844 347.226562 373.109375 L 339.484375 339.285156 C 339.210938 337.925781 340.570312 336.429688 342.605469 336.023438 L 370.996094 329.503906 C 371.132812 322.03125 372.492188 314.695312 374.664062 307.632812 L 350.078125 292.148438 C 348.449219 291.0625 347.632812 289.160156 348.3125 288.074219 L 366.921875 258.59375 C 367.601562 257.507812 369.640625 257.371094 371.40625 258.460938 L 395.992188 274.082031 C 401.289062 268.917969 407.402344 264.574219 414.058594 261.175781 L 407.675781 232.785156 C 407.265625 230.882812 407.945312 228.980469 409.304688 228.710938 L 443.265625 220.96875 C 444.621094 220.695312 445.980469 222.054688 446.523438 224.09375 Z M 441.363281 291.46875 C 452.5 288.886719 463.640625 291.195312 472.605469 296.902344 C 481.707031 302.472656 488.5 311.574219 490.945312 322.847656 C 493.523438 333.984375 491.214844 345.125 485.644531 354.089844 C 479.941406 363.054688 470.839844 369.984375 459.699219 372.429688 C 448.425781 375.007812 437.289062 372.699219 428.320312 367.132812 C 419.355469 361.425781 412.5625 352.324219 409.984375 341.1875 C 407.539062 329.910156 409.710938 318.773438 415.417969 309.808594 C 421.121094 300.839844 430.222656 294.050781 441.363281 291.46875 Z M 441.363281 291.46875 " fill-opacity="1" fill-rule="evenodd"/></g></svg>