<svg xmlns="http://www.w3.org/2000/svg" xmlns:xlink="http://www.w3.org/1999/xlink" width="816" zoomAndPan="magnify" viewBox="0 0 612 791.999994" height="1056" preserveAspectRatio="xMidYMid meet" version="1.0"><defs><clipPath id="6edd924f47"><path d="M 192.003906 276 L 420 276 L 420 515.890625 L 192.003906 515.890625 Z M 192.003906 276 " clip-rule="nonzero"/></clipPath></defs><rect x="-61.2" width="734.4" fill="#ffffff" y="-79.199999" height="950.399992" fill-opacity="1"/><rect x="-61.2" width="734.4" fill="#fcfaff" y="-79.199999" height="950.399992" fill-opacity="1"/><g clip-path="url(#6edd924f47)"><path fill="#000000" d="M 313.457031 283.980469 L 313.457031 508.445312 C 313.457031 511.480469 311.5625 514.195312 308.625 515.355469 C 307.652344 515.742188 306.628906 515.929688 305.621094 515.929688 C 303.585938 515.929688 301.589844 515.167969 300.085938 513.730469 L 240.539062 456.875 L 201.113281 456.875 C 196.105469 456.875 192.046875 452.820312 192.046875 447.816406 L 192.046875 344.609375 C 192.046875 339.605469 196.105469 335.550781 201.113281 335.550781 L 240.539062 335.550781 L 300.085938 278.695312 C 302.335938 276.546875 305.6875 275.910156 308.625 277.070312 C 311.5625 278.234375 313.457031 280.945312 313.457031 283.980469 Z M 339.6875 444.046875 C 350.0625 441.132812 359.054688 435.101562 365.691406 426.601562 C 372.324219 418.109375 375.957031 407.988281 376.191406 397.335938 C 376.695312 374.652344 361.625 354.519531 339.546875 348.375 C 337.519531 347.8125 335.414062 348.996094 334.847656 351.023438 C 334.285156 353.050781 335.46875 355.152344 337.5 355.714844 C 356.21875 360.925781 368.992188 377.96875 368.566406 397.167969 C 368.164062 415.449219 355.4375 431.710938 337.621094 436.710938 C 335.59375 437.28125 334.414062 439.386719 334.984375 441.410156 C 335.457031 443.09375 336.984375 444.191406 338.652344 444.191406 C 338.992188 444.191406 339.339844 444.144531 339.6875 444.046875 Z M 352.21875 485.1875 C 371.429688 479.585938 388.023438 468.207031 400.210938 452.285156 C 412.394531 436.367188 418.996094 417.457031 419.300781 397.589844 C 419.941406 356.234375 392.519531 319.082031 352.625 307.246094 C 350.605469 306.644531 348.484375 307.796875 347.882812 309.8125 C 347.28125 311.828125 348.433594 313.949219 350.453125 314.550781 C 387.085938 325.417969 412.261719 359.519531 411.675781 397.472656 C 411.394531 415.695312 405.335938 433.046875 394.152344 447.65625 C 382.960938 462.28125 367.71875 472.730469 350.082031 477.871094 C 348.0625 478.460938 346.898438 480.578125 347.492188 482.597656 C 347.976562 484.261719 349.5 485.339844 351.148438 485.339844 C 351.503906 485.339844 351.863281 485.289062 352.21875 485.1875 Z M 352.21875 485.1875 " fill-opacity="1" fill-rule="nonzero"/></g></svg>