<svg xmlns="http://www.w3.org/2000/svg" xmlns:xlink="http://www.w3.org/1999/xlink" width="816" zoomAndPan="magnify" viewBox="0 0 612 791.999994" height="1056" preserveAspectRatio="xMidYMid meet" version="1.0"><defs><clipPath id="e8fc11d15a"><path d="M 133.753906 223.753906 L 478.003906 223.753906 L 478.003906 568.003906 L 133.753906 568.003906 Z M 133.753906 223.753906 " clip-rule="nonzero"/></clipPath></defs><rect x="-61.2" width="734.4" fill="#ffffff" y="-79.199999" height="950.399992" fill-opacity="1"/><rect x="-61.2" width="734.4" fill="#fcfaff" y="-79.199999" height="950.399992" fill-opacity="1"/><g clip-path="url(#e8fc11d15a)"><path fill="#ffcc00" d="M 444.472656 534.476562 L 329.175781 495.375 L 231.601562 568.191406 L 233.160156 446.453125 L 133.757812 376.15625 L 250.015625 340.015625 L 286.15625 223.757812 L 356.453125 323.160156 L 478.191406 321.601562 L 405.375 419.175781 Z M 444.472656 534.476562 " fill-opacity="1" fill-rule="nonzero"/></g><path fill="#ffe680" d="M 257.078125 336.042969 L 287.089844 234.921875 L 291.015625 249.574219 Z M 257.078125 336.042969 " fill-opacity="1" fill-rule="nonzero"/><path fill="#ffe680" d="M 243.96875 347.40625 L 142.847656 377.414062 L 157.5 381.339844 Z M 243.96875 347.40625 " fill-opacity="1" fill-rule="nonzero"/><path stroke-linecap="butt" transform="matrix(5.200151, 0, 0, 5.200151, -174.145991, -52.77862)" fill-opacity="1" fill="#000000" fill-rule="nonzero" stroke-linejoin="miter" d="M 80.436646 82.796068 L 80.41336 85.274211 L 78.117753 85.274211 L 78.117753 87.569818 L 80.345754 87.569818 L 80.345754 89.93303 L 82.708966 89.93303 L 82.708966 87.55855 L 84.742411 87.55855 L 84.766449 85.286981 L 82.617322 85.262943 L 82.64136 82.776537 Z M 80.436646 82.796068 " stroke="#000000" stroke-width="0.142" stroke-opacity="1" stroke-miterlimit="4"/><path stroke-linecap="butt" transform="matrix(5.200151, 0, 0, 5.200151, -174.145991, -52.77862)" fill-opacity="1" fill="#000000" fill-rule="nonzero" stroke-linejoin="miter" d="M 85.766269 82.061414 L 89.74527 86.236473 L 85.886458 90.183924 L 88.902446 93.199912 L 92.672619 89.3411 L 96.487112 93.111273 L 99.591739 90.006646 L 95.762223 86.221449 L 99.498593 82.21841 L 96.545704 79.202422 L 92.626046 83.324899 L 88.636529 79.139323 Z M 85.766269 82.061414 " stroke="#000000" stroke-width="0.265" stroke-opacity="1" stroke-miterlimit="4"/><path stroke-linecap="butt" transform="matrix(5.200151, 0, 0, 5.200151, -174.145991, -52.77862)" fill-opacity="1" fill="#000000" fill-rule="nonzero" stroke-linejoin="miter" d="M 105.178266 78.301757 C 103.533932 78.311523 101.855045 78.620258 101.855045 78.620258 L 101.855045 93.479351 L 106.317806 93.524422 L 106.317806 87.860524 C 106.317806 87.860524 109.501307 86.899014 110.259999 85.584448 C 110.958597 84.374297 110.794839 82.684142 110.259999 81.392863 C 109.759713 80.185717 108.695291 79.120544 107.488144 78.620258 C 106.891707 78.373871 106.039869 78.296499 105.178266 78.301757 Z M 104.738074 79.951349 C 104.738074 79.951349 106.268979 80.07304 106.846637 80.516236 C 107.525703 81.037555 108.161202 82.511371 108.161202 83.367716 C 108.161202 83.888284 107.776598 84.381809 107.381477 84.71984 C 106.672363 85.325291 104.769624 85.723417 104.769624 85.723417 Z M 104.738074 79.951349 " stroke="#000000" stroke-width="0.265" stroke-opacity="1" stroke-miterlimit="4"/></svg>